<svg xmlns="http://www.w3.org/2000/svg" width="440" height="439" viewBox="0 0 487 436.688"><defs><style>.a,.b{isolation:isolate;}.b{opacity:0.8;mix-blend-mode:luminosity;}.c{fill:#9726e0;stroke:#9726e0;}.c,.d,.e,.f,.g,.h{stroke-width:3px;}.d,.e,.f,.g,.h,.o,.r,.s,.u{fill:none;}.d{stroke:#25d747;}.e{stroke:#f2b50a;}.f{stroke:#ff4800;}.g{stroke:#f7022d;}.h{stroke:#2d65f8;}.i{fill:#8e5c5c;}.j{fill:#e03a6c;}.k{fill:#9e6a6a;}.l{fill:#e1e6f9;}.m{fill:#e8d56f;}.n{fill:#48c2c7;}.o{stroke:#9a4131;}.o,.r,.s{stroke-miterlimit:10;stroke-width:0.506px;}.p{fill:#592424;}.q{fill:#35539c;}.r{stroke:#b1c2e1;}.s{stroke:#30110e;}.t{stroke:none;}</style></defs><g class="a" transform="translate(-997 -1983.312)"><g class="b" transform="translate(-69.971 -12.841)"><g class="c" transform="translate(1122.971 2283.842)"><ellipse class="t" cx="188.5" cy="62.5" rx="188.5" ry="62.5"/><ellipse class="u" cx="188.5" cy="62.5" rx="187" ry="61"/></g><g class="d" transform="translate(1099.971 2277.842)"><ellipse class="t" cx="210.5" cy="70" rx="210.5" ry="70"/><ellipse class="u" cx="210.5" cy="70" rx="209" ry="68.5"/></g><g class="e" transform="translate(1089.971 2272.842)"><ellipse class="t" cx="221.5" cy="75.5" rx="221.5" ry="75.5"/><ellipse class="u" cx="221.5" cy="75.5" rx="220" ry="74"/></g><g class="f" transform="translate(1077.971 2271.842)"><ellipse class="t" cx="232.5" cy="77.5" rx="232.5" ry="77.5"/><ellipse class="u" cx="232.5" cy="77.5" rx="231" ry="76"/></g><g class="g" transform="translate(1066.971 2266.842)"><ellipse class="t" cx="243.5" cy="83" rx="243.5" ry="83"/><ellipse class="u" cx="243.5" cy="83" rx="242" ry="81.5"/></g><g class="h" transform="translate(1110.971 2281.842)"><ellipse class="t" cx="199.5" cy="66.5" rx="199.5" ry="66.5"/><ellipse class="u" cx="199.5" cy="66.5" rx="198" ry="65"/></g></g><g transform="translate(1148.396 1983.312)"><g class="a" transform="translate(-714.874 -294.518)"><path class="i" d="M765.212,352.411a18.653,18.653,0,0,0-21.5,15.065,336.156,336.156,0,0,0-5.163,83.174c3.719,51.439-7.435,195.279-7.435,195.279l7.746-1.359L772.01,476.678l3.051,166.661,7.486,2.577S799.9,526.865,799.9,479.766a712.611,712.611,0,0,0-7.435-95.031S787.945,356.551,765.212,352.411Z" transform="translate(-0.692 -2.458)"/><path class="j" d="M738.187,455.032s-13.907,23.294-13.907,65.427,6.481,41.593,0,64.822a48.245,48.245,0,0,0,8.2,41.025h10.593A60.306,60.306,0,0,0,757.3,579.883c-1.639-14.821,11.223-81.833,11.223-81.833s1.671,42.4-.489,64.549-13.81,51.787,5.791,63.714h11.71a159.833,159.833,0,0,0,18.69-71.812c0-39.433,2.539-81-5.389-96.983A159.886,159.886,0,0,1,738.187,455.032Z" transform="translate(-0.336 -6.846)"/><g transform="translate(749.62 304.716)"><rect class="i" width="16.522" height="19.142" transform="translate(7.348 30.379)"/><path class="k" d="M751.168,325.144c0,11.033,12.266,18.621,20.656,18.621s9.729-7.589,9.729-18.621-6.8-19.974-15.191-19.974S751.168,314.113,751.168,325.144Z" transform="translate(-751.168 -305.17)"/></g><path class="l" d="M757.355,352.216s-30.567,3.172-24.578,100.073a115.765,115.765,0,0,0,67.16,0s2.777-78.5-25.926-101.289C767.8,365.61,757.355,352.216,757.355,352.216Z" transform="translate(-0.73 -2.409)"/><path class="m" d="M730.672,655.011s-19.108,12.79-15.295,19.569,23.311-12.077,24.368-15.043a4.98,4.98,0,0,0-1-5.022A7.565,7.565,0,0,1,730.672,655.011Z" transform="translate(0 -15.354)"/><path class="m" d="M784.778,655.061S804.2,667.8,800.387,674.58s-23.311-12.077-24.368-15.043a4.708,4.708,0,0,1,.6-4.929A7.717,7.717,0,0,0,784.778,655.061Z" transform="translate(-2.327 -15.354)"/><path class="n" d="M758.939,323.874a1.965,1.965,0,0,1-1.4,2.4,1.985,1.985,0,0,1-.551.064c-1.114-.063-2.077.659-2.077,3.361a10.042,10.042,0,0,0,3.28,8.568s-5.471.044-10.32-7.488c-7.711-11.971-4.761-23.4,7.04-32.209s29.961-1.927,29.961,7.959-5.963,7.618-5.963,7.618-2.587-4.272-15.019-1.861C757.584,313.511,757.907,319.647,758.939,323.874Z" transform="translate(-1.225)"/><path class="k" d="M758.515,327.928s-6.363-2.593-4.215,4.363a4.528,4.528,0,0,0,6.813,3.28" transform="translate(-1.663 -1.405)"/><path class="o" d="M771.226,335.157a15.164,15.164,0,0,0,8.075-.917" transform="translate(-2.877 -2.694)"/><g transform="translate(-40 0)" class="hihi" transition="ease-out .3s"><g transform="translate(841.123 362.512)"><path class="m" d="M919.436,367.244c-10.016-4.488-22.887.295-28.662,9.626-6.45,10.421-12.784,29.852-11.067,65.563.665,6.732,1.318,14.34,1.956,22.494h54.926C942.144,424.587,945.807,379.062,919.436,367.244Z" transform="translate(-879.422 -365.541)"/><path class="p" d="M881.763,469.355c5.279,67.556,13.7,169.235,13.7,169.235l7.115,1.475s21.656-86.959,29.173-137.786c1.488-10.044,3.34-21.317,4.941-32.915Z" transform="translate(-879.522 -369.968)"/></g><path class="p" d="M901.2,487.248s-13.566,107.027,40.1,146.4l4.87-5.584S921.257,594.231,928.34,557.3c8.567-44.568,18.672-65.424,4.019-90.33" transform="translate(-32.355 -7.355)"/><g transform="translate(856.326 318.137)"><path class="p" d="M902.975,366.4V355.354H919.5v10.724c0,4.652-8.242,6.319-12.894,6.319h0C902.127,372.393,902.975,370.871,902.975,366.4Z" transform="translate(-895.628 -320.731)"/><path class="p" d="M895.3,339.176c0,11.033,2.6,18.125,10.919,19.146,12.947,1.61,19.46-8.129,19.46-19.146s-6.8-19.987-15.188-19.987S895.3,328.144,895.3,339.176Z" transform="translate(-895.303 -319.189)"/></g><path class="l" d="M948.45,640.04s-4.467,22.557,3.025,24.654,7.941-25.024,6.591-27.871a5.18,5.18,0,0,0-4.14-2.991A7.965,7.965,0,0,1,948.45,640.04Z" transform="translate(-41.188 -14.472)"/><path class="l" d="M894.992,644.845S875.31,656.731,878.8,663.676s23.853-10.985,25.043-13.894a4.972,4.972,0,0,0-.766-5.069A7.568,7.568,0,0,1,894.992,644.845Z" transform="translate(-38.511 -14.936)"/><g transform="translate(854.64 316.762)"><path class="q" d="M916.485,358.842" transform="translate(-894.521 -319.505)"/><path class="q" d="M931,350.188c-4.08-9.278,1.5-9.56-5.4-23.819s-28.414-8.045-31.167-1.139c-2.621,6.59,1.412,8.22,1.412,8.22s.869-4.809,8.11-3.905,7.7,11.14,7.7,11.14,3.393-7.131,6.564-1.57c1.807,3.179-.3,5.418-2.433,6.751a8.4,8.4,0,0,0-.373,13.679,11.515,11.515,0,0,0,14.65-1.7A7.125,7.125,0,0,0,931,350.188Z" transform="translate(-893.542 -317.753)"/></g><path class="l" d="M880.021,449.294h58.935s16.823,24.682,16.823,70.918c-21.6,3.735-58.962,7.006-58.962,7.006l-17.394-2.332Z" transform="translate(-38.3 -6.601)"/><path class="q" d="M895.716,346.554a12.047,12.047,0,0,1,6.748.718,5.286,5.286,0,0,0,6.39-2.824,59.41,59.41,0,0,0,2.885-7.988l2.849,1.629a33.764,33.764,0,0,0-4.08,14.493c0,7.329-1.569,11.356-9.394,11.356S895.716,346.554,895.716,346.554Z" transform="translate(-38.878 -1.789)"/><path class="p" d="M916.087,337.868s6.365-2.592,4.215,4.364a4.53,4.53,0,0,1-6.824,3.283" transform="translate(-39.752 -1.829)"/><line class="r" y2="53.771" transform="translate(868.132 462.357)"/><path class="s" d="M900.325,537.649s1.72,36.7,12.592,56.41" transform="translate(-33.006 -10.369)"/><g transform="translate(3)"><path class="p" d="M901.938,373.571c9.2-6.363,18.949,9.446-.175,32s-52.811,27.359-52.811,27.359L847,427.394C876.437,416.342,887.626,383.476,901.938,373.571Z" transform="translate(-21.944 -3.311)"/><path class="p" d="M849.467,429.887s-15.551-2-17.391,0c-1.718,1.9,4.085,2.069,4.085,2.069s-6.567,3.971-6.268,5.734c.526,3.067,5.556,8.719,20.207-3.416" transform="translate(-21.024 -5.736)"/></g></g><path class="i" d="M754.205,361.681c-9.4-7.669-16.2,7.37,2.121,35.76,22.657,35.1,53.808,37.913,53.808,37.913v-7.938C779.888,413.693,768.839,373.622,754.205,361.681Z" transform="translate(-1.276 -2.78)"/><path class="i" d="M822.551,430.979s14.14-2.273,15.869-.415c1.632,1.748-3.675,2.05-3.675,2.05s7.043.258,6.813,5.129c-.138,2.929-5.8,8.474-19.459-2.6" transform="translate(-19.549 -5.771)"/></g></g></g></svg>