<svg xmlns="http://www.w3.org/2000/svg" width="335" height="240" viewBox="0 0 1028.678 636.282"><defs><style>.a{opacity:0.8;}.b{fill:#f7022d;}.c{fill:#ff4800;}.d{fill:#f2b50a;}.e{fill:#25d747;}.f{fill:#2d65f8;}.g{fill:#9726e0;}</style></defs><g class="a" transform="translate(-1148.445 -27.249)"><path class="b" d="M2071.262,105.366c-61.882,34.864-87.256,32.2-156.4,73.771-51.505,30.965-52.246,41.349-105.977,75.889-64.03,41.144-86.656,36.587-157.019,77.025-130.513,75-128,102.963-222.185,142.38-53.117,22.223-97.833,31.71-155.586,75.218-20.412,15.377-28.259,24.309-52.584,43-25.775,19.768-72.163,48.4-73.018,53.265s9.156,2.586,9.156,2.586,47.263-29.168,69.367-46.121c24.324-18.693,32.172-27.624,52.583-43,57.756-43.505,102.465-52.992,155.582-75.227,94.183-39.414,91.678-67.374,222.185-142.379,70.366-40.435,92.988-35.882,157.021-77.029,53.732-34.528,54.472-44.916,105.974-75.889,69.143-41.57,94.518-38.909,156.4-73.771,26.172-14.744,61.293-37.577,99.882-73.022l-.03-14.809C2135.889,65.616,2098.67,89.922,2071.262,105.366Z"/><path class="c" d="M2076.22,116.755c-61.9,34.874-87.281,32.215-156.445,73.795-51.52,30.973-52.258,41.361-106,75.9-64.048,41.161-86.68,36.6-157.064,77.047-130.544,75.026-128.035,102.995-222.246,142.418-53.127,22.233-97.856,31.725-155.63,75.24-20.419,15.381-28.266,24.316-52.6,43.015-19.539,14.986-57.707,37.816-57.819,40.5s16.13,1.683,20.178,0,29.339-19.613,43.379-30.374c24.334-18.7,32.181-27.634,52.6-43.015,57.772-43.515,102.5-53.008,155.63-75.24,94.211-39.426,91.7-67.388,222.248-142.413,70.382-40.448,93.013-35.892,157.058-77.047,53.749-34.535,54.486-44.928,106-75.9,69.162-41.58,94.542-38.921,156.448-73.795a531.6,531.6,0,0,0,90.952-64.98l-.031-15.227A534.444,534.444,0,0,1,2076.22,116.755Z" transform="translate(3.791 4.145)"/><path class="d" d="M2079.276,127.9c-61.88,34.864-87.254,32.2-156.4,73.771-51.5,30.965-52.246,41.349-105.978,75.889-64.031,41.144-86.656,36.587-157.019,77.025-130.507,75-128.009,102.963-222.185,142.378-53.117,22.223-97.833,31.71-155.587,75.218-20.409,15.377-28.256,24.309-52.583,43-10.367,7.951-31.316,21.112-31.793,22.824s19.306-.34,25.416-4.732,7.84-5.733,11.7-8.691c24.326-18.685,32.174-27.624,52.583-43,57.756-43.505,102.465-52.992,155.584-75.227,94.183-39.411,91.676-67.371,222.185-142.379,70.364-40.435,92.986-35.882,157.021-77.03,53.731-34.528,54.472-44.916,105.975-75.887,69.142-41.57,94.514-38.911,156.4-73.778a527.659,527.659,0,0,0,82.788-57.922l-.029-13.931A530.308,530.308,0,0,1,2079.276,127.9Z" transform="translate(9.355 8.145)"/><path class="e" d="M2081.729,138.969c-61.872,34.861-87.255,32.205-156.4,73.771-51.5,30.963-52.243,41.349-105.977,75.887-64.03,41.144-86.656,36.587-157.019,77.025-130.511,75.007-128,102.966-222.184,142.384-53.114,22.221-97.831,31.708-155.587,75.216-20.411,15.377-56.111,44.295-55.656,46.479s12.409,1.378,21.124-3.678,23.605-20.7,40.039-33.074c57.756-43.505,102.47-52.995,155.582-75.227,94.185-39.414,91.678-67.371,222.185-142.38,70.366-40.435,92.988-35.882,157.021-77.03,53.734-34.528,54.472-44.916,105.978-75.887,69.143-41.57,94.515-38.911,156.4-73.778a523.917,523.917,0,0,0,74.275-50.837l-.029-14.237A526.456,526.456,0,0,1,2081.729,138.969Z" transform="translate(15.274 12.022)"/><path class="f" d="M2085.52,150.518c-61.906,34.866-87.284,32.21-156.45,73.8-51.52,30.97-52.258,41.359-106,75.9-64.05,41.163-86.68,36.6-157.065,77.047-130.546,75.023-128.036,102.988-222.246,142.413-53.127,22.233-97.854,31.725-155.63,75.242-13.763,10.367-33.7,24.606-33.07,27.293s10.438,4.074,15.5,1.782,13.787-11.785,23.308-18.956c57.772-43.515,102.5-53.008,155.63-75.24,94.211-39.424,91.7-67.388,222.248-142.413,70.382-40.448,93.013-35.892,157.058-77.047,53.749-34.535,54.486-44.928,106-75.9,69.162-41.58,94.544-38.921,156.448-73.795a520.6,520.6,0,0,0,65.343-43.7l-.03-14.649A523.323,523.323,0,0,1,2085.52,150.518Z" transform="translate(20.236 16.009)"/><path class="g" d="M2090.8,162.355c-61.872,34.861-87.254,32.205-156.4,73.77-51.5,30.963-52.243,41.349-105.977,75.887-64.031,41.144-86.656,36.587-157.019,77.025C1540.9,464.042,1543.4,492,1449.223,531.42c-53.114,22.221-97.831,31.708-155.586,75.216-7.5,5.646-18.308,12.7-18.834,15.132s8.223,3.206,11.384,3.924l12.771-9.657c57.756-43.505,102.47-52.995,155.584-75.227,94.183-39.411,91.678-67.371,222.185-142.377,70.363-40.438,92.988-35.882,157.019-77.03,53.734-34.528,54.474-44.919,105.976-75.889,69.143-41.57,94.518-38.912,156.4-73.771a517.608,517.608,0,0,0,56.772-37.133l-.027-13.415A518.95,518.95,0,0,1,2090.8,162.355Z" transform="translate(23.983 20.041)"/><path class="g" d="M1286.578,537.693a98.059,98.059,0,0,0-11.779-3.938" transform="translate(23.987 108.053)"/><path class="g" d="M2151.009,130.3s-.289.212-.835.607c0,.081-.007.163-.01.244,0-.081.006-.163.01-.244-5.495,3.959-37.933,26.869-84.7,50.386-32.928,16.557-76.613,29.363-111.635,49.847-52.234,30.557-68.428,55.636-130.794,90.262-62.1,37.049-117.743,54.332-173.728,86.218-83.23,57.257-144.523,109.2-188.921,124.616-155.239,53.892-178.837,90.317-176,91.492s116.485,16.287,175.993,16.287c81.463-2.982,78.028-15.9,161.082-16.253h2.618c84.332,0,58.042,5.621,173.634,16.259,58.834,5.414,133-18.842,224.326-3.358s129.3-10.79,129.3-10.79Z" transform="translate(25.769 21.984)"/></g></svg>