<svg xmlns="http://www.w3.org/2000/svg" width="864.56" height="636.282" viewBox="0 0 1028.678 636.282"><defs><style>.a{opacity:0.8;}.b{fill:#f7022d;}.c{fill:#ff4800;}.d{fill:#f2b50a;}.e{fill:#25d747;}.f{fill:#2d65f8;}.g{fill:#9726e0;}.h{isolation:isolate;}.i{fill:#634444;}.j{fill:#7a5959;}.k{fill:#8883df;}.l{fill:#e1e6f9;}.m{fill:#e03a6c;}.n{fill:#8739e5;}.ao,.av,.o{fill:none;stroke-miterlimit:10;}.o{stroke:#6864df;}.ao,.o{stroke-width:0.506px;}.p{fill:#b78876;}.q{fill:#aa6550;}.r{fill:#e0e0e0;}.s{fill:#e8505b;}.t{fill:#a86a60;}.u{fill:#455a64;}.v{fill:#f63434;}.w{fill:#263238;}.x{fill:#fafafa;}.y{fill:#48c2c7;}.z{fill:#e67b47;}.aa{fill:#e8d56f;}.ab{fill:#5595f6;}.ac{fill:#454fb4;}.ad{fill:#4d4d4d;}.ae{fill:#d47446;stroke:#000;}.af{fill:#eb996e;}.ag{fill:#363f3f;}.ah{opacity:0.6;}.ai{fill:#fff;}.aj{fill:#0aff86;}.ak{opacity:0.3;}.al{fill:#ffbe9d;}.am{fill:#ebebeb;}.an{fill:#ff8074;}.ao{stroke:#9a4131;}.ap{fill:#64c6ec;}.aq{fill:#995037;}.ar{fill:#d40077;}.as{fill:#af0068;}.at{fill:#320094;}.au{opacity:0.2;}.av{stroke:#839198;}.aw{fill:#612be2;}.ax{fill:#ed74ff;}</style></defs><g transform="translate(-501.445 -199.127)"><g class="a" transform="translate(-647 171.878)"><path class="b" d="M2071.262,105.366c-61.882,34.864-87.256,32.2-156.4,73.771-51.505,30.965-52.246,41.349-105.977,75.889-64.03,41.144-86.656,36.587-157.019,77.025-130.513,75-128,102.963-222.185,142.38-53.117,22.223-97.833,31.71-155.586,75.218-20.412,15.377-28.259,24.309-52.584,43-25.775,19.768-72.163,48.4-73.018,53.265s9.156,2.586,9.156,2.586,47.263-29.168,69.367-46.121c24.324-18.693,32.172-27.624,52.583-43,57.756-43.505,102.465-52.992,155.582-75.227,94.183-39.414,91.678-67.374,222.185-142.379,70.366-40.435,92.988-35.882,157.021-77.029,53.732-34.528,54.472-44.916,105.974-75.889,69.143-41.57,94.518-38.909,156.4-73.771,26.172-14.744,61.293-37.577,99.882-73.022l-.03-14.809C2135.889,65.616,2098.67,89.922,2071.262,105.366Z"/><path class="c" d="M2076.22,116.755c-61.9,34.874-87.281,32.215-156.445,73.795-51.52,30.973-52.258,41.361-106,75.9-64.048,41.161-86.68,36.6-157.064,77.047-130.544,75.026-128.035,102.995-222.246,142.418-53.127,22.233-97.856,31.725-155.63,75.24-20.419,15.381-28.266,24.316-52.6,43.015-19.539,14.986-57.707,37.816-57.819,40.5s16.13,1.683,20.178,0,29.339-19.613,43.379-30.374c24.334-18.7,32.181-27.634,52.6-43.015,57.772-43.515,102.5-53.008,155.63-75.24,94.211-39.426,91.7-67.388,222.248-142.413,70.382-40.448,93.013-35.892,157.058-77.047,53.749-34.535,54.486-44.928,106-75.9,69.162-41.58,94.542-38.921,156.448-73.795a531.6,531.6,0,0,0,90.952-64.98l-.031-15.227A534.444,534.444,0,0,1,2076.22,116.755Z" transform="translate(3.791 4.145)"/><path class="d" d="M2079.276,127.9c-61.88,34.864-87.254,32.2-156.4,73.771-51.5,30.965-52.246,41.349-105.978,75.889-64.031,41.144-86.656,36.587-157.019,77.025-130.507,75-128.009,102.963-222.185,142.378-53.117,22.223-97.833,31.71-155.587,75.218-20.409,15.377-28.256,24.309-52.583,43-10.367,7.951-31.316,21.112-31.793,22.824s19.306-.34,25.416-4.732,7.84-5.733,11.7-8.691c24.326-18.685,32.174-27.624,52.583-43,57.756-43.505,102.465-52.992,155.584-75.227,94.183-39.411,91.676-67.371,222.185-142.379,70.364-40.435,92.986-35.882,157.021-77.03,53.731-34.528,54.472-44.916,105.975-75.887,69.142-41.57,94.514-38.911,156.4-73.778a527.659,527.659,0,0,0,82.788-57.922l-.029-13.931A530.308,530.308,0,0,1,2079.276,127.9Z" transform="translate(9.355 8.145)"/><path class="e" d="M2081.729,138.969c-61.872,34.861-87.255,32.205-156.4,73.771-51.5,30.963-52.243,41.349-105.977,75.887-64.03,41.144-86.656,36.587-157.019,77.025-130.511,75.007-128,102.966-222.184,142.384-53.114,22.221-97.831,31.708-155.587,75.216-20.411,15.377-56.111,44.295-55.656,46.479s12.409,1.378,21.124-3.678,23.605-20.7,40.039-33.074c57.756-43.505,102.47-52.995,155.582-75.227,94.185-39.414,91.678-67.371,222.185-142.38,70.366-40.435,92.988-35.882,157.021-77.03,53.734-34.528,54.472-44.916,105.978-75.887,69.143-41.57,94.515-38.911,156.4-73.778a523.917,523.917,0,0,0,74.275-50.837l-.029-14.237A526.456,526.456,0,0,1,2081.729,138.969Z" transform="translate(15.274 12.022)"/><path class="f" d="M2085.52,150.518c-61.906,34.866-87.284,32.21-156.45,73.8-51.52,30.97-52.258,41.359-106,75.9-64.05,41.163-86.68,36.6-157.065,77.047-130.546,75.023-128.036,102.988-222.246,142.413-53.127,22.233-97.854,31.725-155.63,75.242-13.763,10.367-33.7,24.606-33.07,27.293s10.438,4.074,15.5,1.782,13.787-11.785,23.308-18.956c57.772-43.515,102.5-53.008,155.63-75.24,94.211-39.424,91.7-67.388,222.248-142.413,70.382-40.448,93.013-35.892,157.058-77.047,53.749-34.535,54.486-44.928,106-75.9,69.162-41.58,94.544-38.921,156.448-73.795a520.6,520.6,0,0,0,65.343-43.7l-.03-14.649A523.323,523.323,0,0,1,2085.52,150.518Z" transform="translate(20.236 16.009)"/><path class="g" d="M2090.8,162.355c-61.872,34.861-87.254,32.205-156.4,73.77-51.5,30.963-52.243,41.349-105.977,75.887-64.031,41.144-86.656,36.587-157.019,77.025C1540.9,464.042,1543.4,492,1449.223,531.42c-53.114,22.221-97.831,31.708-155.586,75.216-7.5,5.646-18.308,12.7-18.834,15.132s8.223,3.206,11.384,3.924l12.771-9.657c57.756-43.505,102.47-52.995,155.584-75.227,94.183-39.411,91.678-67.371,222.185-142.377,70.363-40.438,92.988-35.882,157.019-77.03,53.734-34.528,54.474-44.919,105.976-75.889,69.143-41.57,94.518-38.912,156.4-73.771a517.608,517.608,0,0,0,56.772-37.133l-.027-13.415A518.95,518.95,0,0,1,2090.8,162.355Z" transform="translate(23.983 20.041)"/><path class="g" d="M1286.578,537.693a98.059,98.059,0,0,0-11.779-3.938" transform="translate(23.987 108.053)"/><path class="g" d="M2151.009,130.3s-.289.212-.835.607c0,.081-.007.163-.01.244,0-.081.006-.163.01-.244-5.495,3.959-37.933,26.869-84.7,50.386-32.928,16.557-76.613,29.363-111.635,49.847-52.234,30.557-68.428,55.636-130.794,90.262-62.1,37.049-117.743,54.332-173.728,86.218-83.23,57.257-144.523,109.2-188.921,124.616-155.239,53.892-178.837,90.317-176,91.492s116.485,16.287,175.993,16.287c81.463-2.982,78.028-15.9,161.082-16.253h2.618c84.332,0,58.042,5.621,173.634,16.259,58.834,5.414,133-18.842,224.326-3.358s129.3-10.79,129.3-10.79Z" transform="translate(25.769 21.984)"/></g><g class="h" transform="translate(-11 -16.451)"><g transform="matrix(0.999, -0.035, 0.035, 0.999, 1102.781, 204.456)"><g transform="translate(49.486 18.738)"><path class="i" d="M548.5,197.786s-13.262,3.766-14.064,6.436c-.768,2.506,4.01.531,4.01.531s-8.235,8.291-7.389,9.9c1.467,2.828,11.727,4.6,19.453-12.776" transform="translate(-500.55 -49.006)"/><path class="i" d="M553.02,123.432a80.589,80.589,0,0,0-2.723,15.106c-9.415,33.077-41.364,65.322-41.364,65.322l-2.013,7.366s40.17-11.976,69.426-73.772C567.711,134.263,560.607,128.378,553.02,123.432Z" transform="translate(-506.92 -68.681)"/><path class="i" d="M595.031,167.053c-12.288-32.762-27.648-37.35-27.648-37.35a74.488,74.488,0,0,0-12.516-7.7c-6.224,6.577-13.287,12.513-17.974,20.436.18.128.352.257.531.384,0,24.245,34.563,47.831,24.578,122.528s9.985,123.182,9.985,123.182h8.651s2.108-53.059,14.393-100.248S607.32,199.814,595.031,167.053Z" transform="translate(-498.989 -69.06)"/><path class="i" d="M594.462,185.611a210.352,210.352,0,0,1,15.584,74.631c0,38.94,44.854,83.921,44.854,83.921l-5.912,5.045s-77.5-24.513-77.5-111.792" transform="translate(-489.835 -52.227)"/><g transform="translate(41.513 5.27)"><rect class="i" width="18.514" height="18.301" transform="translate(9.228 29.032)"/><path class="j" d="M575.72,103.388c0,10.548-14.772,14.658-24.191,14.658s-11.782-4.77-11.782-15.3S549.3,84.3,558.7,84.3,575.72,92.846,575.72,103.388Z" transform="translate(-539.747 -84.304)"/></g><path class="k" d="M592.9,178.868s31.521,26.759,27.974,97.327c-14.771,8.066-49.394,6.977-49.394,6.977Z" transform="translate(-489.835 -54.012)"/><path class="k" d="M556.807,186.432a112.152,112.152,0,0,0,43.066-7.564c15.022,57.128,3.418,111.44,3.418,111.44s-30.387,9.95-58.154-5.359C555.178,208.145,556.807,186.432,556.807,186.432Z" transform="translate(-496.807 -54.012)"/><path class="l" d="M568.916,123s36.326,17.622,44.035,84.413c-40.147,14.872-58.142,7.82-58.142,7.82h0A118.169,118.169,0,0,0,538.568,166.6a32.984,32.984,0,0,1-4.168-17.4C534.4,125.509,545.53,113.446,568.916,123Z" transform="translate(-499.657 -69.663)"/><path class="i" d="M540.04,222.213s32.332-47.25,2.437-74.286c-4.032-3.594-5.439-9.952-3.4-15.359h0c2.447-6.4,8.865-9.23,14.336-6.331a10.991,10.991,0,0,1,2.878,2.226c9.634,10.318,21.194,27.649,17.581,48.986-3.456,20.724-14.481,38.592-30.176,48.908Z" transform="translate(-498.657 -68.239)"/><path class="m" d="M560.013,80.581s-15.384-3.244-18.6,7.8,5.667,4.8,13.014,9.211-4.818,4.852.506,22.806,30.434,8.87,30.434-9.086S576.755,80.581,560.013,80.581Z" transform="translate(-497.972 -80.137)"/><path class="m" d="M573.756,109.956c9.631,2.331,16.877,9.125,18.69,17.527,3.3,14.5,21.559,17.172,21.559,27.843s11.413,25.206-4.572,28.459c-10.556,2.157-21.163-3.393-23.693-12.4a14.387,14.387,0,0,1,.106-8.177c3.047-11.273-7.606-5.215-10.9-14.52s-16.991-20.936-10.143-32.212S573.756,109.956,573.756,109.956Z" transform="translate(-492.105 -72.51)"/><path class="m" d="M631.55,315.64s-5.979,21.383,2.31,23.663,9.989-23.609,8.6-26.379a5.582,5.582,0,0,0-4.649-2.878A7.87,7.87,0,0,1,631.55,315.64Z" transform="translate(-474.493 -19.3)"/><path class="m" d="M568.1,331.924s-21.412,12.231-17.139,18.712,26.122-11.547,27.307-14.382a4.244,4.244,0,0,0-1.122-4.8A9.7,9.7,0,0,1,568.1,331.924Z" transform="translate(-495.415 -13.636)"/><path class="j" d="M552.237,98.8s7.133-2.479,4.723,4.172c-.376,2.37-2.931,4.032-5.71,3.71a5.673,5.673,0,0,1-1.926-.575" transform="translate(-495.699 -75.317)"/><path class="n" d="M579.114,118.132s-8-2.7-14.709,5.8c1.87-12.579,13.917-8.864,13.917-8.864Z" transform="translate(-491.709 -71.03)"/><path class="o" d="M594.95,199.162s11.255,22.695-2.111,71.849" transform="translate(-484.185 -48.642)"/></g></g><g transform="matrix(0.999, -0.035, 0.035, 0.999, 883.968, 221.827)"><path class="p" d="M22.468,355.07,24.7,373.25l5.931.8,3.789-3.229-1.773-15.4Z"/><g transform="translate(130.256 44.728)"><path class="p" d="M432.981,113.634h0c2.433-3.519,3.77-6.162,5.488-8.382,2.118-2.735,2.8-4.013,2.262-4.376-.718-.486-.42-.331-4.978,4.094,0,0,6.449-6.371,3.968-6.092-1.1.125-6.511,5.368-6.511,5.368,4.733-3.813,5.915-6,5.3-6.683-.89-.993-7.411,5.42-7.411,5.42s5.07-4.793,5.7-5.908-.9-.84-2.089-.253c-1.339.656-8.574,5.591-10.737,6.9a1.49,1.49,0,0,1-2.222-.451c-1.3-3.437-4.14-5.421-5.163-5.6a1.123,1.123,0,0,0-.8,1.985,13.718,13.718,0,0,1,1.939,3.173,8.8,8.8,0,0,1,.828,2.848c.126,1.147.188,2.123.219,2.954l-3.28,18.3,11.534,8.118Z" transform="translate(-415.409 -96.31)"/><g transform="translate(17.657 5.17)"><path class="q" d="M429.377,106.615a16.543,16.543,0,0,0,3.249-2.9,16.41,16.41,0,0,0,2.837-3.308,16.734,16.734,0,0,0-3.249,2.9A16.642,16.642,0,0,0,429.377,106.615Z" transform="translate(-429.371 -100.398)"/></g><g transform="translate(15.773 3.585)"><path class="q" d="M427.887,105.376a18.964,18.964,0,0,0,3.636-2.9,18.7,18.7,0,0,0,3.249-3.327,18.937,18.937,0,0,0-3.637,2.9A18.719,18.719,0,0,0,427.887,105.376Z" transform="translate(-427.882 -99.145)"/></g><g transform="translate(13.826 2.361)"><path class="q" d="M426.347,103.989a16.9,16.9,0,0,0,3.487-2.685,17.078,17.078,0,0,0,3.106-3.119,16.9,16.9,0,0,0-3.487,2.685A17.069,17.069,0,0,0,426.347,103.989Z" transform="translate(-426.342 -98.177)"/></g></g><path class="p" d="M25.385,353.547l-1.307,19.806,6.549.7,3.789-3.229L37.3,355.588Z" transform="translate(41.01 0.431)"/><g transform="translate(52.95 5.657)"><path class="p" d="M369.941,65.467a16.976,16.976,0,0,1,18.248,15.6c.008.1.015.2.021.3.475,7.886.905,16.412.852,20.709-.114,9.22-9.337,10.656-9.337,10.656s1.321,16.02,1.184,18.607l-24.4,1.118L354.3,83.16A16.984,16.984,0,0,1,369.941,65.467Z" transform="translate(-354.278 -65.414)"/></g><g transform="translate(28.926 62.209)"><g transform="translate(0 0.475)"><path class="p" d="M425.179,111.435,414.63,138.293l-27.24-24.369c-1.11,11.263-1.9,22.481,3.875,32.76,11.289,10.963,23.742,20.052,32.845,14.417,7.57-4.688,15.055-46.292,15.055-46.292Z" transform="translate(-321.7 -110.264)"/><path class="p" d="M345.189,114.33c-5.093,3-8.635,7.521-9.908,11.8l11.618,26.8c1.219-2.355,2.438-3.628,3.657-6.066C352.953,136.076,350.8,124.159,345.189,114.33Z" transform="translate(-335.281 -109.498)"/><path class="r" d="M404.575,200.351c-2.49-10.912-.754-43.46-1.277-53.45l.028.028c-5.778-10.279-4.985-21.5-3.875-32.76l-.269-.242c-2.926-2.142-7.973-2.409-11.811-2.885-.095-.013-.194-.024-.29-.035-1.49-.178-2.219-.391-3.113-.5-6.632,4.988-17.979,5.305-24.49.161,0,0-4.937,1.117-7.885,1.682a24.844,24.844,0,0,0-7.923,2.99c5.612,9.829,7.763,21.746,5.367,32.532-1.219,2.438-2.438,3.712-3.657,6.066l.008.018,2.228,25.472-6.437,22.807a3.959,3.959,0,0,0,2.734,4.884,4.028,4.028,0,0,0,.575.118l57.6.878.941-.467C404.24,205.416,405.14,202.831,404.575,200.351Z" transform="translate(-333.76 -110.509)"/></g><g transform="translate(26.148)"><path class="s" d="M355.958,110.133" transform="translate(-355.958 -110.133)"/></g><g transform="translate(92.327 27.981)"><path class="t" d="M408.572,143.2a26.639,26.639,0,0,1-.283-5.472,26.657,26.657,0,0,1,.283-5.473,26.825,26.825,0,0,1,.282,5.473A26.7,26.7,0,0,1,408.572,143.2Z" transform="translate(-408.289 -132.259)"/></g><g transform="translate(92.453 28.016)"><path class="t" d="M412.386,143.9c.044.51-.765-.951-2.455-5.645a24.638,24.638,0,0,1-1.52-5.965,53.078,53.078,0,0,1,2.056,5.782A53.207,53.207,0,0,1,412.386,143.9Z" transform="translate(-408.389 -132.287)"/></g></g><g transform="translate(6.589 159.309)"><g transform="translate(59.91 3.315)"><path class="u" d="M370.329,189.537a21.2,21.2,0,0,1-.077,3.605c-.124,2.221-.336,5.285-.608,8.668-.149,1.693-.242,3.3-.45,4.778a9.2,9.2,0,0,1-1.287,3.763,5.194,5.194,0,0,1-1.968,1.827,1.823,1.823,0,0,1-.943.281,6.031,6.031,0,0,0,2.552-2.334,9.329,9.329,0,0,0,1.1-3.616c.172-1.435.252-3.062.4-4.75.272-3.382.551-6.442.784-8.654A21.754,21.754,0,0,1,370.329,189.537Z" transform="translate(-364.992 -189.537)"/></g><path class="v" d="M49.111,120.21s-14.72,27.663-14.72,77.693,6.861,49.391,0,76.972,8.685,48.714,8.685,48.714h11.21s18.41-21.131,15.055-55.126c-1.735-17.6,11.878-97.173,11.878-97.173s1.768,50.347-.519,76.648-14.616,61.5,6.129,75.652H99.223S119,285.139,119,238.314s2.687-96.185-5.7-115.159C78.412,129.272,49.111,120.21,49.111,120.21Z" transform="matrix(0.999, 0.035, -0.035, 0.999, -16.172, -127.931)"/></g><g transform="translate(10.955 78.024)"><path class="p" d="M365.53,165.126l-17.287,1.148,6.181-22.157.075-.393c-.062.314-.113.629-.182.94.07-.311.12-.626.182-.94l-15.26-21.085s-16.4,45.578-17.612,49.7c-3.269,11.079,8.5,20.8,18.785,18.542,3.1-.683,33.577-14.313,33.577-14.313Z" transform="translate(-321.07 -122.639)"/><g transform="translate(27.16 43.35)"><path class="w" d="M342.818,157.281c.034-.118.073-.245.109-.363l-.379.021Z" transform="translate(-342.547 -156.918)"/></g><g transform="translate(43.16 28.149)"><g transform="translate(0.234)"><path class="u" d="M357.821,158.408l-2.405-11.7a1.5,1.5,0,0,1,1.171-1.777,1.486,1.486,0,0,1,.309-.03l30.289.142a1.5,1.5,0,0,1,1.5,1.509,1.268,1.268,0,0,1-.01.169l-3.126,26.812a2.089,2.089,0,0,1-2.092,1.848l-19.753-.154a2.086,2.086,0,0,1-2.008-1.576Z" transform="translate(-355.384 -144.898)"/></g><g transform="translate(0 7.347)"><path class="p" d="M355.2,150.708h0a3.184,3.184,0,0,1,2.976,2.031c.5,1.292,1.222,2.8,2.027,3.242,1.487.811,4.054,1.458,5.409.8s6.761-5.529,7.708-4.99,1.758,1.758.812,2.84-5.95,4.326-5,5.408,11.493-3.68,13.115-3.259,2.568,1.416,1.622,2.068-8.112,3.355-8.517,4.3c0,0,10.816-2.839,11.222-2.164s1.081,1.758,0,2.164-10.411,2.84-11.222,3.245a19.619,19.619,0,0,1-4.171,1.218,44.681,44.681,0,0,0-4.358,1.381,9.547,9.547,0,0,1-6.726-.178l-1.1-.445a4.3,4.3,0,0,1-2.667-4.233l.223-3.689-1.18-3.044Z" transform="translate(-355.199 -150.708)"/></g><g transform="translate(15.978 3.408)"><path class="x" d="M370.034,148.693a1.1,1.1,0,1,1-1.1-1.1,1.1,1.1,0,0,1,1.1,1.1Z" transform="translate(-367.834 -147.593)"/></g></g></g><path class="y" d="M391.457,85.811s10.579-.324,9.164-8.969-15.046-4.8-16.979-11.264-16.993-7.029-23.88,3.844S344.609,73,343.061,88.632s15.127,18.352,15.127,18.352A9.974,9.974,0,0,0,354.6,99.2c-4.4-4.89.237-6.723,3.566-5.763,2.618,3.145,6.066,1.745,6.066-5.5S381.049,73.558,391.457,85.811Z" transform="translate(-304.323 -60.941)"/><path class="p" d="M356.325,86.759s-9.2-3.378-6.093,5.692c.486,3.235,3.786,5.5,7.371,5.065a7.019,7.019,0,0,0,2.479-.783" transform="translate(-302.568 -54.272)"/><g transform="translate(60.306 81.136)"><path class="n" d="M369.328,140.853l.109-.006-.057-.033Z" transform="translate(-357.651 -120.942)"/><path class="m" d="M376.1,125.329a5.791,5.791,0,0,0-6.9,3.222l9.9-.572A4.089,4.089,0,0,0,376.1,125.329Z" transform="translate(-357.686 -125.1)"/><path class="m" d="M362.886,126.087a4.088,4.088,0,0,0-2.673,2.978l9.9-.572A5.789,5.789,0,0,0,362.886,126.087Z" transform="translate(-360.063 -124.958)"/><path class="z" d="M360.344,131.894l21.445-1.239a7.065,7.065,0,0,0-.281-3.278l-9.9.572a9.127,9.127,0,0,0-.642,1.531,8.794,8.794,0,0,0-.816-1.447l-9.906.572A7.04,7.04,0,0,0,360.344,131.894Z" transform="translate(-360.095 -124.498)"/><path class="aa" d="M361.592,134.427l19.223-1.11a12.711,12.711,0,0,0,.922-3.347l-21.445,1.239A12.749,12.749,0,0,0,361.592,134.427Z" transform="translate(-360.042 -123.812)"/><path class="y" d="M363.59,136.888l15.063-.87a19.074,19.074,0,0,0,1.893-3.4l-19.225,1.11A19,19,0,0,0,363.59,136.888Z" transform="translate(-359.77 -123.112)"/><path class="ab" d="M366.406,139.28l8.856-.511a24.433,24.433,0,0,0,2.922-3.464l-15.063.87A24.363,24.363,0,0,0,366.406,139.28Z" transform="translate(-359.294 -122.4)"/><path class="n" d="M374.575,138.044l-8.856.511a29.055,29.055,0,0,0,4.56,2.96l0,.071.052-.039.057.033,0-.071A29.372,29.372,0,0,0,374.575,138.044Z" transform="translate(-358.606 -121.675)"/></g><path class="ac" d="M12.162.653S34.638,11.226,29.692,20.02,1.766,10.371.393,6.523A6.452,6.452,0,0,1,1.693,0S5.793,3.575,12.162.653Z" transform="translate(63.521 372.97) rotate(-19)"/><path class="ac" d="M12.162.653S31.3,12.5,26.358,21.3,1.766,10.371.393,6.523A6.452,6.452,0,0,1,1.693,0S5.793,3.575,12.162.653Z" transform="matrix(0.985, -0.174, 0.174, 0.985, 22.027, 368.441)"/></g><g transform="matrix(0.999, -0.035, 0.035, 0.999, 763.541, 424.595)"><rect class="ad" width="16" height="173" transform="matrix(0.999, 0.052, -0.052, 0.999, 21.458, 57.792)"/><rect class="ad" width="16" height="173" transform="translate(490.704 5.682) rotate(2)"/><rect class="ad" width="16" height="128" transform="translate(404.182 42.662) rotate(2)"/><rect class="ad" width="16" height="173" transform="matrix(0.999, 0.035, -0.035, 0.999, 119.112, 57.959)"/><path class="ae" d="M313.139,250.585l393.038-37.354h-124.2L188.287,250.586Z" transform="translate(-184.574 -212.979)"/><g transform="translate(3.269 0.25)"><path class="ae" d="M294.958,288.942,678.976,250.63v-37.4l-384.018,37.4Z" transform="translate(-159.617 -213.23)"/><path class="ae" d="M187.936,281.117H325.67l-.637-38.313h-137.1Z" transform="translate(-187.936 -205.404)"/></g><path class="w" d="M238.725,266.365a6.294,6.294,0,0,1,.954.492,14.343,14.343,0,0,0,2.839,1.076,12.383,12.383,0,0,0,10.761-2.405l-.033.486a22.1,22.1,0,0,0-13.343-7.422c-5.458-.74-11.905.911-17.353,6.442a4.1,4.1,0,0,0-1.343,2.5,2.9,2.9,0,0,0,1.152,2.479,6.6,6.6,0,0,0,2.384,1.193l2.616.846a110.918,110.918,0,0,0,10.915,3.017,45.766,45.766,0,0,0,11.609,1.129,30.366,30.366,0,0,0,5.959-.814,25.037,25.037,0,0,0,2.966-.89,12.092,12.092,0,0,0,2.872-1.328,10.469,10.469,0,0,0,3.723-3.844,8.2,8.2,0,0,0,.716-5.9,9.743,9.743,0,0,0-2.924-4.665,21.268,21.268,0,0,0-4.082-2.849,41.772,41.772,0,0,0-17.077-5.061,51.977,51.977,0,0,0-29.152,6.456,70.132,70.132,0,0,0-17.549,13.692c-1.874,2.073-3.32,3.708-4.24,4.914-.451.549-.809.984-1.083,1.318a2.456,2.456,0,0,1-.388.422,3.4,3.4,0,0,1,.334-.5l1.034-1.4c.89-1.262,2.308-2.955,4.164-5.087a68.942,68.942,0,0,1,17.538-14.073,52.017,52.017,0,0,1,29.382-6.737,42.042,42.042,0,0,1,17.31,5.072,21.847,21.847,0,0,1,4.217,2.938,10.719,10.719,0,0,1,3.221,5.187,9.691,9.691,0,0,1-.821,6.933,11.281,11.281,0,0,1-4.02,4.176,12.614,12.614,0,0,1-2.992,1.386,25.484,25.484,0,0,1-3.025.9,30.514,30.514,0,0,1-6.061.822,46.049,46.049,0,0,1-11.739-1.165,110.065,110.065,0,0,1-10.96-3.073l-2.619-.861a7.158,7.158,0,0,1-2.575-1.318,4.19,4.19,0,0,1-1.081-1.348,4.008,4.008,0,0,1-.393-2.074,5.04,5.04,0,0,1,1.624-3.158c5.631-5.658,12.23-7.273,17.8-6.46a22.528,22.528,0,0,1,13.546,7.752l.249.282-.281.206a12.307,12.307,0,0,1-10.995,2.192A10.449,10.449,0,0,1,238.725,266.365Z" transform="translate(-184.221 -203.33)"/><path class="w" d="M295.484,243.952a6.929,6.929,0,0,1,.606,1.935,20.658,20.658,0,0,1,.407,5.764,34.159,34.159,0,0,1-5.989,16.765,36.234,36.234,0,0,1-5.593,6.793,22.8,22.8,0,0,1-5.4,3.737,19.249,19.249,0,0,1-3.91,1.4c-.941.194-1.464.249-1.473.178-.028-.2,2.064-.611,5.2-2.3a25.3,25.3,0,0,0,5.2-3.852,38.44,38.44,0,0,0,5.425-6.7,34.589,34.589,0,0,0,6.008-16.1A29.491,29.491,0,0,0,295.484,243.952Z" transform="translate(-170.205 -204.85)"/><path class="w" d="M284.016,243.165a12.068,12.068,0,0,1-.09,2.455,38.808,38.808,0,0,1-1.2,6.482c-1.414,5.237-4.331,12.344-9.449,17.275a56.735,56.735,0,0,1-14.008,9.211c-1.872.89-3.4,1.525-4.47,1.92a5.448,5.448,0,0,1-1.681.5,7.089,7.089,0,0,1,1.595-.9c1.184-.6,2.648-1.352,4.378-2.238a65.919,65.919,0,0,0,13.772-9.395c4.924-4.736,7.861-11.6,9.368-16.656A69.694,69.694,0,0,0,284.016,243.165Z" transform="translate(-173.893 -205.059)"/><g transform="translate(88.603 -4.748)"><g transform="translate(0 33.75)"><g transform="translate(54.866 3.837)"><path class="w" d="M359.953,240.9a2.166,2.166,0,0,1-.053.336c-.043.214-.1.539-.193.937a13.045,13.045,0,0,1-1.067,2.921,5.815,5.815,0,0,1-2.328,2.48,6.926,6.926,0,0,1-3.485.722,14.554,14.554,0,0,1-4.354-.929,16.146,16.146,0,0,0-4.962-1.113c-3.454-.027-6.966,2.689-10.375,6.57s-6.549,8.227-9.667,10.982a14.98,14.98,0,0,1-4.587,2.964,7.778,7.778,0,0,1-4.276.353c-2.677-.53-4.878-2.591-6.3-4.488a20.865,20.865,0,0,1-2.128-3.457.9.9,0,0,1,.145.2l.41.664a21.536,21.536,0,0,0,1.611,2.293c1.419,1.788,3.59,3.732,6.232,4.177a7.8,7.8,0,0,0,4.215-.451,15.325,15.325,0,0,0,4.529-3.012c3.087-2.775,6.2-7.129,9.635-11.027s6.981-6.633,10.494-6.561a16.087,16.087,0,0,1,5,1.2,15.139,15.139,0,0,0,4.328,1.028,6.979,6.979,0,0,0,3.46-.586,5.453,5.453,0,0,0,2.31-2.3A16.792,16.792,0,0,0,359.953,240.9Z" transform="translate(-306.181 -240.895)"/></g></g><g transform="translate(1.309 36.713)"><path class="w" d="M331.13,243.238a16.713,16.713,0,0,1-.634,1.868,32.183,32.183,0,0,1-2.026,4.3,20.273,20.273,0,0,1-3.53,4.574,9.955,9.955,0,0,1-4.91,2.57c-3.653.668-7.155-1.553-9.549-4.219a14.065,14.065,0,0,1-2.618-4.6,16.582,16.582,0,0,1-.52-1.807,5.627,5.627,0,0,1-.128-.694c.03-.043.209.937.733,2.3a13.192,13.192,0,0,0,2.587,4.252c2.367,2.476,5.816,4.57,9.409,3.911a10.11,10.11,0,0,0,4.847-2.467,20.3,20.3,0,0,0,3.526-4.348,35.647,35.647,0,0,0,2.082-4.04A11.291,11.291,0,0,1,331.13,243.238Z" transform="translate(-307.216 -243.238)"/></g><g transform="translate(119.638 32.909)"><path class="w" d="M420.874,253.485a2.593,2.593,0,0,1,.44.355,5.032,5.032,0,0,0,1.282.749c1.1.4,2.82.4,4.406-2.309l.02.387c-1.625-2.728-3.789-5.036-6.186-5.395-2.372-.384-5,1.165-6.93,5.757a4.592,4.592,0,0,0-.4,2.03,3.362,3.362,0,0,0,.66,1.923,2.753,2.753,0,0,0,1.1.859l1.171.575a32.27,32.27,0,0,0,4.849,1.988,10.934,10.934,0,0,0,5.014.464,7.858,7.858,0,0,0,3.675-1.684,4.73,4.73,0,0,0,1.128-1.161,8.1,8.1,0,0,0,1.316-3.188,11.7,11.7,0,0,0-.106-4.711,10.162,10.162,0,0,0-1.566-3.593,11.867,11.867,0,0,0-1.934-2.109,12.678,12.678,0,0,0-7.61-3.382c-4.819-.317-8.892,2.5-11.944,6.208a43.684,43.684,0,0,0-6.509,11.519c-.655,1.711-1.153,3.064-1.462,4.057-.153.451-.276.809-.368,1.085a2.02,2.02,0,0,1-.135.349,3.335,3.335,0,0,1,.106-.412c.087-.29.2-.67.343-1.147.291-1.034.776-2.431,1.416-4.192a44.069,44.069,0,0,1,6.48-11.82c3.058-3.812,7.155-6.715,12.023-6.438a12.682,12.682,0,0,1,7.71,3.38,12.207,12.207,0,0,1,2,2.175,11.216,11.216,0,0,1,1.73,4,13.835,13.835,0,0,1,.132,5.531A8.778,8.778,0,0,1,431.3,258.8a4.973,4.973,0,0,1-1.175,1.212,7.708,7.708,0,0,1-1.224.83,7.509,7.509,0,0,1-2.52.879,11.01,11.01,0,0,1-5.071-.487,32.393,32.393,0,0,1-4.874-2.033l-1.174-.586a3.048,3.048,0,0,1-1.186-.95,3.8,3.8,0,0,1-.553-1.029,5.806,5.806,0,0,1,.159-4.2c2-4.7,4.694-6.224,7.117-5.789,2.451.417,4.654,2.823,6.3,5.65l.125.215-.1.173c-1.646,2.725-3.408,2.624-4.521,2.149A4.651,4.651,0,0,1,420.874,253.485Z" transform="translate(-400.786 -240.23)"/></g><g transform="translate(191.45 21.929)"><path class="w" d="M464.109,231.547a9.166,9.166,0,0,1,.392,1.512,30.387,30.387,0,0,1,.573,4.559,44.389,44.389,0,0,1-1.382,13.529,32.188,32.188,0,0,1-1.906,5.6,12.5,12.5,0,0,1-2.035,3.167,6.372,6.372,0,0,1-1.566,1.256c-.386.187-.6.252-.613.2-.025-.156.835-.561,2.052-2.017a14.841,14.841,0,0,0,1.94-3.25,34.6,34.6,0,0,0,1.844-5.519,44.584,44.584,0,0,0,1.435-13A43.334,43.334,0,0,0,464.109,231.547Z" transform="translate(-457.572 -231.547)"/></g><g transform="translate(234.399 25.195)"><path class="w" d="M529.524,252.205c-.024.073-.481-1.255-1.471-3.01-.978-1.729-2.548-3.922-4.518-4.558a3.6,3.6,0,0,0-3.091.511c-1.074.57-2.218,1.476-3.57,1.215-1.371-.21-2.761-2.269-4.047-4.432a19.276,19.276,0,0,0-4.154-5.45c-2.99-2.389-5.872-1.69-8.133.373-2.285,2.07-3.994,5.492-5.287,8.626a84.291,84.291,0,0,0-2.785,8.219c-.282,1-.508,1.8-.683,2.412a6.128,6.128,0,0,1-.252.816,8.589,8.589,0,0,1,.194-.93c.136-.593.348-1.448.632-2.525A78.508,78.508,0,0,1,495.075,245c1.284-3.222,2.993-6.747,5.316-8.9,2.3-2.141,5.241-2.9,8.321-.438a19.675,19.675,0,0,1,4.249,5.586c1.284,2.171,2.6,4.11,3.88,4.328,1.276.272,2.413-.575,3.5-1.126a3.638,3.638,0,0,1,3.179-.412c2.027.733,3.619,3.063,4.593,4.9A20.352,20.352,0,0,1,529.524,252.205Z" transform="translate(-491.534 -234.13)"/></g><g transform="translate(328.738 5.921)"><path class="w" d="M607.411,218.889c.01.018-.056.383-.195,1.065-.147.664-.324,1.725-.645,2.912a66.026,66.026,0,0,1-3.026,9.376,44.168,44.168,0,0,1-5.764,10.366,20.1,20.1,0,0,1-3.952,4.005,9.7,9.7,0,0,1-4.632,2.057c-3.316.344-6.611-1.577-9.5-4.235a44.831,44.831,0,0,1-7.456-9.385,70.967,70.967,0,0,1-4.585-8.788c-.521-1.117-.883-2.121-1.143-2.751-.254-.646-.385-1-.378-1.013a8.139,8.139,0,0,1,.419.9c.273.591.645,1.553,1.174,2.63a73.289,73.289,0,0,0,4.608,8.522,44.468,44.468,0,0,0,7.411,9.144c2.863,2.59,6.117,4.458,9.375,4.118a9.672,9.672,0,0,0,4.569-2.009,19.892,19.892,0,0,0,3.919-3.916,43.8,43.8,0,0,0,5.763-10.123,67.735,67.735,0,0,0,3.088-9.114c.338-1.148.532-2.169.7-2.8A8.422,8.422,0,0,1,607.411,218.889Z" transform="translate(-566.133 -218.889)"/></g><g transform="translate(309.741 8.62)"><path class="w" d="M577.187,221.023a2.349,2.349,0,0,1-.18.5c-.128.3-.312.759-.569,1.284a40.45,40.45,0,0,1-2.274,4.181,26.9,26.9,0,0,1-3.742,4.854,8.936,8.936,0,0,1-5.182,2.933c-3.933.285-7.622-2.831-10.146-5.621a33.107,33.107,0,0,1-2.952-3.837c-.343-.5-.6-.946-.773-1.232a2.692,2.692,0,0,1-.259-.484,13.755,13.755,0,0,1,1.076,1.43,37.152,37.152,0,0,0,2.959,3.569c2.513,2.625,6.162,5.6,10.02,5.316a8.963,8.963,0,0,0,5.1-2.823,27.52,27.52,0,0,0,3.751-4.641c1.014-1.543,1.8-2.926,2.328-3.924A11.861,11.861,0,0,1,577.187,221.023Z" transform="translate(-551.111 -221.023)"/></g><g transform="translate(366.77 6.389)"><path class="w" d="M620.289,219.819c0,.03-.1.04-.3.033l-.869-.07-.627-.072-.737.051a7.138,7.138,0,0,0-1.784.235l-1.027.242-1.091.448a15.433,15.433,0,0,0-2.367,1.268,25.722,25.722,0,0,0-5.084,4.825,46.421,46.421,0,0,0-4.53,7.163c-.625,1.335-1.251,2.518-1.762,3.834l-.763,1.839q-.343.945-.658,1.819c-.434,1.128-.771,2.271-1.079,3.254-.153.484-.3.941-.43,1.366-.118.44-.226.846-.328,1.222l-.464,1.674a2.7,2.7,0,0,1-.181.548,4.167,4.167,0,0,1,.121-.659c.111-.484.247-1.075.411-1.783l.3-1.28.41-1.424c.295-1.022.622-2.2,1.047-3.369.207-.6.421-1.227.646-1.875l.755-1.894c.507-1.352,1.129-2.567,1.755-3.933a44.691,44.691,0,0,1,4.555-7.289,24.1,24.1,0,0,1,5.144-4.8,14.058,14.058,0,0,1,2.4-1.2c.381-.138.75-.274,1.107-.4l1.042-.186a6.484,6.484,0,0,1,1.81-.114c.266.009.515.015.747.021l.636.147c.35.092.64.168.879.233C620.182,219.742,620.288,219.789,620.289,219.819Z" transform="translate(-596.207 -219.259)"/></g><g transform="translate(388.976)"><path class="w" d="M626.312,214.207a3.986,3.986,0,0,1,.059.575c.022.376.076.94.091,1.647a55.731,55.731,0,0,1-.1,5.9,45.627,45.627,0,0,1-3.571,15.379,25.391,25.391,0,0,1-6.189,8.42c-.86.776-1.566,1.342-2.057,1.711s-.77.543-.78.487a3.678,3.678,0,0,1,.719-.807l2-1.965a29.107,29.107,0,0,0,6.066-8.55,45.767,45.767,0,0,0,3.58-14.9C626.512,217.424,626.232,214.172,626.312,214.207Z" transform="translate(-613.767 -214.207)"/></g><g transform="translate(224.189 19.713)"><path class="w" d="M535.846,252.372a45.639,45.639,0,0,0-1.836-4.436,19.678,19.678,0,0,0-5.954-7.389,15.815,15.815,0,0,0-4.322-2.059c-1.554-.506-3.213-.861-4.972-1.494a24.123,24.123,0,0,1-5.524-3.031,19.991,19.991,0,0,0-5.882-3.1c-4.018-.976-7.59,1.549-10.495,4.943a42.678,42.678,0,0,0-3.949,5.671c-1.19,1.965-2.27,3.9-3.248,5.691-1.953,3.593-3.489,6.639-4.549,8.755q-.77,1.544-1.218,2.444l-.32.626c-.073.138-.113.2-.118.19a1.375,1.375,0,0,1,.094-.262c.08-.186.177-.417.3-.7.263-.6.656-1.48,1.174-2.58,1.031-2.2,2.546-5.33,4.482-9,.969-1.829,2.041-3.8,3.227-5.793a43.123,43.123,0,0,1,3.959-5.783c2.923-3.464,6.539-6.057,10.63-5.066a19.914,19.914,0,0,1,5.936,3.14,24.724,24.724,0,0,0,5.487,3.064c1.748.648,3.408,1.029,4.97,1.569a16,16,0,0,1,4.36,2.183,20.38,20.38,0,0,1,6,7.727A28.661,28.661,0,0,1,535.846,252.372Z" transform="translate(-483.46 -229.795)"/></g><g transform="translate(173.45 22.36)"><path class="w" d="M453.846,231.888a17.992,17.992,0,0,1,.133,1.951c.053,1.255.054,3.055-.062,5.189-.238,4.209-.984,9.958-2.818,14.061a29.648,29.648,0,0,1-5.314,7.83,21.236,21.236,0,0,1-1.768,1.69c-.425.357-.669.512-.679.459a3.394,3.394,0,0,1,.615-.775l1.706-1.939a35.607,35.607,0,0,0,5.2-7.968c1.765-3.941,2.537-9.5,2.826-13.565C453.98,234.682,453.777,231.864,453.846,231.888Z" transform="translate(-443.338 -231.888)"/></g><g transform="translate(93.483 28.814)"><path class="w" d="M380.1,268.714a14.447,14.447,0,0,1,.493-1.686c.331-1.059.846-2.5,1.506-4.224a95.362,95.362,0,0,1,5.662-12.039c2.369-4.22,4.627-7.624,6.271-10.044.823-1.206,1.495-2.161,1.963-2.8s.735-.972.749-.921a6.949,6.949,0,0,1-.669,1.218l-1.9,3.048c-1.6,2.554-3.837,6.039-6.194,10.241a111.963,111.963,0,0,0-5.707,11.775c-.679,1.653-1.219,3.022-1.582,4A8.964,8.964,0,0,1,380.1,268.714Z" transform="translate(-380.103 -236.992)"/></g><g transform="translate(26.525 33.816)"><g transform="translate(35.912 2.511)"><path class="w" d="M365.283,241.187a6.561,6.561,0,0,0-1.686.161c-1.057.324-2.529,1.4-4.05,3.916-1.549,2.424-3.063,6.352-4.778,10.633a51.125,51.125,0,0,1-2.895,6.192,17.162,17.162,0,0,1-3.713,4.546,16.38,16.38,0,0,1-8.116,3.407c-2.566.429-4.9.493-6.826.876a14.016,14.016,0,0,0-4.477,1.6c-.51.31-.908.565-1.171.765s-.408.273-.415.245a1.938,1.938,0,0,1,.383-.412,9.728,9.728,0,0,1,1.15-.924,12.868,12.868,0,0,1,4.467-1.874c1.927-.464,4.259-.592,6.81-1.061a16.777,16.777,0,0,0,8.04-3.442,17.025,17.025,0,0,0,3.655-4.451,50.852,50.852,0,0,0,2.877-6.088c1.721-4.228,3.27-8.157,4.86-10.543,1.561-2.479,3.078-3.49,4.162-3.713a2.991,2.991,0,0,1,1.271,0C365.127,241.1,365.283,241.157,365.283,241.187Z" transform="translate(-327.156 -240.947)"/></g></g><g transform="translate(339.755 3.842)"><path class="w" d="M623.636,217.288c.022.235-10.886,1.385-24.356,2.562s-24.415,1.942-24.435,1.706,10.883-1.386,24.359-2.565S623.616,217.05,623.636,217.288Z" transform="translate(-574.845 -217.245)"/></g></g></g><g transform="matrix(0.999, -0.035, 0.035, 0.999, 1014.103, 296.331)"><g transform="translate(20.224 161.894)"><path class="af" d="M431.089,262.147c-.8.2-1.6.443-2.377.726a26.583,26.583,0,0,0-13.62,11.5,30.949,30.949,0,0,0-3.212,23.637l36.739,91.728,12.24-7.61-16.278-82.617,8.919-.9C440.294,292.194,438.76,274.1,431.089,262.147Z" transform="translate(-410.835 -251.021)"/><path class="r" d="M528.834,255.181l-46.353-1.832v1.832l-53.65,8.866c-.669.111-1.327.261-1.98.427,7.671,11.956,9.205,30.047,22.411,36.468l79.572-5.84Z" transform="translate(-406.597 -253.349)"/><g transform="translate(37.784)"><path class="af" d="M441.673,291.142,471.5,383.719,482.4,380l-10.228-86.37c-13.017-.266-18.133-5.042-31.15-5.529A31,31,0,0,0,441.673,291.142Z" transform="translate(-440.631 -244.153)"/><path class="r" d="M535.4,297.125V257.2l-18.8-3.852,0,1.832-53.648,8.866A26.041,26.041,0,0,0,444.97,276.7a30.95,30.95,0,0,0-3.861,20.6c13.017.487,26.033,5.22,39.05,5.486l-.2-1.588Z" transform="translate(-440.713 -253.349)"/></g></g><g transform="translate(42.843 291.671)"><g transform="translate(0 1.33)"><g transform="translate(0.11)"><path class="ag" d="M444.87,385.9s-17.108,15.849-16.011,19.933l32.554-15.73L456.1,357.023l-13.578,5.424" transform="translate(-428.808 -357.023)"/></g><g transform="translate(25.924 22.371)"><path class="r" d="M450.677,374.728a1.721,1.721,0,0,1,.36,3.406,1.8,1.8,0,0,1-1.816-1.622c-.008-.892.809-1.916,1.616-1.787" transform="translate(-449.221 -374.713)"/></g><g class="ah" transform="translate(0 30.335)"><path class="ai" d="M467.066,384.358l-1.223-3.347-36.158,15.755s-1.432,1.483-.807,2.718Z" transform="translate(-428.721 -381.011)"/></g><g transform="translate(15.474 28.296)"><path class="w" d="M440.964,380.011c.073.2,1.037-.075,2.17.219,1.142.262,1.908.959,2.05.809.159-.108-.521-1.219-1.9-1.547C441.909,379.149,440.862,379.841,440.964,380.011Z" transform="translate(-440.958 -379.398)"/></g><g transform="translate(12.073 32.055)"><path class="w" d="M438.271,382.625c.024.215.946.243,1.864.856.936.583,1.4,1.453,1.586,1.371.187-.037-.08-1.284-1.236-2.023S438.209,382.429,438.271,382.625Z" transform="translate(-438.268 -382.371)"/></g><g transform="translate(8.899 35.471)"><path class="w" d="M438.392,388.063c.183-.023.106-1.147-.741-2.075s-1.869-1.029-1.891-.828c-.051.211.712.587,1.4,1.361C437.862,387.276,438.2,388.115,438.392,388.063Z" transform="translate(-435.758 -385.072)"/></g><g transform="translate(15.974 22.141)"><path class="w" d="M441.55,375.431c1.074-.362,2.022-.3,2.061-.513.058-.191-.991-.63-2.259-.211" transform="translate(-441.353 -374.532)"/></g><g transform="translate(15.141 14.92)"><path class="w" d="M440.694,369.953a7.63,7.63,0,0,1,.975-.807c.367-.277.709-.416.879-.261.062.061.077.09.035.252a2.289,2.289,0,0,1-.306.527,11.108,11.108,0,0,1-.8,1.033" transform="translate(-440.694 -368.821)"/></g></g><g transform="translate(35.947)"><g transform="translate(0.107)"><path class="ag" d="M465.474,361.019l7.819,21.267s-17.108,15.848-16.011,19.933l31.092-13.337-10.257-32.911Z" transform="translate(-457.231 -355.971)"/></g><g transform="translate(25.922 19.811)"><path class="r" d="M479.1,371.652a1.72,1.72,0,0,1,.359,3.4,1.8,1.8,0,0,1-1.817-1.622c-.006-.89.809-1.916,1.616-1.786" transform="translate(-477.644 -371.637)"/></g><g class="ah" transform="translate(0 27.773)"><path class="ai" d="M495.49,381.282l-1.223-3.349-36.156,15.756s-1.432,1.485-.807,2.718Z" transform="translate(-457.146 -377.933)"/></g><g transform="translate(15.473 25.734)"><path class="w" d="M469.388,376.933c.073.2,1.037-.073,2.17.219,1.142.26,1.908.96,2.05.811.159-.109-.521-1.219-1.9-1.548S469.286,376.762,469.388,376.933Z" transform="translate(-469.381 -376.321)"/></g><g transform="translate(12.071 29.494)"><path class="w" d="M466.693,379.548c.023.215.945.243,1.863.855.936.584,1.4,1.456,1.586,1.373.186-.038-.08-1.286-1.234-2.023S466.633,379.35,466.693,379.548Z" transform="translate(-466.691 -379.293)"/></g><g transform="translate(8.899 32.912)"><path class="w" d="M466.816,384.987c.185-.024.106-1.147-.741-2.077s-1.868-1.028-1.889-.827c-.052.21.712.587,1.4,1.361C466.286,384.2,466.624,385.04,466.816,384.987Z" transform="translate(-464.183 -381.996)"/></g><g transform="translate(14.169 19.581)"><path class="w" d="M468.37,373.159c.139.156.9-.465,1.982-.8,1.074-.363,2.022-.3,2.061-.513.058-.191-.991-.63-2.259-.211S468.226,373.035,468.37,373.159Z" transform="translate(-468.351 -371.455)"/></g></g></g><g transform="translate(76.474)"><g transform="translate(0.363 7.613)"><path class="af" d="M492.242,144.907l-3.646,32.71,5.669,15.092-22.438.87-4.66-11.79s-11.113-1.377-11.557-9.175c-.282-4.98,7.045-41.264,7.045-41.264Z" transform="translate(-455.602 -131.35)"/></g><path class="w" d="M485.121,185.439c2.647-1.966,3.985-3.278,5.147-6.542s1.912-6.7,3.239-9.888c1.391-3.349,3.39-6.362,4.76-9.722s2.069-7.312.732-10.689c0,0-.477-4.321-5.794-5.9,0,0-3-9.167-9.892-10.025-9.366-1.167-9.043-4.185-15.156-6.743-5.714-2.394-7.93,3.126-7.93,3.126s-3.761,1.891-4.647,5.662l-.024.1a9.338,9.338,0,0,0,3.819,9.849c.379.247.759.488,1.142.728a8.119,8.119,0,0,1,2.878,2.522c1.008,1.691.8,3.913.349,5.873s-1.1,3.944-.849,5.947c.085.682.445,1.492,1.075,1.457.749-.042.926-1.131,1.15-1.916.653-2.281,3.728-3.417,5.32-1.266a3.914,3.914,0,0,1,.137,4.56c-1.031,1.472-2.836,2.393-3.49,4.139-1.1,2.94,1.659,6.377,2.587,8.331a12.888,12.888,0,0,0,1.11,1.975,27.576,27.576,0,0,0,7.832,7.468c2.209,1.457,5.156,1.9,7.341.4" transform="translate(-455.315 -125.33)"/></g><g transform="translate(0 75.01)"><path class="af" d="M408.788,209.292h0c-3.937-1.839-6.479-3.5-9.117-4.554-3.253-1.295-4.511-2.078-4.249-2.729.348-.869.178-.551,6.394.879,0,0-8.856-2.128-6.608-3.32,1-.526,8.372,1.163,8.372,1.163-6.039-.763-8.2-2.094-8.051-3.089.224-1.44,9.161.685,9.161.685s-6.845-1.473-7.971-2.138.31-1.3,1.631-1.456c1.483-.178,10.234.162,12.764.115a1.591,1.591,0,0,0,1.643-1.537,1.753,1.753,0,0,0-.005-.182c-.74-3.942.606-7.441,1.377-8.2s1.983.144,1.732,1.373a16.407,16.407,0,0,0,.056,4.072,10.323,10.323,0,0,0,.819,3.121c.507,1.137.975,2.078,1.394,2.866l12.544,15.029-5.416,14.265Z" transform="translate(-394.843 -184.645)"/><g transform="translate(2.236 16.966)"><path class="af" d="M405.072,200.3c-.029.172-1.954-.181-4.3-.788s-4.21-1.236-4.164-1.4,1.966.186,4.3.789S405.1,200.124,405.072,200.3Z" transform="translate(-396.611 -198.061)"/></g><g transform="translate(2.307 14.851)"><path class="af" d="M405.811,198.18c-.028.173-2.1-.077-4.621-.558s-4.551-1.008-4.523-1.18,2.094.077,4.623.558S405.839,198.009,405.811,198.18Z" transform="translate(-396.667 -196.388)"/></g><g transform="translate(3.548 12.405)"><path class="af" d="M406.322,196.033c-.025.172-1.988-.028-4.382-.446s-4.315-.9-4.291-1.071,1.987.028,4.382.445S406.346,195.86,406.322,196.033Z" transform="translate(-397.649 -194.454)"/></g></g><g transform="translate(17.916 64.044)"><g transform="translate(0 26.377)"><path class="aj" d="M418.376,196.831c1.105-.168,37.551,30.951,37.551,30.951L432.664,237.93l-23.585-25.624S407.594,198.46,418.376,196.831Z" transform="translate(-409.01 -196.83)"/></g><g transform="translate(21.701)"><path class="aj" d="M531.692,190.133c-6.073-9.648-16.41-12.981-19.993-13.88a9.62,9.62,0,0,0-2.319-.279H478.369a20.773,20.773,0,0,0-15.07,6.563,80.815,80.815,0,0,0-11.911,16.807L435.771,223.12l-9.6,17.636,1.955,2.695c4.6,6.336,12.592,8.8,19.287,5.377,3.163-1.617,5.48-4.636,7.629-8.1,3.92-6.309,8.014-13.134,10.725-18.347l15.657,49.03-8.375,5.831,35.285,15.624,36.743-17.213L534.93,236.051l.005.018s16.088,1.712,17.577-5.213S539.128,201.943,531.692,190.133Z" transform="translate(-426.17 -175.973)"/><g transform="translate(101.835 31.576)"><path class="x" d="M506.75,201.486c2.737,4.761,5.057,9.817,7.33,14.855.3.659,1.174.082.894-.573a130.085,130.085,0,0,0-7.641-14.654c-.234-.4-.814-.032-.583.372Z" transform="translate(-506.697 -200.942)"/></g><g transform="translate(109.13 28.712)"><path class="x" d="M512.519,199.222c2.737,4.76,5.056,9.817,7.33,14.855.3.659,1.172.082.894-.574a130.508,130.508,0,0,0-7.642-14.654c-.233-.4-.814-.032-.582.373Z" transform="translate(-512.465 -198.677)"/></g><g transform="translate(94.813 32.866)"><path class="x" d="M501.162,202.35c1.548,6.585,2.772,13.268,3.758,19.98.139.938,1.449.544,1.306-.395a143.284,143.284,0,0,0-4.513-19.752.288.288,0,0,0-.56.135l.009.03Z" transform="translate(-501.144 -201.962)"/></g><g transform="translate(78.188 34.682)"><path class="x" d="M488.016,203.85a86.769,86.769,0,0,1,3.03,19.8.664.664,0,0,0,1.327.077c0-.027,0-.052,0-.077a71.6,71.6,0,0,0-3.705-20,.34.34,0,1,0-.659.167l.008.028Z" transform="translate(-487.997 -203.398)"/></g><g transform="translate(86.53 31.863)"><path class="x" d="M499.867,220.5c-1.841-6.324-3.4-12-4.016-18.668-.08-.862-1.265-.9-1.257,0,.059,6.38,1.483,13.531,4.617,18.97a.363.363,0,0,0,.656-.3Z" transform="translate(-494.594 -201.169)"/></g><g transform="translate(70.787 35.307)"><path class="x" d="M482.145,204.249a92.556,92.556,0,0,0,2.5,18.835c.21.857,1.351.491,1.2-.363-1.085-6.193-2.122-12.344-3.052-18.568-.061-.407-.664-.307-.652.1Z" transform="translate(-482.145 -203.892)"/></g><g transform="translate(61.856 36.451)"><path class="x" d="M475.1,205.123c1.554,6.906,2.695,13.844,3.832,20.838a.548.548,0,0,0,1.081-.159,122.538,122.538,0,0,0-4.445-20.819.245.245,0,1,0-.475.118l.006.023Z" transform="translate(-475.083 -204.797)"/></g><g transform="translate(53.722 37.982)"><path class="x" d="M468.652,206.415a90.633,90.633,0,0,0,1.926,19.251c.163.683,1.031.378.942-.285-.851-6.336-1.872-12.546-2.1-18.967a.384.384,0,1,0-.766-.046.276.276,0,0,0,0,.046Z" transform="translate(-468.651 -206.008)"/></g><g transform="translate(27.333 37.966)"><path class="x" d="M448.146,224.03c4.879-4.993,9.155-11.364,13.211-17.166.362-.517-.435-1.189-.827-.7-4.381,5.5-9.219,11.355-12.714,17.586-.128.228.158.454.33.279Z" transform="translate(-447.784 -205.995)"/></g><g transform="translate(21.503 34.297)"><path class="x" d="M443.656,219.189a60,60,0,0,0,11.328-15.247.551.551,0,0,0-.927-.594h0c-3.371,5.386-7.129,10.281-10.81,15.394-.228.317.119.713.408.445Z" transform="translate(-443.174 -203.094)"/></g><g transform="translate(15.632 31.958)"><path class="x" d="M448.324,201.344c-3.244,3.987-6.6,7.9-9.668,12.047-.41.553.28,1.349.728.8,3.259-3.994,6.252-8.259,9.333-12.416.223-.3-.15-.727-.392-.43Z" transform="translate(-438.531 -201.244)"/></g><g transform="translate(45.435 38.792)"><path class="x" d="M462.111,207.2c1.385,6.4,2.2,12.894,3.481,19.306a.509.509,0,0,0,1.005-.149,157.943,157.943,0,0,0-3.707-19.393c-.128-.553-.9-.32-.78.236Z" transform="translate(-462.098 -206.648)"/></g><g class="ak" transform="translate(65.934 53.084)"><path d="M504.9,217.954c-2.539-.095-4.955,1.477-6.591,3.609a23.321,23.321,0,0,0-3.422,7.412,83.818,83.818,0,0,0-3.666,26.227c.054,2.718.09,5.848-1.791,7.624-1.611,1.524-4,1.408-5.983,2.256-3.163,1.357-5.884,5.994-4.959,9.577l17.735,7.369Z" transform="translate(-478.308 -217.95)"/></g></g><g transform="translate(79.81 94.129)"><path class="w" d="M486.606,250.43a5.939,5.939,0,0,1-2.02.856,21.459,21.459,0,0,1-10.384.5,5.9,5.9,0,0,1-2.082-.658c.037-.2,3.255.6,7.274.388C483.413,251.347,486.555,250.233,486.606,250.43Z" transform="translate(-472.121 -250.407)"/></g><g transform="translate(117.48 26.402)"><path class="w" d="M507.715,206.981c-.14.1-1.55-2.093-3.151-4.889s-2.783-5.141-2.644-5.238,1.552,2.094,3.153,4.89S507.855,206.886,507.715,206.981Z" transform="translate(-501.908 -196.851)"/></g><g transform="translate(24.555 44.037)"><path class="w" d="M428.434,224.258c-.134-.1,1.682-3.2,4.058-6.919s4.411-6.646,4.549-6.541-1.681,3.2-4.058,6.917S428.57,224.362,428.434,224.258Z" transform="translate(-428.428 -210.796)"/></g><g transform="translate(47.451 34.571)"><path class="w" d="M467.407,203.31a10.347,10.347,0,0,1-.708,1.453c-.548,1.027-1.237,2.324-2.059,3.871-1.763,3.255-4.248,7.72-7.116,12.569s-5.572,9.162-7.591,12.234c-1.005,1.539-1.844,2.766-2.436,3.6a7.8,7.8,0,0,1-.965,1.263,8.15,8.15,0,0,1,.775-1.411l2.278-3.719c1.93-3.137,4.574-7.483,7.437-12.326,2.8-4.807,5.333-9.153,7.258-12.454.926-1.6,1.682-2.885,2.221-3.765A6.63,6.63,0,0,1,467.407,203.31Z" transform="translate(-446.532 -203.31)"/></g></g><g transform="translate(34.228 99.947)"><g transform="translate(0 111.422)"><path class="u" d="M436.025,292.472l-14.116,129.7h6.1L443,292.472Z" transform="translate(-421.909 -292.472)"/></g><g transform="translate(70.363 111.422)"><path class="u" d="M477.549,292.472l12.957,129.7h6.651l-12.636-129.7Z" transform="translate(-477.549 -292.472)"/></g><g transform="translate(137.074 111.422)"><path class="u" d="M533.354,292.472l10.8,129.7h7.412l-12.32-129.7H530.3" transform="translate(-530.301 -292.472)"/></g><g transform="translate(77.335)"><path class="u" d="M509.8,204.364h52.3c4.955,0,8.761,4.808,8.058,10.181L557.78,309.209a7.239,7.239,0,0,1-6.926,6.578H483.062Z" transform="translate(-483.062 -204.364)"/></g><g transform="translate(7.146)"><path class="u" d="M427.56,315.788c.134-1.433,0-8.6,0-8.6l64.869,1.333c4.948.1,9.214-3.793,10.013-9.143l12.931-86.53c.732-4.893,4.589-8.486,9.117-8.486h0l-14.105,97.419c-1.167,8.064-7.514,14-14.969,14Z" transform="translate(-427.56 -204.364)"/></g><g transform="translate(79.993)"><path class="w" d="M509.248,204.364a1.147,1.147,0,0,1-.013.3l-.1.875q-.159,1.231-.431,3.354c-.406,2.967-.983,7.161-1.691,12.319-1.492,10.441-3.54,24.771-5.8,40.6-1.158,7.923-2.261,15.469-3.265,22.342-.508,3.431-.99,6.691-1.443,9.746a72.846,72.846,0,0,1-1.576,8.453,24.321,24.321,0,0,1-2.673,6.5,15.7,15.7,0,0,1-3.346,3.943,10.751,10.751,0,0,1-2.71,1.663,5.192,5.192,0,0,1-1.036.338,13.487,13.487,0,0,0,3.6-2.2c2.105-1.772,4.526-5.3,5.756-10.372a75.178,75.178,0,0,0,1.49-8.407c.435-3.059.9-6.323,1.387-9.758.991-6.876,2.078-14.424,3.221-22.351,2.33-15.818,4.439-30.138,5.975-40.57.788-5.144,1.427-9.328,1.881-12.286q.341-2.109.54-3.336c.063-.346.115-.632.156-.865A1.149,1.149,0,0,1,509.248,204.364Z" transform="translate(-485.164 -204.364)"/></g></g></g><g transform="translate(-42 -8)"><g transform="matrix(0.999, -0.035, 0.035, 0.999, 770.191, 273.283)"><g transform="translate(0 14.493)"><g transform="translate(0 61.412)"><path class="al" d="M196.463,171.282s-4-8.143-5-8.927-9.947-4.013-10.7-3.752-11.5,2.348-10.24,3.653,8.746-.259,8.746-.259l1.015.506s-6.47,1.181-7.825,2.023c-1.247.775-.789,2.365.4,2.217S179.66,165.37,180,165.6s-6.108,1.681-6.8,2.119c-.929.589-1,2.319.185,2.214.7-.061,6.772-1.8,6.772-1.8a51.262,51.262,0,0,0-5.247,2.461.919.919,0,0,0,.922,1.559c.716-.178,4.107-1.923,5.069-2.157,0,0,.9.235,1.75,2.112s6.8,6.567,6.8,6.567Z" transform="translate(-170.417 -158.588)"/><g transform="translate(10.73 6.778)"><g transform="translate(0.247 0.251)"><path class="al" d="M191.7,169.967a2.086,2.086,0,0,1-2.5.039c-.775-.465-1.373-1.191-2.114-1.715-2.216-1.564-5.364-1.132-7.505-2.806-.3-.234-.6-.618-.44-.97.144-.328.568-.371.913-.368l8.876.073" transform="translate(-179.098 -164.147)"/></g><path class="af" d="M188.982,164.275a3.405,3.405,0,0,0-.959-.111c-.618-.035-1.512-.072-2.618-.1l-3.881-.089-1.122-.019a1.716,1.716,0,0,0-1.3.3.805.805,0,0,0-.132.861,1.586,1.586,0,0,0,.455.588,5.838,5.838,0,0,0,1.124.694,33.126,33.126,0,0,0,4.617,1.286,6.539,6.539,0,0,1,1.834.83c.521.357.96.79,1.4,1.148a3.05,3.05,0,0,0,2.508.874c.654-.143.864-.516.842-.517a2.54,2.54,0,0,1-.869.312,2.971,2.971,0,0,1-2.254-.959c-.416-.362-.841-.818-1.395-1.222a6.79,6.79,0,0,0-1.935-.933,38.318,38.318,0,0,1-4.542-1.3,5.409,5.409,0,0,1-1.018-.623c-.292-.234-.438-.556-.282-.685.148-.167.555-.164.936-.157h1.122l3.882-.025c1.105-.014,2-.034,2.618-.061A3.473,3.473,0,0,0,188.982,164.275Z" transform="translate(-178.903 -163.948)"/></g><g transform="translate(0.122 3.037)"><path class="af" d="M170.514,161.65a4.779,4.779,0,0,0,1.971.531,11.238,11.238,0,0,0,2.221.059c.822-.11,1.72-.257,2.665-.407l2-.339-.121-.01a28.314,28.314,0,0,0,4.669,1.437,28.352,28.352,0,0,0-4.512-1.91l-.053-.022-.068.011-1.989.311-2.633.446a13.712,13.712,0,0,1-2.15.052C171.289,161.742,170.533,161.572,170.514,161.65Z" transform="translate(-170.514 -160.99)"/></g></g><g transform="translate(19.393 130.95)"><g transform="translate(0 0.774)"><path class="al" d="M250.917,215.719l-59.343,79.31a29.594,29.594,0,0,0-4.336,26.881l46.168,87.83,6.224-6.3-25.519-89.327,38.027-38.6,14.314-61.331Z" transform="translate(-185.753 -214.188)"/></g><path class="z" d="M225.508,364.608s-25.635,17.158-20.518,26.253,31.269-16.2,32.691-20.182a6.677,6.677,0,0,0-1.347-6.737A10.151,10.151,0,0,1,225.508,364.608Z" transform="translate(-180.841 -173.787)"/><g transform="translate(48.719)"><path class="al" d="M233.569,427.818l-9.291-.324,20.036-194.863,1.316-17.225,32.6-1.83s11.39,18.417,11.933,29.687S260.507,333.4,260.507,333.4" transform="translate(-224.278 -213.576)"/></g></g><g transform="translate(16.938 54.165)"><g transform="translate(0 7.837)"><path class="am" d="M244.415,159.055l-22.04,26.313L193.8,168.962l-9.988,10.38,37.1,26.381,16.559-.268,14.123-28.889Z" transform="translate(-183.811 -159.055)"/></g><g transform="translate(52.547)"><path class="am" d="M274.6,152.858c-4.488,6.732-13.455,12.641-21.416,10.366-3.526,0-6.131-9.079-6.131-9.079s-17.85,1.325-17.428,18.14l-4.259,7.834,12.262,53.613,41.154-3.667,5.3-42.162,11.015-18S292.387,153.2,274.6,152.858Z" transform="translate(-225.363 -152.858)"/></g><g class="ak" transform="translate(61.741 59.147)"><path d="M233.848,213.3a20.887,20.887,0,0,0,18.419-3.661,6.421,6.421,0,0,1,2.448-1.464,5.739,5.739,0,0,1,2.949.44,53.178,53.178,0,0,0,13.648,2.532,9.263,9.263,0,0,0,4.735-.66,3.874,3.874,0,0,0,2.2-4.043,121.308,121.308,0,0,0-21.411-6.017c-3.782-.7-7.694-1.208-11.441-.331-3.847.9-7.236,3.192-10.53,5.443a4.8,4.8,0,0,0-2.094,2.246c-.647,1.974,1.271,4.034.875,6.079" transform="translate(-232.633 -199.629)"/></g><g transform="translate(84.991 14.529)"><path class="am" d="M259.84,166.178c1.153,1.081,16.467,28.313,16.467,28.313l-24.456,5.542-.832,12.51,24.038,3.616,10.809,1.2a13.689,13.689,0,0,0,12.536-5.61h0a14.874,14.874,0,0,0,1.717-14.411l-12.484-32.986Z" transform="translate(-251.018 -164.347)"/></g><g transform="translate(85.825 44.565)"><path class="w" d="M282.866,188.115c.029.169-6.931,1.568-15.541,3.124s-15.619,2.68-15.647,2.51,6.929-1.567,15.543-3.122S282.838,187.946,282.866,188.115Z" transform="translate(-251.678 -188.098)"/></g><g transform="translate(100.181 10.279)"><path class="w" d="M273.636,194.85c-.374-1.029-.843-2.323-1.4-3.86-1.209-3.25-2.916-7.722-4.837-12.646l-2.723-6.934a12.939,12.939,0,0,1-1.158-5.815,6.327,6.327,0,0,1,1.5-3.617c.626-.7,1.112-.935,1.08-.988-.009-.02-.132.03-.357.145a4.286,4.286,0,0,0-.888.67,6.285,6.285,0,0,0-1.762,3.736,12.989,12.989,0,0,0,1.064,6.075c.828,2.151,1.733,4.5,2.681,6.958,1.922,4.924,3.691,9.371,5,12.578l1.579,3.787a7.214,7.214,0,0,0,.655,1.357A7.405,7.405,0,0,0,273.636,194.85Z" transform="translate(-263.03 -160.987)"/></g><g transform="translate(84.992 62.721)"><path class="w" d="M289.788,207.353a7.3,7.3,0,0,1-1.54.061c-.99.006-2.422-.044-4.191-.134-3.536-.191-8.415-.649-13.765-1.425s-10.169-1.631-13.651-2.261l-4.121-.775a7.368,7.368,0,0,1-1.5-.36,7.266,7.266,0,0,1,1.535.121c.984.119,2.4.316,4.153.579,3.5.52,8.326,1.315,13.667,2.079s10.191,1.3,13.712,1.6c1.669.133,3.069.242,4.172.33A7.335,7.335,0,0,1,289.788,207.353Z" transform="translate(-251.019 -202.455)"/></g><g transform="translate(57.575 21.358)"><path class="w" d="M231.757,199.124a16.477,16.477,0,0,0-.646-4.537c-.372-1.37-.983-2.959-1.438-4.828a9.815,9.815,0,0,1-.321-3.034,12.969,12.969,0,0,1,.656-3.2,51.38,51.38,0,0,1,5.189-9.894l1.777-2.854a5.121,5.121,0,0,1,.68-1.031,4.709,4.709,0,0,1-.478,1.152c-.357.716-.908,1.733-1.619,2.966a61.393,61.393,0,0,0-4.984,9.864,12.818,12.818,0,0,0-.636,3.035,9.482,9.482,0,0,0,.272,2.862c.412,1.822.98,3.437,1.31,4.846a12.536,12.536,0,0,1,.425,3.406,5.47,5.47,0,0,1-.1.931C231.808,199.019,231.777,199.126,231.757,199.124Z" transform="translate(-229.339 -169.747)"/></g><g class="ak" transform="translate(100.898 20.091)"><path d="M263.6,168.746c.13,8.171,1.529,14.94,1.658,23.111a5.379,5.379,0,0,0,.383,2.322c.879,1.767,2.878,1.247,4.792,1.127a17.952,17.952,0,0,0,2.928-.647,2.8,2.8,0,0,0-.243-1.811c-3.173-8.484-6.346-15.615-9.517-24.1" transform="translate(-263.597 -168.745)"/></g></g><g transform="translate(30.943 87.619)"><g transform="translate(0 0.883)"><path class="w" d="M194.886,181.936l11.829,11.832,19.08,19.083,32.823-1.7L232.05,180.01Z" transform="translate(-194.886 -180.01)"/></g><g transform="translate(1.424 1.033)"><path class="an" d="M199.779,181.557s-8.577,3.942.152,10.777,20.688,9.378,22.518,14.322a8.55,8.55,0,0,1-1.155,8.355l25.154-1.144s7.462-6.683,1.9-12.654-20.183-14.571-21.884-16.891,2.38-4.192,2.38-4.192Z" transform="translate(-196.012 -180.129)"/></g><g transform="translate(12.166)"><path class="u" d="M205.486,181.383l-.98-1.2,13.568-.87v1.453Z" transform="translate(-204.506 -179.312)"/></g><g transform="translate(6.441 6.015)"><path class="x" d="M223.2,184.1a15.578,15.578,0,0,1-3.371.535c-2.093.233-5,.486-8.207.67s-6.128.253-8.239.2a13.982,13.982,0,0,1-3.407-.3,30.124,30.124,0,0,1,3.406-.14c2.1-.07,5-.2,8.206-.384l8.207-.489A22.556,22.556,0,0,1,223.2,184.1Z" transform="translate(-199.979 -184.068)"/></g><g transform="translate(10.327 9.92)"><path class="x" d="M225.063,187.239c.008.171-4.914.553-10.991.851s-11.013.4-11.02.23,4.912-.553,10.991-.851S225.054,187.067,225.063,187.239Z" transform="translate(-203.052 -187.156)"/></g><g transform="translate(16.439 13.224)"><path class="x" d="M229.6,189.806a15.559,15.559,0,0,1-3.151.579c-1.956.267-4.666.573-7.67.816s-5.726.373-7.7.42a15.369,15.369,0,0,1-3.2-.07,17.616,17.616,0,0,1,3.177-.369l7.676-.6,7.672-.632A17.255,17.255,0,0,1,229.6,189.806Z" transform="translate(-207.885 -189.769)"/></g><g transform="translate(23.25 17.663)"><path class="x" d="M232.129,193.34c.013.171-4.2.659-9.4,1.089s-9.439.639-9.453.468,4.2-.659,9.406-1.088S232.116,193.166,232.129,193.34Z" transform="translate(-213.271 -193.279)"/></g><g transform="translate(29.765 21.69)"><path class="x" d="M236.679,196.511c.016.171-4.054.754-9.1,1.3s-9.142.857-9.16.687,4.054-.755,9.1-1.305S236.661,196.34,236.679,196.511Z" transform="translate(-218.423 -196.464)"/></g><g transform="translate(32.029 27.356)"><path class="x" d="M238.968,201a11.537,11.537,0,0,1-2.723.473c-1.691.2-4.035.412-6.628.548s-4.948.169-6.651.143a11.642,11.642,0,0,1-2.754-.186,13.239,13.239,0,0,1,2.747-.253l6.627-.325,6.623-.365A12.865,12.865,0,0,1,238.968,201Z" transform="translate(-220.213 -200.944)"/></g><g transform="translate(38.152 13.071)"><path class="al" d="M257.9,205.631l-6.231-1.021-23.242.585s-1.213-.363-.159-1.051c.511-.336,9.056-2.532,9.056-2.532l-12.264,1.026a16.656,16.656,0,0,1,4.675-5.8c2.969-2.112,8.725-3.468,8.725-3.468l-3.72-2.929s12.142-1.649,13.7-.21,3.456,3.67,3.456,3.67l6.709-.063" transform="translate(-225.055 -189.648)"/><g transform="translate(0.233 11.109)"><path class="af" d="M241.553,198.6c0,.178-3.666.3-8.161.75s-8.119,1.027-8.153.849a8.751,8.751,0,0,1,2.338-.63c1.462-.293,3.5-.616,5.758-.838s4.321-.3,5.807-.295A8.8,8.8,0,0,1,241.553,198.6Z" transform="translate(-225.239 -198.433)"/></g><g transform="translate(1.799 8.084)"><path class="af" d="M240.515,196.085c.023.169-3.1.769-6.977,1.337s-7.036.894-7.06.725,3.1-.77,6.977-1.339S240.491,195.916,240.515,196.085Z" transform="translate(-226.478 -196.04)"/></g></g></g><g transform="translate(82.438)"><path class="al" d="M264.038,113.94a3.569,3.569,0,0,1,3.3,3.516h0l.376,49.074c.2,5.787-7.78,9.477-13.754,9.655h0c-6.033.178-6.382-2.876-6.733-8.373-.588-9.184-.75-12.633-.752-12.582,0,0-7.677-.918-9.751-11.145-1.031-5.086-1.186-13.5-1.1-20.4.078-6.2,3.662-14,9.634-13.651Z" transform="translate(-235.606 -110.026)"/></g></g><path class="k" d="M255.317,106.738s-14.381-3.164-18.466,13.091c-3.293,13.093-17.377,16.372-7.3,26.443s9.63,12.4,27.354,10.986,28.8,9.429,31.823-6.709-5.849-37.8-19.279-41.154C278.389,100.448,255.317,91.627,255.317,106.738Z" transform="translate(-155.716 -98.566)"/><g transform="translate(85.744 16.287)"><path class="al" d="M238.22,133.669c0,12.274,6.1,20.181,15.438,20.181a19.14,19.14,0,0,0,18.38-19.872c0-.1-.009-.206-.015-.309,0-12.276-7.567-22.224-16.9-22.224S238.22,121.394,238.22,133.669Z" transform="translate(-238.22 -111.445)"/></g><path class="k" d="M238.22,116.119a29.657,29.657,0,0,0,27.588,5.286c0,8.56,5.01,13.019-2.113,20.143s-6.634,19.392,8.315,12.338S276.846,91.2,238.22,116.119Z" transform="translate(-152.476 -95.61)"/><path class="ao" d="M244.684,137.2a16.9,16.9,0,0,0,8.985-1.015" transform="translate(-150.766 -88.612)"/></g><path class="ap" d="M245.287,219.75l46.069-1.84c.831-3.114,22.823,24.425-2.645,67.2-13.748,23.091-89.732,10.429-88.73-16.19" transform="matrix(0.999, -0.035, 0.035, 0.999, 602.482, 214.632)"/><path class="z" d="M228.872,380.912s-25.634,17.158-20.518,26.253,31.269-16.2,32.691-20.182a6.677,6.677,0,0,0-1.347-6.737A10.151,10.151,0,0,1,228.872,380.912Z" transform="matrix(0.999, -0.035, 0.035, 0.999, 608.315, 254.995)"/></g><g transform="matrix(0.999, -0.035, 0.035, 0.999, 637.233, 292.066)"><g transform="translate(82.775 57.57)"><g transform="translate(47.838)"><g transform="translate(1.395)"><path class="u" d="M172.482,164.108l-1.048,3.431h16.65L187.2,165.2Z" transform="translate(-171.434 -164.108)"/></g><g transform="translate(0.862 10.661)"><path class="w" d="M188.729,172.763l-.278-.225H171.28l-.267.225Z" transform="translate(-171.013 -172.538)"/></g><g transform="translate(0.224 3.922)"><path class="w" d="M185.972,193.217l3.528-26.008H170.508l3.527,26.008S181.275,194.27,185.972,193.217Z" transform="translate(-170.508 -167.209)"/></g><g transform="translate(0 2.457)"><path class="u" d="M189.771,167.909h-19.44v-.3a1.555,1.555,0,0,1,1.557-1.555h16.329a1.556,1.556,0,0,1,1.557,1.554h0Z" transform="translate(-170.331 -166.051)"/></g><g transform="translate(0.86 10.887)"><path class="r" d="M187.37,182.871h-15l-1.359-10.154h17.718Z" transform="translate(-171.011 -172.717)"/></g><g transform="translate(5.815 12.21)"><path class="w" d="M180.933,179.149c.969-1.724,1.5-3.841-.439-5.067,0,0-1.846-1.2-3.876,1.042-1.573,1.734-2.317,3.758-1.041,5.314C177.117,182.317,179.965,180.871,180.933,179.149Zm-3.027-.274a4.119,4.119,0,0,0-1.624,1.92c-.178-1.239.347-1.923,2.162-3.335a4.657,4.657,0,0,0,1.9-3.15c.971,2.332-1.139,3.671-2.443,4.565Z" transform="translate(-174.929 -173.763)"/></g><g transform="translate(1.878 0.717)"><path class="w" d="M172.161,164.675l3.245.469v.668h-3.59Z" transform="translate(-171.816 -164.675)"/></g></g><g transform="translate(0 8.736)"><path class="q" d="M188.336,180.121s-27.881,28.035-30.357,28.826c0,0-8.455-16.482-9.223-17.076L132.5,201.008l9.535,20.439a15.2,15.2,0,0,0,25.8,4.424l27.389-32.3,5.53-6.123a14.388,14.388,0,0,0,2.183-5.588,9.87,9.87,0,0,0-.231-3.727,3.745,3.745,0,0,0-.153-2.89,2.156,2.156,0,0,0-1.49-.983c1.208-2.993-2.071-4.47-3.723-2Z" transform="translate(-132.503 -171.016)"/><g transform="translate(48.414 3.571)"><path class="q" d="M177.177,180.4a6.487,6.487,0,0,0-2.524-3.421,7.051,7.051,0,0,0-3.866-1.514s.331-2.007,3.645-1.566,4.2,2.58,8.282,1.566l.883,3.815Z" transform="translate(-170.787 -173.84)"/></g><g transform="translate(65.056 2.75)"><path class="aq" d="M187.7,173.195c.143.067-.326,1.26-1.416,2.366s-2.264,1.612-2.334,1.471c-.086-.149.892-.844,1.906-1.889S187.55,173.113,187.7,173.195Z" transform="translate(-183.947 -173.19)"/></g><g transform="translate(67.74 7.062)"><path class="aq" d="M188.414,176.605c.149.064-.094.911-.776,1.725s-1.466,1.211-1.557,1.077.474-.708,1.1-1.461S188.261,176.533,188.414,176.605Z" transform="translate(-186.069 -176.6)"/></g><g transform="translate(23.036 37.281)"><path class="aq" d="M150.83,212.377A26.57,26.57,0,0,1,152.9,200.5c.167.053-.564,2.653-1.128,5.926S151,212.383,150.83,212.377Z" transform="translate(-150.719 -200.496)"/></g></g></g><g transform="translate(0 59.531)"><g transform="translate(3.258)"><g transform="translate(1.395)"><path class="u" d="M71.775,165.659l-1.048,3.43h16.65l-.884-2.337Z" transform="translate(-70.727 -165.659)"/></g><g transform="translate(0.862 10.661)"><path class="w" d="M88.022,174.315l-.277-.226H70.573l-.267.226Z" transform="translate(-70.306 -174.089)"/></g><g transform="translate(0.225 3.922)"><path class="w" d="M85.264,194.767l3.528-26.007H69.8l3.527,26.007S80.569,195.82,85.264,194.767Z" transform="translate(-69.802 -168.76)"/></g><g transform="translate(0 2.453)"><path class="u" d="M89.064,169.459H69.624v-.3a1.559,1.559,0,0,1,1.557-1.559H87.508a1.556,1.556,0,0,1,1.555,1.557v.3Z" transform="translate(-69.624 -167.599)"/></g><g transform="translate(0.86 10.886)"><path class="r" d="M86.663,184.421h-15L70.3,174.267H88.021Z" transform="translate(-70.304 -174.267)"/></g><g transform="translate(5.813 12.21)"><path class="w" d="M80.225,180.7c.969-1.722,1.5-3.841-.438-5.066,0,0-1.846-1.2-3.876,1.042-1.574,1.732-2.319,3.758-1.042,5.314C76.41,183.869,79.258,182.422,80.225,180.7Zm-3.026-.273a4.116,4.116,0,0,0-1.622,1.92c-.178-1.241.345-1.923,2.162-3.336a4.645,4.645,0,0,0,1.9-3.148c.97,2.332-1.138,3.669-2.443,4.564Z" transform="translate(-74.221 -175.314)"/></g><g transform="translate(1.877 0.717)"><path class="w" d="M71.456,166.226l3.242.47v.668h-3.59Z" transform="translate(-71.108 -166.226)"/></g></g><g transform="translate(0 8.425)"><g transform="translate(3.053 9.743)"><path class="q" d="M72.113,230.6s-3.306-3.91-2.446-31.753l-.2-14.915,12.979-3.905L91.4,230.364Z" transform="translate(-69.462 -180.025)"/></g><g transform="translate(5.633 3.593)"><path class="q" d="M81.456,182.214a8.508,8.508,0,0,1,2.835-3.906,7.057,7.057,0,0,1,3.865-1.515s-.33-2.008-3.643-1.567-4.2,2.579-8.283,1.566L71.5,185.249Z" transform="translate(-71.502 -175.162)"/></g><path class="q" d="M78.309,178.232c-.2-.527-6.959-5.911-6.959-5.911s-3.48.143-2.164,3.282c0,0-2.83,1.107-1.309,4.2,0,0-1.515,1.094-.45,4.148a28.505,28.505,0,0,0,2.926,5.786Z" transform="translate(-67.048 -172.321)"/><g transform="translate(5.072 35.662)"><path class="q" d="M79.089,200.521l-7.548,18.028a10.232,10.232,0,0,0,6.615,12.835h0a10.231,10.231,0,0,0,12.826-6.444l6.046-17.785Z" transform="translate(-71.059 -200.521)"/></g><g transform="translate(6.213 36.009)"><path class="aq" d="M71.976,217.009a10.172,10.172,0,0,1,.615-2.5c.468-1.518,1.19-3.591,2.1-5.837s1.832-4.238,2.552-5.653a10.23,10.23,0,0,1,1.3-2.223,12.314,12.314,0,0,1-.912,2.4c-.617,1.456-1.476,3.464-2.381,5.7s-1.683,4.273-2.252,5.75A12.06,12.06,0,0,1,71.976,217.009Z" transform="translate(-71.961 -200.795)"/></g><g transform="translate(6.844 38.686)"><path class="aq" d="M77.177,203.008c.018.178-1.292.355-2.58,1.249-1.305.869-1.951,2.022-2.109,1.94-.153-.037.315-1.454,1.773-2.436S77.2,202.851,77.177,203.008Z" transform="translate(-72.46 -202.913)"/></g></g></g><g transform="translate(16.478)"><g transform="translate(0 10.377)"><path class="ar" d="M107.2,126.79c.75,2.168-1.817,4.013-4.052,4.526s-4.945.833-5.968,2.885c-.888,1.782.013,4.039-.8,5.858-1.538,3.457-7.748,2.734-8.966,6.317-.833,2.458,1.473,4.994,1.185,7.575-.249,2.223-2.285,3.736-4.071,5.082s-3.664,3.2-3.383,5.421c.326,2.563,3.455,4.336,3.167,6.906-.282,2.525-3.69,3.705-4.181,6.2-.582,2.959,3.125,4.864,4.315,7.634.911,2.118.349,4.845,1.887,6.562,1.574,1.76,4.37,1.416,6.68.926q11.52-2.441,23.036-4.884c-1.559-3.64-.092-7.9,2.127-11.183s5.176-6.047,7.084-9.517,2.533-8.114.037-11.188Z" transform="translate(-80.078 -126.79)"/></g><g transform="translate(62.924 22.942)"><path class="w" d="M134.548,142.581a23.744,23.744,0,0,0-.755-3.636,3.643,3.643,0,0,0-.922-1.5c-.454-.431-1.046-.158-1.421.463a11.244,11.244,0,0,0,0,9.339c.376.622.967.9,1.421.463a3.643,3.643,0,0,0,.922-1.493,23.769,23.769,0,0,0,.755-3.638,2.842,2.842,0,0,1,.078,1.017,9.769,9.769,0,0,1-.432,2.761,3.943,3.943,0,0,1-1,1.738,1.238,1.238,0,0,1-1.225.286,2.017,2.017,0,0,1-.972-.823,11.29,11.29,0,0,1,0-9.952,2.021,2.021,0,0,1,.972-.826,1.241,1.241,0,0,1,1.225.287,3.943,3.943,0,0,1,1,1.738,9.768,9.768,0,0,1,.432,2.759A2.83,2.83,0,0,1,134.548,142.581Z" transform="translate(-129.836 -136.726)"/></g><g transform="translate(23.099)"><g transform="translate(0 3.827)"><path class="ar" d="M105.3,167.8c-4.167-7.04-5.362-16.422-6.415-24.536-.5-3.819-1.368-9.256,1.318-11.646,2.877-2.558,3.154-6.5,6.46-8.478s7.79-2.138,10.906.121Z" transform="translate(-98.344 -121.61)"/></g><g transform="translate(4.348)"><g transform="translate(4.812 7.721)"><path class="q" d="M114.929,191.923h0a11.3,11.3,0,0,0,12.162-10.37c.011-.143.019-.286.025-.429.254-6.149.479-12.368.479-12.368s9.323-.846,10.025-10.069.455-30.519.455-30.519h0a32.142,32.142,0,0,0-32.488,2l.481,32.465-.052,17.466C106.06,185.954,109.089,191.458,114.929,191.923Z" transform="translate(-105.587 -124.69)"/></g><path class="ar" d="M129.467,149.017c-1.586-1.977-4.171-2.768-6.3-1.395a5.363,5.363,0,0,0-1.806,6.7,7.058,7.058,0,0,0,4.515,3.435,3.543,3.543,0,0,1,2.763,3.824c-.272,2.313-4.126,3.172-5.87,5.084-2.713,2.973-8.65,4.216-12.647,4.678-3.93.454-3.456.493-5.734-2.744a12.383,12.383,0,0,1-2.221-7.5q-.182-10.2-.363-20.4a29.161,29.161,0,0,1,.486-7.321,9.832,9.832,0,0,1,3.879-6.042c2.25-1.469,5.091-1.588,7.65-2.405,3.2-1.024,5.917-3.135,8.91-4.656s6.661-2.423,9.657-.908c2.151,1.088,3.589,3.241,5.679,4.439,2.978,1.7,7.04,1.332,8.474,5.721a7.439,7.439,0,0,1-.063,4.69c-2.04,5.961-9.438,8.346-14.753,5.751-.109,1.01.88,3.263-.193,6.452-.344,1.019-.469,2.576-2.063,2.6Z" transform="translate(-101.782 -118.584)"/><g transform="translate(22.471 31.707)"><path class="aq" d="M123.1,148.136c.038.014.037.173-.129.4a1.384,1.384,0,0,1-1.029.511,2.542,2.542,0,0,1-2.384-2.553,2.668,2.668,0,0,1,.684-1.95,2.749,2.749,0,0,1,1.445-.827c.951-.2,1.5.156,1.458.216-.024.1-.568-.044-1.33.233a2.309,2.309,0,0,0-1.6,2.3,2.145,2.145,0,0,0,1.727,2.117C122.716,148.627,123.031,148.078,123.1,148.136Z" transform="translate(-119.551 -143.656)"/></g></g></g><g transform="translate(55.149 28.314)"><path class="w" d="M136.2,141.016a33.81,33.81,0,0,1-6.205,1.319,33.7,33.7,0,0,1-6.3.728c-.027-.164,2.752-.754,6.207-1.319S136.171,140.851,136.2,141.016Z" transform="translate(-123.688 -140.973)"/></g><g transform="translate(28.546 38.638)"><path class="ar" d="M104.9,169.511a2.678,2.678,0,0,0,3.2,1.286,7.663,7.663,0,0,0,3.1-2.1,8.115,8.115,0,0,1,3.073-2.147c2.46-.747,5.471.9,7.542-.631,1.884-1.39,1.638-4.536,3.487-5.97.98-.763,2.352-.86,3.352-1.6,1.87-1.382,1.559-4.468-.01-6.183s-3.935-2.409-6.176-3.029l-19.821,8.449Z" transform="translate(-102.651 -149.137)"/></g><g transform="translate(7.888 23.193)"><path class="as" d="M132.772,136.924c.006.008-.051.049-.164.121a5.3,5.3,0,0,1-.524.292,10.67,10.67,0,0,1-2.17.784,24.95,24.95,0,0,1-3.6.572,36.616,36.616,0,0,0-4.732.654,8.929,8.929,0,0,0-4.9,2.672c-1.335,1.552-1.836,3.784-2.871,5.941a7.7,7.7,0,0,1-2.308,2.9,12.1,12.1,0,0,1-3.451,1.7c-2.436.816-5.117,1.306-7.146,3.026a5.131,5.131,0,0,0-1.826,3.242,22.357,22.357,0,0,0,0,3.85,6.3,6.3,0,0,1-3.413,6.381c-2.073,1.22-4.245,1.867-5.979,2.973a6.987,6.987,0,0,0-2.133,1.968,5.179,5.179,0,0,0-.809,2.525,17.582,17.582,0,0,0,.645,4.688,12.309,12.309,0,0,1,.33,3.643,5.179,5.179,0,0,1-.661,2.216,2.605,2.605,0,0,1-.5.632,5.508,5.508,0,0,0,.929-2.866,12.486,12.486,0,0,0-.425-3.548,17.436,17.436,0,0,1-.741-4.789,5.6,5.6,0,0,1,.843-2.751,7.446,7.446,0,0,1,2.256-2.138c1.8-1.168,3.981-1.836,5.96-3.025a5.759,5.759,0,0,0,3.111-5.893,22.207,22.207,0,0,1,0-3.956,5.729,5.729,0,0,1,2.031-3.608c2.2-1.853,4.974-2.331,7.347-3.127a11.632,11.632,0,0,0,3.294-1.6,7.167,7.167,0,0,0,2.156-2.695c1.014-2.056,1.535-4.35,2.99-6.017a9.3,9.3,0,0,1,5.177-2.764,34.726,34.726,0,0,1,4.8-.573,27.045,27.045,0,0,0,3.578-.467A16.134,16.134,0,0,0,132.772,136.924Z" transform="translate(-86.316 -136.924)"/></g><g transform="translate(22.634 26.433)"><path class="as" d="M124.345,139.552c0,.064-.713,0-1.93.277a8.759,8.759,0,0,0-4.445,2.656,8.063,8.063,0,0,0-1.77,3.1,13.935,13.935,0,0,0-.362,4.14,10.83,10.83,0,0,1-.685,4.733,4.838,4.838,0,0,1-1.731,1.947,21.168,21.168,0,0,1-2.285,1.22,5.954,5.954,0,0,0-1.97,1.4,3.528,3.528,0,0,0-.775,2.122c-.109,1.539.228,3.253-.531,4.726a7.775,7.775,0,0,1-3.083,3.057c-1.163.693-2.291,1.2-3.248,1.782a8.009,8.009,0,0,0-2.286,1.893,5.187,5.187,0,0,0-.985,2,4.67,4.67,0,0,0,.034,1.91,1.177,1.177,0,0,1-.2-.473,3.5,3.5,0,0,1-.061-1.483,5.247,5.247,0,0,1,.946-2.152,8.138,8.138,0,0,1,2.332-2.051c.969-.616,2.094-1.153,3.208-1.843a7.368,7.368,0,0,0,2.847-2.873c.658-1.276.349-2.854.441-4.529a4.126,4.126,0,0,1,.9-2.461,6.485,6.485,0,0,1,2.159-1.555c1.559-.752,3.119-1.449,3.761-2.892a10.486,10.486,0,0,0,.66-4.475,14.067,14.067,0,0,1,.439-4.286,8.368,8.368,0,0,1,1.934-3.24,8.669,8.669,0,0,1,4.708-2.595,6.17,6.17,0,0,1,1.471-.111A1.613,1.613,0,0,1,124.345,139.552Z" transform="translate(-97.977 -139.486)"/></g></g><g transform="translate(10.64 32.427)"><g transform="translate(0 27.496)"><path class="r" d="M98.584,248.049l6.425-18.658-4.463-22.639-3.494,9.984-21.591-7.927s13.982-27.949,14.681-29.42c6.388-13.42,23.416-13.42,23.416-13.42l21.677.568a23.677,23.677,0,0,1,18.618,7.221c6.205,6.254,20.356,33.606,20.356,33.606l-22.806,7.1-4.512-8.432,1.305,17.8,4.489,27.117Z" transform="translate(-75.462 -165.969)"/><g transform="translate(18.783 6.716)"><path class="at" d="M149.122,171.58c0,.166-13.166.3-29.4.3s-29.4-.133-29.4-.3,13.162-.3,29.4-.3S149.122,171.412,149.122,171.58Z" transform="translate(-90.315 -171.28)"/></g><g transform="translate(61.463 6.347)"><path class="w" d="M130.984,171.007c.01.071-.608.092-1.6.5a7.323,7.323,0,0,0-3.3,2.952,9.815,9.815,0,0,0-1.349,6.391,25.012,25.012,0,0,0,2.56,7.823c2.52,5.38,4.74,10.288,6.329,13.844l1.846,4.229a8.542,8.542,0,0,1,.6,1.59,8.346,8.346,0,0,1-.828-1.478c-.537-1.094-1.22-2.482-2.036-4.139-1.7-3.507-3.98-8.376-6.505-13.767a24.673,24.673,0,0,1-2.567-8.042,10.136,10.136,0,0,1,1.559-6.7,7.259,7.259,0,0,1,3.6-2.94,4.513,4.513,0,0,1,1.244-.268A1.222,1.222,0,0,1,130.984,171.007Z" transform="translate(-124.064 -170.988)"/></g><g transform="translate(18.795 11.839)"><path class="w" d="M101.288,227.93c-.178.037-2.775-11.709-5.8-26.232s-5.333-26.33-5.155-26.367,2.775,11.7,5.8,26.233S101.468,227.893,101.288,227.93Z" transform="translate(-90.324 -175.331)"/></g><g transform="translate(32.384 46.822)"><path class="w" d="M131.013,202.994a5.6,5.6,0,0,1-.016,1.559,14.908,14.908,0,0,1-1.042,4.133,20.127,20.127,0,0,1-9.478,10.111,27.919,27.919,0,0,1-13.67,2.743,32.588,32.588,0,0,1-4.221-.434,6.475,6.475,0,0,1-1.515-.357c.015-.12,2.2.286,5.746.322a29.187,29.187,0,0,0,13.362-2.864,20.429,20.429,0,0,0,9.348-9.706A23.353,23.353,0,0,0,131.013,202.994Z" transform="translate(-101.07 -202.994)"/></g><g transform="translate(13.05 16.441)"><path class="at" d="M157.67,179.27c0,.166-16.095.3-35.944.3s-35.945-.134-35.945-.3,16.091-.3,35.945-.3S157.67,179.1,157.67,179.27Z" transform="translate(-85.781 -178.97)"/></g><g transform="translate(8.907 25.487)"><path class="at" d="M163.854,186.421c0,.167-18.213.3-40.672.3s-40.676-.134-40.676-.3,18.208-.3,40.676-.3S163.854,186.257,163.854,186.421Z" transform="translate(-82.505 -186.123)"/></g><g transform="translate(4.506 33.775)"><path class="at" d="M168.355,192.977c0,.166-20,.3-44.664.3s-44.666-.134-44.666-.3,19.993-.3,44.666-.3S168.355,192.811,168.355,192.977Z" transform="translate(-79.025 -192.677)"/></g><g transform="translate(2.337 38.564)"><path class="at" d="M98.482,202.1a19.349,19.349,0,0,1-3.1-.844c-1.9-.573-4.52-1.351-7.441-2.126s-5.583-1.4-7.516-1.843a19.426,19.426,0,0,1-3.112-.806,15.378,15.378,0,0,1,3.2.39c1.959.339,4.65.9,7.585,1.679s5.55,1.624,7.419,2.3A15.451,15.451,0,0,1,98.482,202.1Z" transform="translate(-77.31 -196.464)"/></g><g transform="translate(25.068 41.954)"><path class="at" d="M142.151,199.917a10.714,10.714,0,0,1-1.845.056l-5.022-.052-16.565-.172-16.568.009H97.129a10.705,10.705,0,0,1-1.844-.073,10.93,10.93,0,0,1,1.839-.158c1.185-.064,2.9-.132,5.022-.193,4.24-.125,10.1-.214,16.577-.183s12.334.178,16.574.346c2.119.083,3.836.167,5.019.243A10.906,10.906,0,0,1,142.151,199.917Z" transform="translate(-95.285 -199.144)"/></g><g transform="translate(73.156 38.494)"><path class="at" d="M157.426,196.5c0-.058.095.008-.115.032-.223.044-.451.089-.7.134l-2.585.451c-2.186.369-5.21.856-8.554,1.367s-6.384.947-8.582,1.234a21.3,21.3,0,0,1-3.58.344,21.181,21.181,0,0,1,3.514-.763c2.184-.395,5.206-.9,8.554-1.406s6.381-.932,8.585-1.2c1.1-.132,2-.224,2.618-.264.312-.02.553-.03.72-.024.09.019.134-.019.211.056C157.439,196.551,157.433,196.491,157.426,196.5Z" transform="translate(-133.311 -196.409)"/></g><g transform="translate(27.118 50.454)"><path class="at" d="M131.085,206.166c0,.166-7.652.3-17.089.3s-17.09-.134-17.09-.3,7.651-.3,17.09-.3S131.085,206,131.085,206.166Z" transform="translate(-96.906 -205.866)"/></g><g transform="translate(60.682 53.217)"><path class="at" d="M135.112,208.351a28.623,28.623,0,0,1-5.832.3,28.633,28.633,0,0,1-5.832-.3,28.628,28.628,0,0,1,5.832-.3A28.628,28.628,0,0,1,135.112,208.351Z" transform="translate(-123.447 -208.051)"/></g><g transform="translate(29.264 60.165)"><path class="at" d="M123.166,214.169a19.936,19.936,0,0,1-3.6.268c-2.226.073-5.3.106-8.7.028s-6.468-.254-8.688-.434a20.041,20.041,0,0,1-3.58-.435,23.983,23.983,0,0,1,3.6.011l8.678.258,8.68.148A23.154,23.154,0,0,1,123.166,214.169Z" transform="translate(-98.603 -213.545)"/></g><g transform="translate(49.833 62.937)"><path class="at" d="M138.3,216.038c0,.166-5.247.3-11.718.3s-11.718-.133-11.718-.3,5.246-.3,11.718-.3S138.3,215.872,138.3,216.038Z" transform="translate(-114.868 -215.737)"/></g><g transform="translate(27.121 70.037)"><path class="at" d="M144.818,223.04a11.052,11.052,0,0,1-1.886.081c-1.318,0-3.048-.006-5.138-.013-4.34-.044-10.332-.157-16.948-.364s-12.608-.474-16.941-.745c-2.165-.14-3.916-.262-5.125-.378a11.353,11.353,0,0,1-1.872-.231,11.475,11.475,0,0,1,1.888,0l5.132.188,16.938.568,16.938.54,5.134.2A11.544,11.544,0,0,1,144.818,223.04Z" transform="translate(-96.908 -221.351)"/></g><g transform="translate(24.569 78.417)"><path class="at" d="M146.946,230.922a13.713,13.713,0,0,1-2.051,0l-5.582-.216c-4.712-.209-11.22-.537-18.4-.94s-13.691-.8-18.4-1.113l-5.576-.407a13.734,13.734,0,0,1-2.046-.23,13.478,13.478,0,0,1,2.046,0l5.579.216c4.712.209,11.221.537,18.414.94s13.7.8,18.406,1.114l5.574.406A13.433,13.433,0,0,1,146.946,230.922Z" transform="translate(-94.89 -227.978)"/></g><g class="au" transform="translate(31.06 46.65)"><path d="M100.324,219.2c4.07,3.045,10.061,2.03,15.077,1.2a21.764,21.764,0,0,0,13.129-7.112,8.828,8.828,0,0,0,2.438-6.207c-.2-2.274-2.209-4.467-4.475-4.195-2.6.311-3.848,3.223-5.1,5.52a20.141,20.141,0,0,1-20.985,9.855S99.6,218.656,100.324,219.2Z" transform="translate(-100.023 -202.858)"/></g><g class="au" transform="translate(62.328 18.846)"><path d="M124.748,180.872c1.266,10.224,2.92,18.613,5.053,28.693,1.048,4.959,2.322,10.132,5.741,13.87l-1.965-22.667Z" transform="translate(-124.748 -180.872)"/></g></g><g transform="translate(14.078)"><path class="av" d="M86.594,144.226" transform="translate(-86.594 -144.226)"/></g><g transform="translate(26.583 19.302)"><path class="ar" d="M103.2,165.175a7.351,7.351,0,0,0-3.423,10.976,3.591,3.591,0,0,1,.94,2.037c-.095,1.82-3.036,1.872-3.965,3.437a2.83,2.83,0,0,0,.787,3.3,22.165,22.165,0,0,0,3.035,2.026,3.7,3.7,0,0,1,1.862,2.964c1.028-.029,1.635-1.275,1.48-2.291a10.019,10.019,0,0,0-1.265-2.8,2.935,2.935,0,0,1-.126-2.933c.672-.957,2.042-1,3.134-1.42a4.37,4.37,0,0,0,2.317-5.628c-.661-1.48-2.2-2.974-1.452-4.411.417-.8,1.378-1.108,2.17-1.545a5.644,5.644,0,0,0,.732-9.4Z" transform="translate(-96.483 -159.489)"/></g></g><g transform="translate(12.676 207.774)"><g transform="translate(4.654)"><path class="q" d="M87.776,282.883,80.752,426.736l11.755,2.84,21.837-146.694Z" transform="translate(-80.752 -282.883)"/></g><g transform="translate(0 143.217)"><g transform="translate(0.001)"><path class="aw" d="M80.414,396.133l-3.341,14.695H95.242L93.48,399.609Z" transform="translate(-77.073 -396.133)"/></g><g transform="translate(12.709 2.863)"><path class="w" d="M87.887,398.4c.172.011.169,2.142-.008,4.757s-.458,4.728-.631,4.717-.169-2.142.008-4.759S87.713,398.386,87.887,398.4Z" transform="translate(-87.121 -398.397)"/></g><g class="ah" transform="translate(0 12.001)"><path class="ai" d="M77.075,408.315H95.242v-2.251l-17.763-.443-.407,2.438Z" transform="translate(-77.072 -405.623)"/></g></g></g><g transform="translate(67.722 203.54)"><path class="q" d="M120.6,281.356,151.641,435.5l12.747-.886-18.036-155.08Z" transform="translate(-120.6 -279.535)"/><g transform="translate(30.776 150.314)"><path class="aw" d="M157.395,398.4l5.349.551s19.507,6.592,19.828,10.148l-37.3,1.088-.335-9.754,1.381.276C151.845,401.8,152.225,400.638,157.395,398.4Z" transform="translate(-144.936 -398.397)"/><g class="ah" transform="translate(3.329 3.664)"><path class="ai" d="M148.606,401.367a1.524,1.524,0,0,0-1,1.769,1.465,1.465,0,0,0,1.745,1.008,1.607,1.607,0,0,0,1.052-1.878,1.517,1.517,0,0,0-1.931-.847Z" transform="translate(-147.568 -401.294)"/></g><g class="ah" transform="translate(0.338 8.762)"><path class="ai" d="M145.2,408.351l.015-3.025,35.758.089s1.682.675,1.528,1.85Z" transform="translate(-145.203 -405.326)"/></g><g transform="translate(19.964 1.779)"><path class="w" d="M163.125,399.872c.048.178-.733.508-1.329,1.3-.62.771-.75,1.607-.932,1.6-.171.033-.328-1.029.432-2S163.116,399.7,163.125,399.872Z" transform="translate(-160.723 -399.804)"/></g><g transform="translate(24.485 3.283)"><path class="w" d="M164.538,404.176c-.164.046-.445-.859-.005-1.87s1.279-1.433,1.359-1.284c.107.147-.43.7-.778,1.533C164.748,403.383,164.718,404.152,164.538,404.176Z" transform="translate(-164.298 -400.993)"/></g></g></g><g transform="translate(19.324 142.003)"><path class="ax" d="M160.869,302.571l-10.356-70.96-53.746-.737S83,253.875,83,267.635l-.67,33.116c11.61.333,23.219,1.482,34.83,2.328l2.852-28.146s2.677,11.643,6.634,28.745A173.651,173.651,0,0,0,160.869,302.571Z" transform="translate(-82.329 -230.874)"/><g transform="translate(20.634 39.887)"><path class="w" d="M130.867,270.292c-.044.177-7.292-1.44-16.188-3.612S98.6,262.6,98.646,262.428s7.29,1.44,16.19,3.613S130.91,270.115,130.867,270.292Z" transform="translate(-98.646 -262.415)"/></g><g transform="translate(18.253 41.257)"><path class="w" d="M100.815,269.877c.321-2.023.572-3.609.75-4.723l.178-1.23a2.4,2.4,0,0,0,.042-.425,2.116,2.116,0,0,0-.1.411c-.061.306-.139.71-.239,1.222-.2,1.11-.492,2.69-.86,4.706-.745,4.089-1.744,10.018-2.9,17.355-.3,1.893-.608,3.889-.922,5.963l.46.035c.3-2.063.594-4.049.879-5.934C99.209,279.914,100.142,273.975,100.815,269.877Z" transform="translate(-96.763 -263.498)"/></g><g transform="translate(57.707 44.031)"><path class="w" d="M127.965,265.692c-.09.016,1.821,11.293,4.9,29.033l.46-.016C130.131,276.951,128.054,265.676,127.965,265.692Z" transform="translate(-127.962 -265.692)"/></g></g><g transform="translate(16.184 47.473)"><path class="u" d="M81.561,156.124a4.747,4.747,0,0,1,.838,1.008,13.237,13.237,0,0,1,1.738,3.141,6.314,6.314,0,0,1,.41,2.5,5.316,5.316,0,0,1-.96,2.754c-.56.86-1.286,1.625-1.929,2.466a5.078,5.078,0,0,0-1.213,2.858,5.808,5.808,0,0,0,.879,3.012,26.821,26.821,0,0,0,1.744,2.537,12.031,12.031,0,0,1,1.457,2.476,6.472,6.472,0,0,1,.465,2.477,8.96,8.96,0,0,0,.181,1.97,2.9,2.9,0,0,0,.7,1.257,2.281,2.281,0,0,0,1.1.573c.029.015-.549.185-1.254-.4a3,3,0,0,1-.864-1.33,8.41,8.41,0,0,1-.282-2.046,6.264,6.264,0,0,0-.5-2.307,12.118,12.118,0,0,0-1.445-2.341,25.29,25.29,0,0,1-1.808-2.573,6.3,6.3,0,0,1-.969-3.325,5.61,5.61,0,0,1,1.348-3.193c.677-.87,1.4-1.616,1.936-2.414a5.168,5.168,0,0,0,.607-4.808,15.531,15.531,0,0,0-1.531-3.15A6.464,6.464,0,0,1,81.561,156.124Z" transform="translate(-79.846 -156.124)"/></g></g></g></g></svg>