<svg xmlns="http://www.w3.org/2000/svg" width="253.602" height="61.97" viewBox="0 0 253.602 61.97"><defs><style>.a,.b,.d,.e,.g,.h,.i,.j,.k{isolation:isolate;}.b{fill:#ff0b23;}.b,.d,.e,.f,.g,.h,.i,.j,.k{opacity:0.7;}.c{fill:#fff;}.d{fill:#ff4800;}.e{fill:#f87316;}.g{fill:#f2b50a;}.h{fill:#8d12dd;}.i{fill:#1455f7;}.j{fill:#11d336;}.k{fill:#2c5efb;}</style></defs><g transform="translate(-1172.079 -69.059)"><g class="a"><g class="a"><path d="M1278.8,119.706a3.114,3.114,0,0,1,1.371,1.144,3.43,3.43,0,0,1,0,3.5,3.065,3.065,0,0,1-1.371,1.145,5.137,5.137,0,0,1-2.1.4h-1.833V128.4h-2.106v-9.1h3.939A5.054,5.054,0,0,1,1278.8,119.706Zm-.774,4.062a1.422,1.422,0,0,0,.494-1.163,1.441,1.441,0,0,0-.494-1.177,2.218,2.218,0,0,0-1.443-.409h-1.716v3.159h1.716A2.206,2.206,0,0,0,1278.021,123.768Z"/><path d="M1283.332,128.045a3.417,3.417,0,0,1-1.372-1.28,3.747,3.747,0,0,1,0-3.719,3.424,3.424,0,0,1,1.372-1.28,4.478,4.478,0,0,1,3.958,0,3.452,3.452,0,0,1,1.365,1.28,3.747,3.747,0,0,1,0,3.719,3.445,3.445,0,0,1-1.365,1.28,4.478,4.478,0,0,1-3.958,0Zm3.263-1.729a2.238,2.238,0,0,0,0-2.82,1.687,1.687,0,0,0-1.281-.527,1.707,1.707,0,0,0-1.287.527,2.218,2.218,0,0,0,0,2.82,1.71,1.71,0,0,0,1.287.527A1.691,1.691,0,0,0,1286.595,126.316Z"/><path d="M1301.538,121.409,1299,128.4h-1.95l-1.574-4.342-1.625,4.342h-1.949l-2.522-6.994h1.911l1.651,4.732,1.716-4.732h1.716l1.664,4.732,1.7-4.732Z"/><path d="M1309.1,125.478h-5.291a1.643,1.643,0,0,0,.676,1.026,2.235,2.235,0,0,0,1.326.377,2.672,2.672,0,0,0,.969-.162,2.347,2.347,0,0,0,.786-.513l1.079,1.169a3.627,3.627,0,0,1-2.885,1.131,4.562,4.562,0,0,1-2.094-.461,3.371,3.371,0,0,1-1.4-1.28,3.524,3.524,0,0,1-.495-1.859,3.578,3.578,0,0,1,.488-1.853,3.417,3.417,0,0,1,1.339-1.287,4.147,4.147,0,0,1,3.763-.019,3.226,3.226,0,0,1,1.307,1.267,3.786,3.786,0,0,1,.475,1.918C1309.144,124.958,1309.13,125.14,1309.1,125.478Zm-4.745-2.249a1.658,1.658,0,0,0-.572,1.065h3.445a1.674,1.674,0,0,0-.572-1.059,1.709,1.709,0,0,0-1.143-.4A1.749,1.749,0,0,0,1304.359,123.229Z"/><path d="M1313.413,121.565a3.636,3.636,0,0,1,1.424-.26v1.872c-.226-.017-.377-.026-.455-.026a1.858,1.858,0,0,0-1.365.487,1.973,1.973,0,0,0-.495,1.463v3.3h-2.027v-6.994h1.937v.923A2.264,2.264,0,0,1,1313.413,121.565Z"/><path d="M1322.793,125.478H1317.5a1.643,1.643,0,0,0,.676,1.026,2.235,2.235,0,0,0,1.326.377,2.675,2.675,0,0,0,.969-.162,2.338,2.338,0,0,0,.786-.513l1.079,1.169a3.624,3.624,0,0,1-2.886,1.131,4.561,4.561,0,0,1-2.093-.461,3.374,3.374,0,0,1-1.4-1.28,3.532,3.532,0,0,1-.494-1.859,3.586,3.586,0,0,1,.487-1.853,3.42,3.42,0,0,1,1.34-1.287,4.147,4.147,0,0,1,3.763-.019,3.231,3.231,0,0,1,1.306,1.267,3.778,3.778,0,0,1,.475,1.918Q1322.832,124.971,1322.793,125.478Zm-4.745-2.249a1.657,1.657,0,0,0-.571,1.065h3.444a1.682,1.682,0,0,0-.571-1.059,1.717,1.717,0,0,0-1.145-.4A1.748,1.748,0,0,0,1318.048,123.229Z"/><path d="M1331.309,118.756V128.4h-1.938V127.6a2.671,2.671,0,0,1-2.183.909,3.632,3.632,0,0,1-1.789-.441,3.161,3.161,0,0,1-1.253-1.261,4.178,4.178,0,0,1,0-3.8,3.154,3.154,0,0,1,1.253-1.261,3.643,3.643,0,0,1,1.789-.442,2.658,2.658,0,0,1,2.092.845v-3.394Zm-2.5,7.56a2.218,2.218,0,0,0,0-2.82,1.82,1.82,0,0,0-2.562,0,2.214,2.214,0,0,0,0,2.82,1.82,1.82,0,0,0,2.562,0Z"/><path d="M1342.768,121.753a3.225,3.225,0,0,1,1.253,1.261,4.151,4.151,0,0,1,0,3.783,3.218,3.218,0,0,1-1.253,1.261,3.569,3.569,0,0,1-1.776.448,2.685,2.685,0,0,1-2.2-.909v.806h-1.938v-9.647h2.029v3.394a2.7,2.7,0,0,1,2.1-.845A3.58,3.58,0,0,1,1342.768,121.753Zm-.846,4.563a2.235,2.235,0,0,0,0-2.82,1.819,1.819,0,0,0-2.561,0,2.235,2.235,0,0,0,0,2.82,1.819,1.819,0,0,0,2.561,0Z"/><path d="M1352.575,121.409l-3.158,7.423a3.657,3.657,0,0,1-1.19,1.7,2.915,2.915,0,0,1-1.709.494,3.575,3.575,0,0,1-1.08-.169,2.385,2.385,0,0,1-.871-.468l.742-1.443a1.76,1.76,0,0,0,.539.325,1.682,1.682,0,0,0,.6.117,1.074,1.074,0,0,0,.677-.2,1.713,1.713,0,0,0,.468-.669l.025-.065-3.028-7.046h2.093l1.962,4.745,1.977-4.745Z"/><path d="M1359.069,127.955a4.511,4.511,0,0,1-1.768-1.678,4.886,4.886,0,0,1,0-4.849,4.516,4.516,0,0,1,1.768-1.677,5.644,5.644,0,0,1,4.667-.188,4.287,4.287,0,0,1,1.606,1.2l-1.353,1.247a2.908,2.908,0,0,0-2.288-1.065,3.041,3.041,0,0,0-1.508.37,2.64,2.64,0,0,0-1.033,1.034,3.258,3.258,0,0,0,0,3.016,2.637,2.637,0,0,0,1.033,1.033,3.042,3.042,0,0,0,1.508.371,2.89,2.89,0,0,0,2.288-1.079l1.353,1.248a4.222,4.222,0,0,1-1.613,1.209,5.352,5.352,0,0,1-2.144.416A5.236,5.236,0,0,1,1359.069,127.955Z"/><path d="M1367.714,128.045a3.422,3.422,0,0,1-1.371-1.28,3.747,3.747,0,0,1,0-3.719,3.428,3.428,0,0,1,1.371-1.28,4.48,4.48,0,0,1,3.959,0,3.441,3.441,0,0,1,1.364,1.28,3.747,3.747,0,0,1,0,3.719,3.435,3.435,0,0,1-1.364,1.28,4.48,4.48,0,0,1-3.959,0Zm3.263-1.729a2.235,2.235,0,0,0,0-2.82,1.685,1.685,0,0,0-1.281-.527,1.708,1.708,0,0,0-1.287.527,2.214,2.214,0,0,0,0,2.82,1.712,1.712,0,0,0,1.287.527A1.688,1.688,0,0,0,1370.977,126.316Z"/><path d="M1382.008,118.756V128.4h-1.938V127.6a2.671,2.671,0,0,1-2.183.909,3.629,3.629,0,0,1-1.788-.441,3.158,3.158,0,0,1-1.254-1.261,4.187,4.187,0,0,1,0-3.8,3.151,3.151,0,0,1,1.254-1.261,3.64,3.64,0,0,1,1.788-.442,2.656,2.656,0,0,1,2.092.845v-3.394Zm-2.5,7.56a2.214,2.214,0,0,0,0-2.82,1.82,1.82,0,0,0-2.562,0,2.214,2.214,0,0,0,0,2.82,1.82,1.82,0,0,0,2.562,0Z"/><path d="M1390.691,125.478H1385.4a1.642,1.642,0,0,0,.676,1.026,2.235,2.235,0,0,0,1.326.377,2.671,2.671,0,0,0,.969-.162,2.347,2.347,0,0,0,.786-.513l1.079,1.169a3.626,3.626,0,0,1-2.885,1.131,4.563,4.563,0,0,1-2.094-.461,3.371,3.371,0,0,1-1.4-1.28,3.514,3.514,0,0,1-.495-1.859,3.567,3.567,0,0,1,.488-1.853,3.417,3.417,0,0,1,1.339-1.287,4.146,4.146,0,0,1,3.763-.019,3.232,3.232,0,0,1,1.307,1.267,3.786,3.786,0,0,1,.474,1.918Q1390.73,124.971,1390.691,125.478Zm-4.745-2.249a1.658,1.658,0,0,0-.572,1.065h3.445a1.673,1.673,0,0,0-.572-1.059,1.708,1.708,0,0,0-1.143-.4A1.749,1.749,0,0,0,1385.946,123.229Z"/><path d="M1397.743,127.955a4.51,4.51,0,0,1-1.767-1.678,4.886,4.886,0,0,1,0-4.849,4.514,4.514,0,0,1,1.767-1.677,5.644,5.644,0,0,1,4.667-.188,4.279,4.279,0,0,1,1.606,1.2l-1.352,1.247a2.907,2.907,0,0,0-2.288-1.065,3.039,3.039,0,0,0-1.508.37,2.637,2.637,0,0,0-1.034,1.034,3.258,3.258,0,0,0,0,3.016,2.634,2.634,0,0,0,1.034,1.033,3.039,3.039,0,0,0,1.508.371,2.89,2.89,0,0,0,2.288-1.079l1.352,1.248a4.225,4.225,0,0,1-1.612,1.209,5.354,5.354,0,0,1-2.145.416A5.239,5.239,0,0,1,1397.743,127.955Z"/><path d="M1412.153,121.409V128.4h-1.924v-.832a2.664,2.664,0,0,1-.961.7,3.034,3.034,0,0,1-1.209.24,2.972,2.972,0,0,1-2.184-.793,3.155,3.155,0,0,1-.807-2.352v-3.952h2.029v3.653q0,1.691,1.417,1.689a1.521,1.521,0,0,0,1.17-.474,2,2,0,0,0,.442-1.41v-3.458Z"/><path d="M1419.947,121.753a3.231,3.231,0,0,1,1.255,1.261,4.159,4.159,0,0,1,0,3.783,3.225,3.225,0,0,1-1.255,1.261,3.562,3.562,0,0,1-1.774.448,2.7,2.7,0,0,1-2.107-.844v3.263h-2.027v-9.516h1.937v.805a2.692,2.692,0,0,1,2.2-.909A3.573,3.573,0,0,1,1419.947,121.753Zm-.844,4.563a2.238,2.238,0,0,0,0-2.82,1.82,1.82,0,0,0-2.562,0,2.238,2.238,0,0,0,0,2.82,1.82,1.82,0,0,0,2.562,0Z"/></g></g><rect class="b" width="6.528" height="38.407" transform="translate(1172.079 69.059)"/><rect class="b" width="25.351" height="6.637" transform="translate(1172.079 84.835)"/><rect class="b" width="6.419" height="38.407" transform="translate(1191.011 69.059)"/><rect class="b" width="6.637" height="24.263" transform="translate(1218.864 83.203)"/><ellipse class="b" cx="11.995" cy="12.132" rx="11.995" ry="12.132" transform="translate(1201.51 83.203)"/><circle class="c" cx="5.357" cy="5.357" r="5.357" transform="translate(1208.149 89.978)"/><path class="d" d="M1245.385,91.417l4.449-4.659a11.891,11.891,0,0,0-8.482-3.553,12.132,12.132,0,0,0,0,24.263,14.267,14.267,0,0,0,3.152-.423,12.2,12.2,0,0,0,5.392-3.193l-4.372-4.586a6.22,6.22,0,0,1-3.832,1.429,5.832,5.832,0,0,1-5.667-3.928A5.55,5.55,0,0,1,1238,90.909a5.938,5.938,0,0,1,4.9-.955,9.373,9.373,0,0,1,2.483,1.464Z"/><path class="e" d="M1250.134,103.6"/><path class="e" d="M1250.134,87.07"/><path class="d" d="M1259.707,107.468h-6.679V69.116h6.679Z"/><path class="e" d="M1253.029,98.623"/><path class="e" d="M1270.039,92.894"/><path class="e" d="M1259.708,99.686"/><g class="f"><path class="d" d="M1261.829,96.433l2.923-.049a13.38,13.38,0,0,0,5.349-3.211c-.606-.558-4.437-4-8.463-3.475a10.851,10.851,0,0,0-2.07.524,10.267,10.267,0,0,0-4.257,3.052l-1.341,2.091-.935,3.191V107.4h6.679c-.021-3.76.013-6.567,0-7.791h0a4.024,4.024,0,0,1,.451-1.943A2.98,2.98,0,0,1,1261.829,96.433Z"/><path class="d" d="M1263.87,89.776a3.571,3.571,0,0,0,2.11-1.985,2.643,2.643,0,0,0,.138-.737V83.275h6.588v5.3a7.953,7.953,0,0,1-.944,2.35,10.7,10.7,0,0,1-1.662,2.249c-.425-.391-.839-.73-1.228-1.022a15.323,15.323,0,0,0-1.517-1.006,13.181,13.181,0,0,0-1.868-.905A11.622,11.622,0,0,0,1263.87,89.776Z"/><path class="d" d="M1265.815,98a3.767,3.767,0,0,1,.154.4,3.18,3.18,0,0,1,.122.572V107.4h6.616V98.971a7.659,7.659,0,0,0-2.606-5.8,13.369,13.369,0,0,1-5.349,3.211A9.994,9.994,0,0,1,1265.815,98Z"/></g><rect class="g" width="6.637" height="24.263" transform="translate(1293.995 83.204)"/><ellipse class="g" cx="11.995" cy="12.132" rx="11.995" ry="12.132" transform="translate(1276.641 83.204)"/><circle class="c" cx="5.357" cy="5.357" r="5.357" transform="translate(1283.28 89.98)"/><rect class="h" width="6.637" height="38.353" transform="translate(1390.614 69.116)"/><ellipse class="h" cx="11.995" cy="12.132" rx="11.995" ry="12.132" transform="translate(1373.26 83.205)"/><circle class="c" cx="5.357" cy="5.357" r="5.357" transform="translate(1379.899 89.981)"/><rect class="i" width="6.637" height="24.265" transform="translate(1362.562 83.203)"/><rect class="i" width="6.637" height="6.637" transform="translate(1362.562 69.303)"/><path class="j" d="M1324.956,74.578v32.7h-6.637V75.535h-2.681V69.266h5.067a7.382,7.382,0,0,1,2.577,1.81A10.489,10.489,0,0,1,1324.956,74.578Z"/><path class="j" d="M1330.739,84.93h-12.42v6.659h12.42a12.181,12.181,0,0,0,6-2.8,11.537,11.537,0,0,0,3.946-7.071,11.684,11.684,0,0,0-5.591-11.264,10.3,10.3,0,0,0-2.868-1.141l-16.591-.052V75.53l14.753.1c.506.127,3.237,2.357,3.42,4.28C1333.74,82.046,1333.59,83.076,1330.739,84.93Z"/><path class="k" d="M1350.741,107.469h-6.635V83.206h6.638v24.263Z"/><path class="i" d="M1354.971,90.263l4.323-4.172a7.677,7.677,0,0,0-2.94-2.306,8.382,8.382,0,0,0-6.685.187,10.178,10.178,0,0,0-4.322,4.1,13.021,13.021,0,0,0-1.244,2.452v16.944h6.638V91.592a2.786,2.786,0,0,1,1.477-1.68,2.738,2.738,0,0,1,1.928-.093Z"/><path class="h" d="M1425.244,93.817a12.005,12.005,0,1,0-11.9,13.63c3.838,0,7.47-1.3,9.665-4.138l-3.737-4.672a9.831,9.831,0,0,1-4.4,2.057,6.356,6.356,0,0,1-5.289-1.545,5.457,5.457,0,0,1-1.12-6.215,5.287,5.287,0,0,1,5.173-3.011,6.554,6.554,0,0,1,4.633,3.243,12.058,12.058,0,0,1,1.2,2.762Z"/><path class="h" d="M1423.124,88.292l2.557,5.414-21.788,9.081-2.354-5.309Z"/></g></svg>