<svg xmlns="http://www.w3.org/2000/svg" width="319.32" height="202.206" viewBox="0 0 319.32 202.206"><defs><style>.a{isolation:isolate;}.b{fill:#634444;}.c{fill:#7a5959;}.d{fill:#8883df;}.e{fill:#e1e6f9;}.f{fill:#e03a6c;}.g{fill:#8739e5;}.ah,.ao,.h{fill:none;stroke-miterlimit:10;}.h{stroke:#6864df;}.ah,.h{stroke-width:0.506px;}.i{fill:#b78876;}.j{fill:#aa6550;}.k{fill:#e0e0e0;}.l{fill:#e8505b;}.m{fill:#a86a60;}.n{fill:#455a64;}.o{fill:#f63434;}.p{fill:#263238;}.q{fill:#fafafa;}.r{fill:#48c2c7;}.s{fill:#e67b47;}.t{fill:#e8d56f;}.u{fill:#5595f6;}.v{fill:#454fb4;}.w{fill:#4d4d4d;}.x{fill:#d47446;stroke:#000;}.y{fill:#eb996e;}.z{fill:#363f3f;}.aa{opacity:0.6;}.ab{fill:#fff;}.ac{fill:#0aff86;}.ad{opacity:0.3;}.ae{fill:#ffbe9d;}.af{fill:#ebebeb;}.ag{fill:#ff8074;}.ah{stroke:#9a4131;}.ai{fill:#64c6ec;}.aj{fill:#995037;}.ak{fill:#d40077;}.al{fill:#af0068;}.am{fill:#320094;}.an{opacity:0.2;}.ao{stroke:#839198;}.ap{fill:#612be2;}.aq{fill:#ed74ff;}</style></defs><g class="a" transform="translate(-1.093 -1.303)"><g transform="matrix(0.999, -0.035, 0.035, 0.999, 237.687, 2.709)"><g transform="translate(0 0)"><path class="b" d="M8.068,0S1.955,1.736,1.586,2.966c-.354,1.155,1.848.245,1.848.245S-.362,7.033.028,7.775C.7,9.079,5.433,9.894,9,1.886" transform="translate(14.032 68.579)"/><g transform="translate(0 0)"><path class="b" d="M21.249,0a37.148,37.148,0,0,0-1.255,6.963C15.655,22.209.928,37.072.928,37.072L0,40.468s18.516-5.52,32-34C28.021,4.993,24.746,2.28,21.249,0Z" transform="translate(0 25.237)"/><path class="b" d="M26.8,20.767C21.134,5.666,14.054,3.551,14.054,3.551A34.334,34.334,0,0,0,8.285,0C5.416,3.032,2.16,5.768,0,9.42c.083.059.162.118.245.177,0,11.176,15.931,22.047,11.329,56.478s4.6,56.779,4.6,56.779h3.988S21.136,98.4,26.8,76.646,32.463,35.868,26.8,20.767Z" transform="translate(17.472 24.402)"/><path class="b" d="M10.59,0a96.96,96.96,0,0,1,7.183,34.4c0,17.949,20.675,38.682,20.675,38.682l-2.725,2.325S0,64.109,0,23.879" transform="translate(37.637 61.482)"/><g transform="translate(19.135 2.429)"><rect class="b" width="8.534" height="8.436" transform="translate(4.254 13.382)"/><path class="c" d="M16.581,8.8c0,4.862-6.809,6.757-11.15,6.757S0,13.354,0,8.5,4.4,0,8.735,0,16.581,3.938,16.581,8.8Z" transform="translate(0 0)"/></g><path class="d" d="M9.873,0S24.4,12.334,22.768,44.862C15.96,48.58,0,48.078,0,48.078Z" transform="translate(37.636 57.551)"/><path class="d" d="M5.379,3.486A51.7,51.7,0,0,0,25.23,0c6.924,26.332,1.576,51.367,1.576,51.367S12.8,55.953,0,48.9C4.628,13.495,5.379,3.486,5.379,3.486Z" transform="translate(22.277 57.551)"/><path class="e" d="M15.924,1.515s16.744,8.123,20.3,38.909c-18.506,6.855-26.8,3.6-26.8,3.6h0a54.469,54.469,0,0,0-7.486-22.42A15.2,15.2,0,0,1,.014,13.587C.014,2.669,5.144-2.891,15.924,1.515Z" transform="translate(16.001 23.072)"/><path class="b" d="M.871,44.763s14.9-21.779,1.123-34.241A6.561,6.561,0,0,1,.427,3.442h0C1.555.494,4.513-.812,7.035.524A5.066,5.066,0,0,1,8.362,1.55c4.441,4.756,9.769,12.745,8.1,22.58C14.872,33.683,9.791,41.919,2.556,46.673Z" transform="translate(18.204 26.21)"/><path class="f" d="M8.885.2S1.794-1.29.312,3.8s2.612,2.213,6,4.246-2.221,2.237.233,10.512,14.028,4.089,14.028-4.188S16.6.2,8.885.2Z" transform="translate(19.713 0)"/><path class="f" d="M5,.459c4.439,1.074,7.779,4.206,8.615,8.079,1.52,6.682,9.937,7.915,9.937,12.834s5.261,11.619-2.107,13.118c-4.866.994-9.755-1.564-10.921-5.715a6.631,6.631,0,0,1,.049-3.769c1.4-5.2-3.506-2.4-5.025-6.693S-2.284,8.662.872,3.464,5,.459,5,.459Z" transform="translate(32.636 16.802)"/><path class="f" d="M.961,2.578s-2.756,9.856,1.065,10.907S6.631,2.6,5.99,1.327A2.573,2.573,0,0,0,3.847,0,3.628,3.628,0,0,1,.961,2.578Z" transform="translate(71.433 134.017)"/><path class="f" d="M8.16.217S-1.71,5.855.26,8.843,12.3,3.52,12.847,2.213A1.956,1.956,0,0,0,12.33,0,4.473,4.473,0,0,1,8.16.217Z" transform="translate(25.345 146.494)"/><path class="c" d="M1.342.208S4.63-.934,3.52,2.131A2.3,2.3,0,0,1,.888,3.842,2.615,2.615,0,0,1,0,3.576" transform="translate(24.718 10.618)"/><path class="g" d="M6.78,1.65S3.093.4,0,4.322C.862-1.476,6.415.236,6.415.236Z" transform="translate(33.509 20.061)"/><path class="h" d="M.973,0S6.161,10.461,0,33.118" transform="translate(50.083 69.381)"/></g></g></g><g transform="matrix(0.999, -0.035, 0.035, 0.999, 118.776, 2.704)"><g transform="translate(0 0)"><path class="i" d="M0,0,1.028,8.38l2.734.369L5.508,7.261,4.691.164Z" transform="translate(5.307 163.666)"/><g transform="translate(54.991 20.617)"><g transform="translate(0 0)"><path class="i" d="M8.1,7.985h0c1.122-1.622,1.738-2.841,2.53-3.864.976-1.261,1.291-1.85,1.043-2.017-.331-.224-.194-.153-2.294,1.887,0,0,2.973-2.937,1.829-2.808-.507.058-3,2.474-3,2.474C10.388,1.9,10.932.893,10.649.578c-.41-.458-3.416,2.5-3.416,2.5A31.61,31.61,0,0,0,9.859.353c.289-.514-.413-.387-.963-.117-.617.3-3.952,2.577-4.949,3.183a.687.687,0,0,1-1.024-.208A4.345,4.345,0,0,0,.543.63a.518.518,0,0,0-.367.915,6.323,6.323,0,0,1,.894,1.463A4.054,4.054,0,0,1,1.451,4.32c.058.529.087.979.1,1.362L.04,14.118,5.357,17.86Z"/></g><g transform="translate(8.139 2.383)"><g transform="translate(0 0)"><path class="j" d="M0,2.865A7.625,7.625,0,0,0,1.5,1.528,7.564,7.564,0,0,0,2.808,0a7.713,7.713,0,0,0-1.5,1.339A7.672,7.672,0,0,0,0,2.865Z"/></g></g><g transform="translate(7.271 1.652)"><g transform="translate(0 0)"><path class="j" d="M0,2.872A8.742,8.742,0,0,0,1.678,1.537,8.621,8.621,0,0,0,3.176,0,8.728,8.728,0,0,0,1.5,1.338,8.628,8.628,0,0,0,0,2.872Z"/></g></g><g transform="translate(6.373 1.088)"><g transform="translate(0 0)"><path class="j" d="M0,2.679A7.789,7.789,0,0,0,1.61,1.441,7.871,7.871,0,0,0,3.041,0,7.79,7.79,0,0,0,1.434,1.241,7.867,7.867,0,0,0,0,2.679Z"/></g></g></g><path class="i" d="M.6,0,0,9.129l3.019.322L4.765,7.963,6.1.941Z" transform="translate(24.952 163.163)"/><g transform="translate(19.357 2.608)"><g transform="translate(0 0)"><path class="i" d="M7.22.024a7.825,7.825,0,0,1,8.411,7.19c0,.046.007.092.01.138.219,3.635.417,7.565.393,9.546-.052,4.25-4.3,4.912-4.3,4.912s.609,7.384.546,8.577L1.029,30.9.008,8.18A7.828,7.828,0,0,1,7.22.024Z"/></g></g><g transform="translate(8.284 28.674)"><g transform="translate(0 0)"><g transform="translate(0 0.219)"><g transform="translate(0 0)"><path class="i" d="M17.781,0,12.918,12.38.362,1.147C-.15,6.339-.515,11.51,2.148,16.247c5.2,5.053,10.944,9.243,15.139,6.645,3.489-2.161,6.94-21.338,6.94-21.338Z" transform="translate(29.917 0.54)"/><path class="i" d="M4.567,0A10,10,0,0,0,0,5.44L5.355,17.792c.562-1.085,1.124-1.672,1.686-2.8A21.425,21.425,0,0,0,4.567,0Z" transform="translate(0 2.227)"/><path class="k" d="M29.291,41.412c-1.148-5.03-.347-20.032-.589-24.637l.013.013c-2.663-4.738-2.3-9.909-1.786-15.1l-.124-.111C25.456.588,23.13.465,21.361.246L21.227.23C20.541.147,20.2.05,19.792,0,16.735,2.3,11.505,2.445,8.5.074c0,0-2.276.515-3.634.775A11.452,11.452,0,0,0,1.217,2.227a21.425,21.425,0,0,1,2.474,15c-.562,1.124-1.124,1.711-1.686,2.8l0,.008L3.036,31.768.069,42.281a1.825,1.825,0,0,0,1.26,2.251,1.856,1.856,0,0,0,.265.054l26.549.4.434-.215A4.927,4.927,0,0,0,29.291,41.412Z" transform="translate(3.35 0)"/></g></g><g transform="translate(12.053)"><path class="l" d="M0,0"/></g></g><g transform="translate(42.557 12.897)"><g transform="translate(0 0)"><g transform="translate(0 0)"><path class="m" d="M.131,5.045A12.278,12.278,0,0,1,0,2.523,12.287,12.287,0,0,1,.131,0a12.367,12.367,0,0,1,.13,2.523A12.308,12.308,0,0,1,.131,5.045Z"/></g></g></g><g transform="translate(42.615 12.914)"><g transform="translate(0 0)"><path class="m" d="M1.843,5.352c.02.235-.353-.438-1.131-2.6A11.357,11.357,0,0,1,.01,0,24.463,24.463,0,0,1,.958,2.665,24.523,24.523,0,0,1,1.843,5.352Z"/></g></g></g><g transform="translate(0.365 70.364)"><g transform="translate(25.237 4.595)"><g transform="translate(0 0)"><path class="n" d="M2.46,0a9.769,9.769,0,0,1-.036,1.662c-.057,1.024-.155,2.436-.28,4-.069.781-.111,1.52-.208,2.2a4.242,4.242,0,0,1-.593,1.735,2.394,2.394,0,0,1-.907.842A.84.84,0,0,1,0,10.566,2.78,2.78,0,0,0,1.177,9.49a4.3,4.3,0,0,0,.507-1.667c.079-.662.116-1.411.185-2.189.125-1.559.254-2.969.361-3.989A10.027,10.027,0,0,1,2.46,0Z"/></g></g><path class="o" d="M7.591,0S.806,12.751.806,35.812s3.162,22.766,0,35.479a28.778,28.778,0,0,0,4,22.454H9.976s8.486-9.74,6.939-25.41c-.8-8.112,5.475-44.791,5.475-44.791s.815,23.207-.239,35.33-6.737,28.35,2.825,34.871h5.713s9.118-17.723,9.118-39.306S41.046,10.1,37.178,1.357A69.812,69.812,0,0,1,7.591,0Z" transform="matrix(0.999, 0.035, -0.035, 0.999, 3.272, 0)"/></g><g transform="translate(0 35.964)"><g transform="translate(0 0)"><path class="i" d="M20.493,19.584l-7.968.529L15.374,9.9l.034-.181c-.029.145-.052.29-.084.433.032-.143.055-.289.084-.433L8.375,0S.817,21.009.256,22.907c-1.507,5.107,3.917,9.587,8.659,8.547,1.429-.315,15.477-6.6,15.477-6.6Z"/></g><g transform="translate(12.519 19.982)"><g transform="translate(0 0)"><path class="p" d="M.125.167C.14.113.159.054.175,0L0,.01Z"/></g></g><g transform="translate(19.894 12.975)"><g transform="translate(0 0)"><g transform="translate(0.108 0)"><g transform="translate(0)"><path class="n" d="M1.123,6.227.014.833A.693.693,0,0,1,.554.014.685.685,0,0,1,.7,0L14.658.065a.692.692,0,0,1,.69.7.585.585,0,0,1,0,.078L13.9,13.2a.963.963,0,0,1-.964.852l-9.105-.071a.961.961,0,0,1-.926-.726Z"/></g></g><g transform="translate(0 3.387)"><g transform="translate(0 0)"><path class="i" d="M0,0H0A1.467,1.467,0,0,1,1.372.936a3.17,3.17,0,0,0,.934,1.495A3.313,3.313,0,0,0,4.8,2.8C5.423,2.493,7.915.249,8.352.5s.81.81.374,1.309S5.984,3.8,6.42,4.3s5.3-1.7,6.045-1.5,1.184.653.748.953S9.474,5.3,9.287,5.733c0,0,4.986-1.309,5.173-1s.5.81,0,1-4.8,1.309-5.173,1.5a9.043,9.043,0,0,1-1.922.561,20.6,20.6,0,0,0-2.009.637,4.4,4.4,0,0,1-3.1-.082l-.5-.205A1.98,1.98,0,0,1,.522,6.188l.1-1.7L.08,3.085Z"/></g></g></g><g transform="translate(7.365 1.571)"><g transform="translate(0 0)"><path class="q" d="M1.014.507A.507.507,0,1,1,.507,0a.507.507,0,0,1,.507.507Z"/></g></g></g></g><path class="r" d="M22.354,11.464s4.877-.149,4.224-4.134-6.935-2.213-7.826-5.192S10.92-1.1,7.745,3.91.76,5.56.047,12.764s6.973,8.459,6.973,8.459a4.6,4.6,0,0,0-1.654-3.59c-2.029-2.254.109-3.1,1.644-2.656,1.207,1.45,2.8.8,2.8-2.535S17.557,5.816,22.354,11.464Z" transform="translate(12.76 0)"/><path class="i" d="M3.1.284S-1.136-1.273.3,2.907a2.98,2.98,0,0,0,3.4,2.335,3.235,3.235,0,0,0,1.142-.361" transform="translate(16.626 14.691)"/></g><g transform="translate(22.748 37.399)"><path class="g" d="M0,.018l.05,0L.024,0Z" transform="translate(5.382 9.16)"/><path class="f" d="M3.183.105A2.669,2.669,0,0,0,0,1.591l4.565-.263A1.885,1.885,0,0,0,3.183.105Z" transform="translate(5.306 0)"/><path class="f" d="M1.232.208A1.884,1.884,0,0,0,0,1.581l4.565-.263A2.668,2.668,0,0,0,1.232.208Z" transform="translate(0.069 0.312)"/><path class="s" d="M.115,2.082,10,1.511A3.256,3.256,0,0,0,9.871,0L5.306.263a4.207,4.207,0,0,0-.3.706A4.054,4.054,0,0,0,4.634.3L.068.566A3.245,3.245,0,0,0,.115,2.082Z" transform="translate(0 1.327)"/><path class="t" d="M.6,2.055,9.46,1.543A5.859,5.859,0,0,0,9.885,0L0,.571A5.876,5.876,0,0,0,.6,2.055Z" transform="translate(0.115 2.838)"/><path class="r" d="M1.046,1.969l6.943-.4A8.792,8.792,0,0,0,8.861,0L0,.512A8.759,8.759,0,0,0,1.046,1.969Z" transform="translate(0.715 4.381)"/><path class="u" d="M1.514,1.832,5.6,1.6A11.261,11.261,0,0,0,6.943,0L0,.4A11.23,11.23,0,0,0,1.514,1.832Z" transform="translate(1.765 5.948)"/><path class="g" d="M4.082,0,0,.235A13.393,13.393,0,0,0,2.1,1.6l0,.033.024-.018.026.015,0-.033A13.539,13.539,0,0,0,4.082,0Z" transform="translate(3.278 7.545)"/></g><path class="v" d="M5.606.3s10.36,4.874,8.08,8.927S.814,4.78.181,3.007A2.974,2.974,0,0,1,.78,0,4.522,4.522,0,0,0,5.606.3Z" transform="translate(24.23 171.917) rotate(-19)"/><path class="v" d="M5.606.3S14.43,5.764,12.15,9.817.814,4.78.181,3.007A2.974,2.974,0,0,1,.78,0,4.522,4.522,0,0,0,5.606.3Z" transform="matrix(0.985, -0.174, 0.174, 0.985, 5.104, 169.829)"/></g><g transform="matrix(0.999, -0.035, 0.035, 0.999, 59.65, 94.104)"><rect class="w" width="7.375" height="79.743" transform="matrix(0.999, 0.052, -0.052, 0.999, 8.384, 28.827)"/><rect class="w" width="7.375" height="79.743" transform="translate(224.678 4.807) rotate(2)"/><rect class="w" width="7.375" height="59" transform="translate(184.797 21.853) rotate(2)"/><rect class="w" width="7.375" height="79.743" transform="matrix(0.999, 0.035, -0.035, 0.999, 53.397, 28.904)"/><path class="x" d="M57.549,17.218,238.716,0H181.468L0,17.219Z" transform="translate(0.205 2.305)"/><g transform="translate(0 2.304)"><path class="x" d="M0,34.9l177.009-17.66V0L0,17.239Z" transform="translate(62.384 0)"/><path class="x" d="M0,17.66H63.487L63.193,0H0Z" transform="translate(0 17.239)"/></g><path class="p" d="M22.633,7.683a2.9,2.9,0,0,1,.44.227,6.612,6.612,0,0,0,1.309.5A5.708,5.708,0,0,0,29.341,7.3l-.015.224A10.188,10.188,0,0,0,23.176,4.1a9.4,9.4,0,0,0-8,2.969,1.889,1.889,0,0,0-.619,1.15,1.338,1.338,0,0,0,.531,1.142,3.042,3.042,0,0,0,1.1.55l1.206.39a51.128,51.128,0,0,0,5.031,1.391,21.1,21.1,0,0,0,5.351.521,14,14,0,0,0,2.747-.375,11.54,11.54,0,0,0,1.367-.41,5.574,5.574,0,0,0,1.324-.612A4.825,4.825,0,0,0,34.93,9.043a3.777,3.777,0,0,0,.33-2.72,4.491,4.491,0,0,0-1.348-2.15A9.8,9.8,0,0,0,32.03,2.859,19.254,19.254,0,0,0,24.159.526,23.958,23.958,0,0,0,10.721,3.5,32.326,32.326,0,0,0,2.632,9.813c-.864.955-1.53,1.709-1.954,2.265l-.5.607A1.132,1.132,0,0,1,0,12.88a1.566,1.566,0,0,1,.154-.232L.631,12c.41-.582,1.064-1.362,1.92-2.345a31.778,31.778,0,0,1,8.084-6.487A23.977,23.977,0,0,1,24.177.067a19.379,19.379,0,0,1,7.979,2.338A10.071,10.071,0,0,1,34.1,3.76a4.941,4.941,0,0,1,1.485,2.391,4.467,4.467,0,0,1-.378,3.2,5.2,5.2,0,0,1-1.853,1.925,5.814,5.814,0,0,1-1.379.639,11.747,11.747,0,0,1-1.394.417,14.065,14.065,0,0,1-2.794.379,21.226,21.226,0,0,1-5.411-.537,50.733,50.733,0,0,1-5.052-1.416l-1.207-.4a3.3,3.3,0,0,1-1.187-.607,1.931,1.931,0,0,1-.5-.621,1.847,1.847,0,0,1-.181-.956A2.323,2.323,0,0,1,15,6.715a9.546,9.546,0,0,1,8.2-2.978,10.384,10.384,0,0,1,6.244,3.573l.115.13-.129.1a5.673,5.673,0,0,1-5.068,1.01A4.817,4.817,0,0,1,22.633,7.683Z" transform="translate(0.983 23.561)"/><path class="p" d="M9.842,0a3.194,3.194,0,0,1,.279.892,9.522,9.522,0,0,1,.188,2.657,15.745,15.745,0,0,1-2.761,7.728A16.7,16.7,0,0,1,4.97,14.408,10.509,10.509,0,0,1,2.482,16.13a8.873,8.873,0,0,1-1.8.646c-.434.089-.675.115-.679.082-.013-.091.951-.282,2.4-1.06a11.66,11.66,0,0,0,2.395-1.776,17.718,17.718,0,0,0,2.5-3.088,15.944,15.944,0,0,0,2.769-7.423A13.594,13.594,0,0,0,9.842,0Z" transform="translate(46.397 20.212)"/><path class="p" d="M14.244,0A5.562,5.562,0,0,1,14.2,1.132a17.888,17.888,0,0,1-.554,2.988,17.776,17.776,0,0,1-4.356,7.963,26.151,26.151,0,0,1-6.457,4.246c-.863.41-1.569.7-2.061.885a2.51,2.51,0,0,1-.775.23,3.268,3.268,0,0,1,.735-.416L2.753,16A30.385,30.385,0,0,0,9.1,11.665a18.123,18.123,0,0,0,4.318-7.678A32.124,32.124,0,0,0,14.244,0Z" transform="translate(35.01 19.753)"/><g transform="translate(39.937 0)"><g transform="translate(24.687 17.325)"><g transform="translate(0 0)"><path class="p" d="M24.786,0a1,1,0,0,1-.024.155c-.02.1-.047.248-.089.432a6.013,6.013,0,0,1-.492,1.347,2.68,2.68,0,0,1-1.073,1.143,3.192,3.192,0,0,1-1.606.333,6.709,6.709,0,0,1-2.007-.428,7.443,7.443,0,0,0-2.287-.513C15.614,2.456,14,3.707,12.424,5.5a63.272,63.272,0,0,1-4.456,5.062,6.9,6.9,0,0,1-2.114,1.366,3.585,3.585,0,0,1-1.971.163,5.14,5.14,0,0,1-2.9-2.069A9.617,9.617,0,0,1,0,8.425a.415.415,0,0,1,.067.094l.189.306A9.925,9.925,0,0,0,1,9.882a4.966,4.966,0,0,0,2.873,1.925A3.6,3.6,0,0,0,5.814,11.6,7.064,7.064,0,0,0,7.9,10.211c1.423-1.279,2.859-3.286,4.441-5.083S15.56,2.07,17.18,2.1a7.415,7.415,0,0,1,2.306.552,6.978,6.978,0,0,0,1.995.474,3.217,3.217,0,0,0,1.595-.27A2.513,2.513,0,0,0,24.14,1.8,7.74,7.74,0,0,0,24.786,0Z" transform="translate(0 0)"/></g></g><g transform="translate(0 16.923)"><g transform="translate(0 0)"><path class="p" d="M11.023,0a7.7,7.7,0,0,1-.292.861A14.835,14.835,0,0,1,9.8,2.845,9.345,9.345,0,0,1,8.17,4.954,4.588,4.588,0,0,1,5.907,6.138a5.013,5.013,0,0,1-4.4-1.945A6.483,6.483,0,0,1,.3,2.074a7.645,7.645,0,0,1-.24-.833A2.6,2.6,0,0,1,0,.921C.014.9.1,1.353.338,1.98a6.08,6.08,0,0,0,1.193,1.96,5.031,5.031,0,0,0,4.337,1.8A4.66,4.66,0,0,0,8.1,4.6a9.356,9.356,0,0,0,1.625-2A16.429,16.429,0,0,0,10.686.739,5.2,5.2,0,0,1,11.023,0Z"/></g></g><g transform="translate(54.543 15.169)"><g transform="translate(0 0)"><path class="p" d="M9.259,6.11a1.2,1.2,0,0,1,.2.164,2.32,2.32,0,0,0,.591.345c.505.182,1.3.186,2.031-1.064l.009.178A4.68,4.68,0,0,0,9.242,3.246c-1.094-.177-2.3.537-3.194,2.653a2.117,2.117,0,0,0-.182.936,1.549,1.549,0,0,0,.3.887,1.269,1.269,0,0,0,.505.4l.54.265A14.875,14.875,0,0,0,9.45,9.3a5.04,5.04,0,0,0,2.311.214,3.622,3.622,0,0,0,1.694-.776,2.18,2.18,0,0,0,.52-.535,3.735,3.735,0,0,0,.607-1.47,5.4,5.4,0,0,0-.049-2.171A4.684,4.684,0,0,0,13.811,2.9a5.47,5.47,0,0,0-.891-.972A5.844,5.844,0,0,0,9.412.373C7.19.227,5.313,1.523,3.906,3.235a20.136,20.136,0,0,0-3,5.31c-.3.789-.532,1.412-.674,1.87-.071.208-.127.373-.17.5A.932.932,0,0,1,0,11.076a1.537,1.537,0,0,1,.049-.19c.04-.133.092-.309.158-.529C.341,9.88.565,9.236.86,8.424A20.313,20.313,0,0,1,3.847,2.976c1.409-1.757,3.3-3.1,5.542-2.968a5.846,5.846,0,0,1,3.554,1.558,5.626,5.626,0,0,1,.92,1,5.17,5.17,0,0,1,.8,1.843,6.377,6.377,0,0,1,.061,2.55,4.046,4.046,0,0,1-.654,1.6,2.293,2.293,0,0,1-.542.558,3.553,3.553,0,0,1-.564.382A3.462,3.462,0,0,1,11.8,9.9a5.075,5.075,0,0,1-2.337-.224,14.932,14.932,0,0,1-2.247-.937l-.541-.27a1.405,1.405,0,0,1-.547-.438,1.752,1.752,0,0,1-.255-.474,2.676,2.676,0,0,1,.073-1.935C6.869,3.458,8.11,2.756,9.227,2.956s2.145,1.3,2.9,2.6l.058.1-.048.08c-.759,1.256-1.571,1.21-2.084.99A2.144,2.144,0,0,1,9.259,6.11Z"/></g></g><g transform="translate(87.644 10.108)"><g transform="translate(0 0)"><path class="p" d="M3.013,0a4.224,4.224,0,0,1,.181.7,14.006,14.006,0,0,1,.264,2.1,20.46,20.46,0,0,1-.637,6.236,14.835,14.835,0,0,1-.878,2.581A5.763,5.763,0,0,1,1,13.075a2.937,2.937,0,0,1-.722.579c-.178.086-.278.116-.283.09-.012-.072.385-.259.946-.93a6.842,6.842,0,0,0,.894-1.5,15.951,15.951,0,0,0,.85-2.544,20.551,20.551,0,0,0,.662-5.993A19.975,19.975,0,0,0,3.013,0Z"/></g></g><g transform="translate(107.441 11.613)"><g transform="translate(0 0)"><path class="p" d="M17.511,8.332c-.011.034-.222-.578-.678-1.387a4.42,4.42,0,0,0-2.083-2.1,1.661,1.661,0,0,0-1.425.235,2.57,2.57,0,0,1-1.646.56c-.632-.1-1.272-1.046-1.865-2.043A8.885,8.885,0,0,0,7.9,1.084a2.657,2.657,0,0,0-3.749.172A11.337,11.337,0,0,0,1.714,5.232,38.852,38.852,0,0,0,.431,9.02L.116,10.132A2.825,2.825,0,0,1,0,10.508a3.958,3.958,0,0,1,.089-.428c.063-.273.16-.667.291-1.164a36.185,36.185,0,0,1,1.252-3.9A11.6,11.6,0,0,1,4.083.909a2.7,2.7,0,0,1,3.836-.2A9.069,9.069,0,0,1,9.877,3.282c.592,1,1.2,1.894,1.788,1.995a2.542,2.542,0,0,0,1.613-.519,1.677,1.677,0,0,1,1.465-.19,4.682,4.682,0,0,1,2.117,2.258A9.379,9.379,0,0,1,17.511,8.332Z"/></g></g><g transform="translate(150.925 2.729)"><g transform="translate(0 0)"><path class="p" d="M19.027,0c0,.008-.026.177-.09.491s-.149.8-.3,1.342a30.434,30.434,0,0,1-1.395,4.322,20.359,20.359,0,0,1-2.657,4.778,9.267,9.267,0,0,1-1.822,1.846,4.47,4.47,0,0,1-2.135.948,5.936,5.936,0,0,1-4.379-1.952A20.664,20.664,0,0,1,2.815,7.45,32.712,32.712,0,0,1,.7,3.4C.461,2.884.294,2.421.174,2.131S0,1.672,0,1.664a3.753,3.753,0,0,1,.193.414c.126.272.3.716.541,1.212A33.785,33.785,0,0,0,2.858,7.219a20.5,20.5,0,0,0,3.416,4.215,5.9,5.9,0,0,0,4.321,1.9,4.458,4.458,0,0,0,2.106-.926A9.169,9.169,0,0,0,14.508,10.6a20.193,20.193,0,0,0,2.656-4.666,31.22,31.22,0,0,0,1.423-4.2c.156-.529.245-1,.322-1.29A3.882,3.882,0,0,1,19.027,0Z"/></g></g><g transform="translate(142.169 3.973)"><g transform="translate(0 0)"><path class="p" d="M12.02,0a1.082,1.082,0,0,1-.083.23c-.059.138-.144.35-.262.592a18.645,18.645,0,0,1-1.048,1.927A12.4,12.4,0,0,1,8.9,4.986,4.119,4.119,0,0,1,6.513,6.337C4.7,6.469,3,5.032,1.836,3.746A15.261,15.261,0,0,1,.476,1.978C.318,1.749.2,1.542.119,1.41A1.241,1.241,0,0,1,0,1.187a6.341,6.341,0,0,1,.5.659A17.125,17.125,0,0,0,1.86,3.491C3.018,4.7,4.7,6.072,6.478,5.942a4.132,4.132,0,0,0,2.352-1.3A12.685,12.685,0,0,0,10.559,2.5c.468-.711.83-1.349,1.073-1.809A5.468,5.468,0,0,1,12.02,0Z"/></g></g><g transform="translate(168.456 2.945)"><g transform="translate(0 0)"><path class="p" d="M11.1.258c0,.014-.048.019-.139.015l-.4-.032L10.271.208l-.34.023A3.29,3.29,0,0,0,9.109.34L8.636.451l-.5.206a7.113,7.113,0,0,0-1.091.585A11.857,11.857,0,0,0,4.7,3.466a21.4,21.4,0,0,0-2.088,3.3c-.288.616-.576,1.161-.812,1.767l-.351.848q-.158.435-.3.838c-.2.52-.356,1.047-.5,1.5l-.2.63L.3,12.913l-.214.772A1.243,1.243,0,0,1,0,13.938a1.921,1.921,0,0,1,.056-.3c.051-.223.114-.5.189-.822l.14-.59.189-.656c.136-.471.287-1.015.483-1.553.1-.276.194-.565.3-.864L1.7,8.275c.234-.623.521-1.183.809-1.813a20.6,20.6,0,0,1,2.1-3.36A11.109,11.109,0,0,1,6.983.888,6.48,6.48,0,0,1,8.089.333L8.6.147l.48-.086A2.989,2.989,0,0,1,9.914.009l.344.01.293.068.405.107C11.051.223,11.1.244,11.1.258Z"/></g></g><g transform="translate(178.691 0)"><g transform="translate(0)"><path class="p" d="M5.783,0A1.835,1.835,0,0,1,5.81.265c.01.173.035.433.042.759a25.692,25.692,0,0,1-.045,2.721,21.031,21.031,0,0,1-1.646,7.089,11.7,11.7,0,0,1-2.853,3.881c-.4.358-.722.618-.948.789s-.355.25-.36.224a1.7,1.7,0,0,1,.332-.372l.923-.906a13.416,13.416,0,0,0,2.8-3.941A21.1,21.1,0,0,0,5.7,3.641C5.875,1.483,5.746-.016,5.783,0Z"/></g></g><g transform="translate(102.734 9.087)"><g transform="translate(0 0)"><path class="p" d="M24.147,10.407A21.035,21.035,0,0,0,23.3,8.362a9.07,9.07,0,0,0-2.744-3.406,7.29,7.29,0,0,0-1.992-.949c-.716-.233-1.481-.4-2.292-.688a11.119,11.119,0,0,1-2.546-1.4A9.215,9.215,0,0,0,11.015.493c-1.852-.45-3.5.714-4.838,2.279a19.672,19.672,0,0,0-1.82,2.614c-.548.906-1.046,1.8-1.5,2.623-.9,1.656-1.608,3.06-2.1,4.035L.2,13.171l-.147.289c-.034.064-.052.093-.054.087a.634.634,0,0,1,.043-.121c.037-.086.082-.192.137-.321.121-.279.3-.682.541-1.189C1.2,10.9,1.894,9.459,2.787,7.769c.447-.843.941-1.749,1.488-2.67A19.879,19.879,0,0,1,6.1,2.434C7.447.837,9.114-.359,11,.1a9.179,9.179,0,0,1,2.736,1.447,11.4,11.4,0,0,0,2.529,1.412c.806.3,1.571.475,2.291.723a7.375,7.375,0,0,1,2.01,1.006,9.394,9.394,0,0,1,2.767,3.562A13.21,13.21,0,0,1,24.147,10.407Z"/></g></g><g transform="translate(79.347 10.306)"><g transform="translate(0 0)"><path class="p" d="M4.844,0A8.3,8.3,0,0,1,4.9.9c.024.578.025,1.408-.029,2.392a20.065,20.065,0,0,1-1.3,6.481,13.666,13.666,0,0,1-2.449,3.609,9.792,9.792,0,0,1-.815.779c-.2.164-.308.236-.313.212a1.564,1.564,0,0,1,.283-.357l.786-.894a16.413,16.413,0,0,0,2.4-3.673A20.191,20.191,0,0,0,4.77,3.2C4.905,1.288,4.812-.011,4.844,0Z"/></g></g><g transform="translate(42.487 13.282)"><g transform="translate(0 0)"><path class="p" d="M0,14.622a6.659,6.659,0,0,1,.227-.777c.153-.488.39-1.153.694-1.947a43.957,43.957,0,0,1,2.61-5.549C4.623,4.4,5.664,2.834,6.422,1.719c.38-.556.689-1,.9-1.292S7.665-.021,7.672,0a3.2,3.2,0,0,1-.308.561l-.874,1.4c-.74,1.177-1.769,2.783-2.855,4.72A51.608,51.608,0,0,0,1,12.116C.691,12.878.442,13.51.275,13.96A4.132,4.132,0,0,1,0,14.622Z"/></g></g><g transform="translate(28.177 16.745)"><g transform="translate(0 0)"><path class="p" d="M17.574.111A3.024,3.024,0,0,0,16.8.185,3.783,3.783,0,0,0,14.93,1.99a33.853,33.853,0,0,0-2.2,4.9,23.564,23.564,0,0,1-1.334,2.854,7.911,7.911,0,0,1-1.711,2.1,7.55,7.55,0,0,1-3.741,1.57c-1.183.2-2.258.227-3.147.4a6.46,6.46,0,0,0-2.064.736c-.235.143-.419.261-.54.353S0,15.029,0,15.016a.893.893,0,0,1,.177-.19,4.484,4.484,0,0,1,.53-.426,5.931,5.931,0,0,1,2.059-.864c.888-.214,1.963-.273,3.139-.489A7.733,7.733,0,0,0,9.61,11.461,7.847,7.847,0,0,0,11.3,9.409,23.438,23.438,0,0,0,12.621,6.6a31.452,31.452,0,0,1,2.24-4.86A3.414,3.414,0,0,1,16.78.031a1.379,1.379,0,0,1,.586,0C17.5.07,17.574.1,17.574.111Z"/></g></g><g transform="translate(156.003 1.771)"><g transform="translate(0 0)"><path class="p" d="M22.49.02C22.5.128,17.472.658,11.263,1.2S.009,2.1,0,1.987,5.017,1.348,11.228.805,22.481-.09,22.49.02Z"/></g></g></g></g><g transform="matrix(0.999, -0.035, 0.035, 0.999, 173.714, 37.222)"><g transform="translate(9.322 74.623)"><g transform="translate(0 0)"><path class="y" d="M9.336,0C8.965.094,8.6.2,8.24.335a12.253,12.253,0,0,0-6.278,5.3,14.266,14.266,0,0,0-1.481,10.9L17.416,58.812,23.058,55.3l-7.5-38.081,4.111-.413C13.579,13.85,12.872,5.511,9.336,0Z" transform="translate(0 5.128)"/><path class="k" d="M47.008.845,25.642,0V.845L.913,4.931C.6,4.983.3,5.052,0,5.128c3.536,5.511,4.243,13.85,10.33,16.809l36.678-2.692Z" transform="translate(9.336 0)"/></g><g transform="translate(17.416 0)"><path class="y" d="M.3,1.4l13.75,42.672,5.024-1.714L14.358,2.548C8.358,2.426,6,.224,0,0A14.288,14.288,0,0,0,.3,1.4Z" transform="translate(0.182 20.257)"/><path class="k" d="M43.645,20.178V1.776L34.979,0l0,.845L10.249,4.931a12,12,0,0,0-8.287,5.833,14.266,14.266,0,0,0-1.78,9.493c6,.224,12,2.406,18,2.529l-.092-.732Z" transform="translate(0 0)"/></g></g><g transform="translate(19.748 134.443)"><g transform="translate(0 0.613)"><g transform="translate(0 0)"><g transform="translate(0 0)"><g transform="translate(0.051 0)"><g transform="translate(0 0)"><path class="z" d="M7.4,13.31S-.482,20.616.023,22.5l15.005-7.251L12.582,0,6.323,2.5"/></g></g><g transform="translate(11.95 10.312)"><g transform="translate(0 0)"><path class="k" d="M.671.007a.793.793,0,0,1,.166,1.57A.829.829,0,0,1,0,.829C0,.418.373-.054.745.005"/></g></g><g class="aa" transform="translate(0 13.983)"><g transform="translate(0 0)"><path class="ab" d="M17.675,1.543,17.111,0,.445,7.262s-.66.684-.372,1.253Z"/></g></g><g transform="translate(7.133 13.043)"><g transform="translate(0 0)"><path class="p" d="M0,.283c.034.093.478-.034,1,.1s.88.442.945.373c.073-.05-.24-.562-.877-.713S-.044.2,0,.283Z"/></g></g><g transform="translate(5.565 14.775)"><g transform="translate(0 0)"><path class="p" d="M0,.117c.011.1.436.112.859.395s.647.67.731.632c.086-.017-.037-.592-.57-.933S-.027.027,0,.117Z"/></g></g><g transform="translate(4.102 16.35)"><g transform="translate(0 0)"><path class="p" d="M1.214,1.379C1.3,1.368,1.263.85.873.422S.011-.052,0,.04.329.311.646.668,1.126,1.4,1.214,1.379Z"/></g></g><g transform="translate(7.363 10.206)"><g transform="translate(0 0)"><path class="p" d="M.091.415c.495-.167.932-.139.95-.237S.584-.112,0,.081"/></g></g></g><g transform="translate(6.979 6.877)"><g transform="translate(0 0)"><path class="p" d="M0,.522A3.518,3.518,0,0,1,.449.15C.618.022.776-.042.855.03.883.058.89.071.871.146A1.055,1.055,0,0,1,.73.389,5.121,5.121,0,0,1,.36.865"/></g></g></g></g><g transform="translate(16.569 0)"><g transform="translate(0 0)"><g transform="translate(0.049 0)"><g transform="translate(0 0)"><path class="z" d="M3.8,2.327l3.6,9.8S-.482,19.435.023,21.318L14.355,15.17,9.627,0Z"/></g></g><g transform="translate(11.948 9.132)"><g transform="translate(0 0)"><path class="k" d="M.672.007a.784.784,0,0,1,.793.7.792.792,0,0,1-.628.868A.829.829,0,0,1,0,.828C0,.418.373-.055.745.005"/></g></g><g class="aa" transform="translate(0 12.802)"><g transform="translate(0 0)"><path class="ab" d="M17.674,1.544,17.111,0,.445,7.262s-.66.684-.372,1.253Z"/></g></g><g transform="translate(7.132 11.862)"><g transform="translate(0 0)"><path class="p" d="M0,.282c.034.093.478-.034,1,.1s.88.442.945.374c.073-.05-.24-.562-.876-.713S-.044.2,0,.282Z"/></g></g><g transform="translate(5.564 13.595)"><g transform="translate(0 0)"><path class="p" d="M0,.118c.01.1.435.112.859.394s.647.671.731.633c.086-.017-.037-.593-.569-.933S-.027.026,0,.118Z"/></g></g><g transform="translate(4.102 15.17)"><g transform="translate(0 0)"><path class="p" d="M1.214,1.378C1.3,1.367,1.263.85.872.421S.011-.053,0,.04.329.31.646.667,1.125,1.4,1.214,1.378Z"/></g></g><g transform="translate(6.531 9.025)"><g transform="translate(0 0)"><path class="p" d="M.009.785C.073.857.425.571.922.415s.932-.138.95-.237S1.416-.112.831.081-.057.728.009.785Z"/></g></g></g></g></g><g transform="translate(35.25 0)"><g transform="translate(0)"><g transform="translate(0.167 3.509)"><g transform="translate(0 0)"><path class="y" d="M16.889,6.249,15.208,21.326l2.613,6.956-10.343.4L5.331,23.249S.208,22.615,0,19.02C-.126,16.725,3.251,0,3.251,0Z"/></g></g><path class="p" d="M13.739,27.707a5.576,5.576,0,0,0,2.372-3.015c.535-1.5.881-3.088,1.493-4.558.641-1.544,1.563-2.933,2.194-4.481a6.762,6.762,0,0,0,.337-4.927,3.486,3.486,0,0,0-2.671-2.719s-1.384-4.226-4.56-4.621C8.588,2.847,8.737,1.457,5.919.277A2.675,2.675,0,0,0,2.263,1.718,4.4,4.4,0,0,0,.121,4.328L.11,4.374a4.3,4.3,0,0,0,1.76,4.54c.175.114.35.225.526.336a3.742,3.742,0,0,1,1.327,1.162,3.745,3.745,0,0,1,.161,2.707,8,8,0,0,0-.391,2.741c.039.314.205.688.5.671.345-.019.427-.521.53-.883a1.406,1.406,0,0,1,2.452-.583,1.8,1.8,0,0,1,.063,2.1c-.475.679-1.307,1.1-1.609,1.908-.507,1.355.765,2.94,1.193,3.84a5.94,5.94,0,0,0,.512.91,12.711,12.711,0,0,0,3.61,3.442,3.069,3.069,0,0,0,3.384.185"/></g></g><g transform="translate(0 34.575)"><g transform="translate(0 0)"><path class="y" d="M6.428,11.361h0c-1.815-.848-2.986-1.615-4.2-2.1C.726,8.665.146,8.3.267,8c.16-.4.082-.254,2.947.405,0,0-4.082-.981-3.046-1.53.459-.242,3.859.536,3.859.536C1.244,7.064.246,6.45.317,5.991c.1-.664,4.223.316,4.223.316A29.469,29.469,0,0,1,.865,5.322c-.519-.307.143-.6.752-.671C2.3,4.568,6.335,4.725,7.5,4.7A.733.733,0,0,0,8.258,4a.805.805,0,0,0,0-.084A5.116,5.116,0,0,1,8.89.13c.356-.353.914.066.8.633A7.563,7.563,0,0,0,9.714,2.64a4.758,4.758,0,0,0,.378,1.439c.234.524.449.958.642,1.321l5.782,6.927L14.02,18.9Z"/></g><g transform="translate(1.031 7.82)"><g transform="translate(0 0)"><path class="y" d="M3.9,1.03A7,7,0,0,1,1.92.667,7.114,7.114,0,0,1,0,.019,7.1,7.1,0,0,1,1.981.383,7.244,7.244,0,0,1,3.9,1.03Z"/></g></g><g transform="translate(1.063 6.845)"><g transform="translate(0 0)"><path class="y" d="M4.215.826A7.939,7.939,0,0,1,2.085.569,8.108,8.108,0,0,1,0,.025,8.009,8.009,0,0,1,2.131.282,8.12,8.12,0,0,1,4.215.826Z"/></g></g><g transform="translate(1.636 5.718)"><g transform="translate(0 0)"><path class="y" d="M4,.728A7.168,7.168,0,0,1,1.978.522,7.249,7.249,0,0,1,0,.028,7.182,7.182,0,0,1,2.02.234,7.228,7.228,0,0,1,4,.728Z"/></g></g></g><g transform="translate(8.258 29.52)"><g transform="translate(0 12.158)"><path class="ac" d="M4.317,0c.509-.078,17.309,14.267,17.309,14.267L10.9,18.944.032,7.133S-.653.751,4.317,0Z" transform="translate(0 0)"/></g><g transform="translate(10.003 0)"><g transform="translate(0)"><path class="ac" d="M48.639,6.527a15.587,15.587,0,0,0-9.216-6.4A4.434,4.434,0,0,0,38.354,0H24.061a9.575,9.575,0,0,0-6.947,3.025,37.251,37.251,0,0,0-5.49,7.747l-7.2,10.96L0,29.861.9,31.1a7.042,7.042,0,0,0,8.89,2.479,9.654,9.654,0,0,0,3.517-3.733c1.807-2.908,3.694-6.054,4.944-8.457l7.217,22.6L21.608,46.68l16.264,7.2,16.936-7.934L50.132,27.692l0,.008s7.416.789,8.1-2.4S52.067,11.971,48.639,6.527Z"/></g><g transform="translate(46.94 14.555)"><g transform="translate(0 0)"><path class="q" d="M.025.25C1.286,2.445,2.356,4.776,3.4,7.1c.137.3.541.038.412-.264A59.962,59.962,0,0,0,.293.079C.186-.1-.082.065.025.25Z"/></g></g><g transform="translate(50.302 13.235)"><g transform="translate(0 0)"><path class="q" d="M.025.251C1.286,2.445,2.355,4.776,3.4,7.1c.137.3.54.038.412-.265A60.156,60.156,0,0,0,.293.079C.186-.1-.082.065.025.251Z"/></g></g><g transform="translate(43.703 15.149)"><g transform="translate(0 0)"><path class="q" d="M.008.179C.721,3.214,1.286,6.295,1.74,9.388c.064.433.668.251.6-.182A66.047,66.047,0,0,0,.262.1.133.133,0,1,0,0,.164l0,.014Z"/></g></g><g transform="translate(36.04 15.986)"><g transform="translate(0 0)"><path class="q" d="M.008.208a40,40,0,0,1,1.4,9.128.306.306,0,0,0,.611.036c0-.012,0-.024,0-.036A33,33,0,0,0,.309.118.157.157,0,1,0,0,.2l0,.013Z"/></g></g><g transform="translate(39.885 14.687)"><g transform="translate(0 0)"><path class="q" d="M2.431,8.91A44.25,44.25,0,0,1,.579.305C.543-.092,0-.111,0,.305A18.524,18.524,0,0,0,2.128,9.05a.167.167,0,0,0,.3-.139Z"/></g></g><g transform="translate(32.628 16.274)"><g transform="translate(0 0)"><path class="q" d="M0,.164A42.662,42.662,0,0,0,1.154,8.846c.1.4.623.226.554-.167C1.208,5.824.73,2.989.3.12.273-.068,0-.022,0,.164Z"/></g></g><g transform="translate(28.512 16.802)"><g transform="translate(0 0)"><path class="q" d="M.007.151C.723,3.334,1.249,6.532,1.773,9.756a.253.253,0,0,0,.5-.073A56.484,56.484,0,0,0,.223.086.113.113,0,1,0,0,.14l0,.01Z"/></g></g><g transform="translate(24.763 17.507)"><g transform="translate(0 0)"><path class="q" d="M0,.188A41.777,41.777,0,0,0,.888,9.062c.075.315.475.174.434-.131C.93,6.01.46,3.147.354.188A.177.177,0,1,0,0,.167.127.127,0,0,0,0,.188Z"/></g></g><g transform="translate(12.599 17.5)"><g transform="translate(0 0)"><path class="q" d="M.167,8.313A63.054,63.054,0,0,0,6.256.4c.167-.238-.2-.548-.381-.322A63.42,63.42,0,0,0,.015,8.184c-.059.1.073.209.152.129Z"/></g></g><g transform="translate(9.912 15.809)"><g transform="translate(0 0)"><path class="q" d="M.222,7.419A27.658,27.658,0,0,0,5.444.391.254.254,0,0,0,5.017.117h0C3.463,2.6,1.731,4.856.034,7.212c-.1.146.055.329.188.205Z"/></g></g><g transform="translate(7.205 14.731)"><g transform="translate(0 0)"><path class="q" d="M4.514.046C3.019,1.884,1.472,3.686.058,5.6c-.189.255.129.622.336.368C1.9,4.127,3.275,2.16,4.7.244c.1-.137-.069-.335-.181-.2Z"/></g></g><g transform="translate(20.943 17.881)"><g transform="translate(0 0)"><path class="q" d="M.006.255C.644,3.2,1.022,6.2,1.611,9.153a.235.235,0,0,0,.463-.069A72.8,72.8,0,0,0,.366.146C.307-.109-.05,0,.006.255Z"/></g></g><g class="ad" transform="translate(30.392 24.469)"><g transform="translate(0 0)"><path d="M12.259,0A3.839,3.839,0,0,0,9.22,1.665,10.75,10.75,0,0,0,7.643,5.082a38.636,38.636,0,0,0-1.69,12.089c.025,1.253.041,2.7-.825,3.514-.743.7-1.844.649-2.758,1.04A4.242,4.242,0,0,0,.085,26.14l8.175,3.4Z"/></g></g></g><g transform="translate(36.788 43.388)"><g transform="translate(0 0)"><path class="p" d="M6.677.011a2.737,2.737,0,0,1-.931.395A9.891,9.891,0,0,1,.96.637,2.721,2.721,0,0,1,0,.334,30.726,30.726,0,0,0,3.353.513,30.052,30.052,0,0,0,6.677.011Z"/></g></g><g transform="translate(54.151 12.17)"><g transform="translate(0 0)"><path class="p" d="M2.677,4.669A12.689,12.689,0,0,1,1.224,2.416,13.142,13.142,0,0,1,.005,0,12.73,12.73,0,0,1,1.458,2.256,13.109,13.109,0,0,1,2.677,4.669Z"/></g></g><g transform="translate(11.319 20.299)"><g transform="translate(0 0)"><path class="p" d="M0,6.205A24.414,24.414,0,0,1,1.874,3.016,23.535,23.535,0,0,1,3.97,0,24.075,24.075,0,0,1,2.1,3.19,23.836,23.836,0,0,1,0,6.205Z"/></g></g><g transform="translate(21.872 15.935)"><g transform="translate(0 0)"><path class="p" d="M9.622,0A4.771,4.771,0,0,1,9.3.67c-.252.473-.57,1.071-.949,1.784-.813,1.5-1.958,3.559-3.28,5.794s-2.568,4.223-3.5,5.639C1.1,14.6.718,15.161.445,15.547A3.6,3.6,0,0,1,0,16.13a3.757,3.757,0,0,1,.357-.651l1.05-1.714c.89-1.446,2.108-3.449,3.428-5.682,1.291-2.216,2.458-4.219,3.345-5.74.427-.736.775-1.33,1.024-1.735A3.056,3.056,0,0,1,9.622,0Z"/></g></g></g><g transform="translate(15.777 46.07)"><g transform="translate(0 51.359)"><path class="n" d="M6.506,0,0,59.785H2.813L9.723,0Z" transform="translate(0 0)"/></g><g transform="translate(32.433 51.359)"><path class="n" d="M0,0,5.973,59.785H9.038L3.214,0Z" transform="translate(0 0)"/></g><g transform="translate(63.183 51.359)"><path class="n" d="M1.407,0,6.385,59.785H9.8L4.123,0H0"/></g><g transform="translate(35.647 0)"><path class="n" d="M12.327,0H36.436A4,4,0,0,1,40.15,4.693l-5.71,43.634a3.337,3.337,0,0,1-3.193,3.032H0Z" transform="translate(0 0)"/></g><g transform="translate(3.294 0)"><path class="n" d="M0,51.36C.062,50.7,0,47.4,0,47.4l29.9.614A4.726,4.726,0,0,0,34.516,43.8l5.96-39.885A4.394,4.394,0,0,1,44.679,0h0l-6.5,44.9a7.213,7.213,0,0,1-6.9,6.454Z" transform="translate(0 0)"/></g><g transform="translate(36.872 0)"><g transform="translate(0 0)"><path class="p" d="M11.1,0A.529.529,0,0,1,11.1.139l-.044.4q-.073.567-.2,1.546c-.187,1.367-.453,3.3-.779,5.678C9.385,12.579,8.442,19.185,7.4,26.481c-.534,3.652-1.042,7.13-1.505,10.3-.234,1.581-.456,3.084-.665,4.492a33.577,33.577,0,0,1-.726,3.9,11.211,11.211,0,0,1-1.232,3,7.239,7.239,0,0,1-1.542,1.818,4.955,4.955,0,0,1-1.249.767A2.393,2.393,0,0,1,0,50.9a6.217,6.217,0,0,0,1.661-1.015,9.127,9.127,0,0,0,2.653-4.781A34.651,34.651,0,0,0,5,41.233c.2-1.41.415-2.915.639-4.5.457-3.169.958-6.649,1.485-10.3L9.88,7.733c.363-2.371.658-4.3.867-5.663Q10.9,1.1,11,.532c.029-.16.053-.291.072-.4A.53.53,0,0,1,11.1,0Z"/></g></g></g></g><g transform="translate(41.926 20.463)"><g transform="matrix(0.999, -0.035, 0.035, 0.999, 0, 2.448)"><g transform="translate(0 6.68)"><g transform="translate(0 28.307)"><g transform="translate(0 0)"><path class="ae" d="M12.005,5.851A32.378,32.378,0,0,0,9.7,1.736,21.944,21.944,0,0,0,4.767.007c-.348.12-5.3,1.082-4.72,1.684s4.031-.119,4.031-.119l.468.233a20.707,20.707,0,0,0-3.607.933c-.575.357-.364,1.09.183,1.022a32.934,32.934,0,0,1,3.293-.525c.156.108-2.815.775-3.133.977-.428.272-.459,1.069.085,1.021C1.689,5.2,4.489,4.4,4.489,4.4A23.629,23.629,0,0,0,2.071,5.538a.424.424,0,0,0,.425.719c.33-.082,1.893-.887,2.336-.994,0,0,.416.108.807.973S8.772,9.262,8.772,9.262Z"/></g><g transform="translate(4.946 3.124)"><g transform="translate(0.114 0.116)"><path class="ae" d="M5.811,2.683A.962.962,0,0,1,4.657,2.7c-.357-.214-.633-.549-.975-.79C2.661,1.189,1.209,1.389.223.617.085.509-.052.332.02.17S.281,0,.441,0L4.532.034" transform="translate(0 0)"/></g><g transform="translate(0 0)"><path class="y" d="M4.646.151A1.57,1.57,0,0,0,4.2.1C3.919.083,3.507.066,3,.051L1.209.01.692,0a.791.791,0,0,0-.6.139.371.371,0,0,0-.061.4.731.731,0,0,0,.21.271,2.691,2.691,0,0,0,.518.32,15.27,15.27,0,0,0,2.128.593,3.014,3.014,0,0,1,.845.382c.24.164.442.364.647.529a1.406,1.406,0,0,0,1.156.4c.3-.066.4-.238.388-.238a1.171,1.171,0,0,1-.4.144A1.369,1.369,0,0,1,4.486,2.5c-.192-.167-.388-.377-.643-.563a3.13,3.13,0,0,0-.892-.43A17.662,17.662,0,0,1,.857.907,2.493,2.493,0,0,1,.388.62C.253.512.186.364.258.3.326.227.514.228.689.232h.517L3,.22C3.505.214,3.917.2,4.2.192A1.6,1.6,0,0,0,4.646.151Z"/></g></g><g transform="translate(0.056 1.4)"><g transform="translate(0 0)"><path class="y" d="M0,.3A2.2,2.2,0,0,0,.909.549,5.18,5.18,0,0,0,1.932.576C2.311.526,2.725.458,3.161.389L4.085.233l-.056,0A13.052,13.052,0,0,0,6.181.89,13.068,13.068,0,0,0,4.1.01L4.076,0,4.045.005,3.128.149,1.914.354A6.32,6.32,0,0,1,.923.378C.357.347.009.268,0,.3Z"/></g></g></g><g transform="translate(8.939 60.36)"><g transform="translate(0 0.357)"><path class="ae" d="M30.037.706,2.683,37.263a13.641,13.641,0,0,0-2,12.39L21.965,90.138l2.869-2.9L13.072,46.062,30.6,28.27,37.2,0Z" transform="translate(0 0)"/></g><path class="s" d="M9.769.307S-2.047,8.216.311,12.408,14.724,4.94,15.38,3.105A3.078,3.078,0,0,0,14.759,0,4.679,4.679,0,0,1,9.769.307Z" transform="translate(10.819 87.65)"/><g transform="translate(22.457 0)"><path class="ae" d="M4.283,98.753,0,98.6,9.236,8.783,9.842.843,24.868,0s5.25,8.489,5.5,13.684S16.7,55.229,16.7,55.229" transform="translate(0 0)"/></g></g><g transform="translate(7.807 24.967)"><g transform="translate(0 3.612)"><path class="af" d="M27.935,0,17.776,12.129,4.6,4.567,0,9.351l17.1,12.16,7.633-.124,6.51-13.316Z" transform="translate(0 0)"/></g><g transform="translate(24.221 0)"><path class="af" d="M22.694,0c-2.069,3.1-6.2,5.827-9.872,4.778C11.2,4.778,10,.593,10,.593S1.769,1.2,1.963,8.955L0,12.566,5.652,37.278l18.97-1.69,2.441-19.434,5.077-8.3S30.894.159,22.694,0Z" transform="translate(0 0)"/></g><g class="ad" transform="translate(28.459 27.263)"><g transform="translate(0 0)"><path d="M.56,6.3A9.628,9.628,0,0,0,9.05,4.613a2.96,2.96,0,0,1,1.129-.675,2.645,2.645,0,0,1,1.359.2,24.512,24.512,0,0,0,6.291,1.167A4.27,4.27,0,0,0,20.011,5,1.786,1.786,0,0,0,21.024,3.14,55.915,55.915,0,0,0,11.155.367,12.944,12.944,0,0,0,5.881.214,14.978,14.978,0,0,0,1.027,2.723,2.211,2.211,0,0,0,.062,3.758c-.3.91.586,1.859.4,2.8"/></g></g><g transform="translate(39.176 6.697)"><path class="af" d="M4.066.844c.532.5,7.59,13.051,7.59,13.051L.384,16.449,0,22.215l11.08,1.667,4.982.551a6.31,6.31,0,0,0,5.778-2.586h0a6.856,6.856,0,0,0,.792-6.643L16.878,0Z" transform="translate(0 0)"/></g><g transform="translate(39.56 20.542)"><g transform="translate(0 0)"><path class="p" d="M14.376.008c.013.078-3.195.723-7.163,1.44S.013,2.683,0,2.6s3.194-.722,7.165-1.439S14.363-.07,14.376.008Z"/></g></g><g transform="translate(46.178 4.738)"><g transform="translate(0 0)"><path class="p" d="M4.889,15.609,4.242,13.83C3.685,12.332,2.9,10.271,2.013,8L.758,4.8a5.964,5.964,0,0,1-.534-2.68A2.916,2.916,0,0,1,.917.457c.289-.324.512-.431.5-.455,0-.009-.061.014-.164.067A1.976,1.976,0,0,0,.842.378,2.9,2.9,0,0,0,.03,2.1,5.987,5.987,0,0,0,.52,4.9L1.756,8.107c.886,2.27,1.7,4.319,2.3,5.8l.728,1.746a3.325,3.325,0,0,0,.3.625A3.414,3.414,0,0,0,4.889,15.609Z"/></g></g><g transform="translate(39.176 28.911)"><g transform="translate(0 0)"><path class="p" d="M17.87,2.258a3.363,3.363,0,0,1-.71.028c-.456,0-1.116-.02-1.932-.062-1.63-.088-3.879-.3-6.345-.657S4.2.815,2.591.525L.691.167A3.4,3.4,0,0,1,0,0,3.349,3.349,0,0,1,.708.057C1.161.112,1.815.2,2.622.324c1.614.24,3.838.606,6.3.958s4.7.6,6.32.74l1.923.152A3.381,3.381,0,0,1,17.87,2.258Z"/></g></g><g transform="translate(26.539 9.845)"><g transform="translate(0 0)"><path class="p" d="M1.114,13.541a7.6,7.6,0,0,0-.3-2.091C.645,10.818.364,10.085.154,9.224a4.524,4.524,0,0,1-.148-1.4,5.978,5.978,0,0,1,.3-1.474A23.683,23.683,0,0,1,2.7,1.791L3.519.475A2.36,2.36,0,0,1,3.833,0a2.171,2.171,0,0,1-.22.531c-.164.33-.419.8-.746,1.367a28.3,28.3,0,0,0-2.3,4.547,5.908,5.908,0,0,0-.293,1.4A4.371,4.371,0,0,0,.4,9.163c.19.84.452,1.584.6,2.234a5.779,5.779,0,0,1,.2,1.57,2.522,2.522,0,0,1-.045.429C1.138,13.493,1.124,13.542,1.114,13.541Z"/></g></g><g class="ad" transform="translate(46.508 9.261)"><path d="M0,0C.06,3.767.7,6.887.764,10.653a2.479,2.479,0,0,0,.177,1.07c.405.814,1.327.575,2.209.519a8.275,8.275,0,0,0,1.349-.3,1.292,1.292,0,0,0-.112-.835C2.924,7.2,1.462,3.912,0,0"/></g></g><g transform="translate(14.263 40.387)"><g transform="translate(0 0)"><g transform="translate(0 0.407)"><path class="p" d="M0,.888,5.453,6.341l8.795,8.8,15.129-.783L17.131,0Z" transform="translate(0 0)"/></g><g transform="translate(0.656 0.476)"><path class="ag" d="M1.736.658s-3.953,1.817.07,4.968,9.536,4.323,10.379,6.6a3.941,3.941,0,0,1-.532,3.851l11.595-.528s3.44-3.081.874-5.833S14.819,3,14.035,1.932,15.132,0,15.132,0Z" transform="translate(0 0)"/></g><g transform="translate(5.608 0)"><path class="n" d="M.452.955,0,.4,6.254,0V.67Z" transform="translate(0 0)"/></g><g transform="translate(2.969 2.772)"><g transform="translate(0 0)"><path class="q" d="M10.705.016A7.181,7.181,0,0,1,9.151.263c-.965.107-2.3.224-3.783.309S2.543.688,1.57.666A6.444,6.444,0,0,1,0,.527,13.886,13.886,0,0,1,1.57.463C2.538.431,3.875.371,5.352.285L9.135.06A10.4,10.4,0,0,1,10.705.016Z"/></g></g><g transform="translate(4.76 4.573)"><g transform="translate(0 0)"><path class="q" d="M10.146.038A45.259,45.259,0,0,1,5.079.431,45.244,45.244,0,0,1,0,.537,45.228,45.228,0,0,1,5.066.144,45.071,45.071,0,0,1,10.146.038Z"/></g></g><g transform="translate(7.577 6.095)"><g transform="translate(0 0)"><path class="q" d="M10.011.017A7.172,7.172,0,0,1,8.559.284c-.9.123-2.151.264-3.535.376S2.384.832,1.475.854A7.084,7.084,0,0,1,0,.821,8.12,8.12,0,0,1,1.464.651L5,.374,8.539.082A7.954,7.954,0,0,1,10.011.017Z"/></g></g><g transform="translate(10.717 8.142)"><g transform="translate(0 0)"><path class="q" d="M8.692.028a33.376,33.376,0,0,1-4.335.5A33.289,33.289,0,0,1,0,.745a33.287,33.287,0,0,1,4.336-.5A33.232,33.232,0,0,1,8.692.028Z"/></g></g><g transform="translate(13.72 9.998)"><g transform="translate(0 0)"><path class="q" d="M8.415.022a31.439,31.439,0,0,1-4.193.6A31.355,31.355,0,0,1,0,.939a31.408,31.408,0,0,1,4.193-.6A31.339,31.339,0,0,1,8.415.022Z"/></g></g><g transform="translate(14.763 12.61)"><g transform="translate(0 0)"><path class="q" d="M8.645.024A5.318,5.318,0,0,1,7.39.242c-.779.093-1.86.19-3.055.252S2.054.572,1.27.56A5.366,5.366,0,0,1,0,.474,6.1,6.1,0,0,1,1.266.358L4.321.208,7.373.04A5.93,5.93,0,0,1,8.645.024Z"/></g></g></g><g transform="translate(17.586 6.025)"><g transform="translate(0 0)"><path class="ae" d="M15.138,7.367,12.266,6.9l-10.713.27S.993,7,1.479,6.683c.235-.155,4.174-1.167,4.174-1.167L0,5.988A7.678,7.678,0,0,1,2.155,3.317a14.478,14.478,0,0,1,4.021-1.6L4.462.368s5.6-.76,6.315-.1,1.593,1.692,1.593,1.692l3.092-.029"/></g><g transform="translate(0.107 5.121)"><g transform="translate(0 0)"><path class="y" d="M7.52.076c0,.082-1.69.139-3.762.346S.016.895,0,.813A4.034,4.034,0,0,1,1.078.522C1.752.387,2.689.239,3.732.136S5.724,0,6.409,0A4.057,4.057,0,0,1,7.52.076Z"/></g></g><g transform="translate(0.829 3.726)"><g transform="translate(0 0)"><path class="y" d="M6.47.021A18.84,18.84,0,0,1,3.254.637,18.911,18.911,0,0,1,0,.971,18.805,18.805,0,0,1,3.216.354,18.77,18.77,0,0,1,6.47.021Z"/></g></g></g></g><g transform="translate(37.999 0)"><g transform="translate(0)"><path class="ae" d="M13.106,1.8a1.645,1.645,0,0,1,1.523,1.62h0l.173,22.62c.094,2.667-3.586,4.368-6.34,4.451h0c-2.781.082-2.942-1.326-3.1-3.859-.271-4.233-.346-5.823-.347-5.8,0,0-3.539-.423-4.495-5.137A52.77,52.77,0,0,1,.009,6.3C.045,3.438,1.7-.154,4.45.005Z"/></g></g></g><path class="d" d="M13.525,3.767S6.9,2.308,5.013,9.8C3.5,15.836-3,17.347,1.647,21.99s4.439,5.717,12.608,5.064S27.532,31.4,28.924,23.961s-2.7-17.423-8.886-18.97C24.16.867,13.525-3.2,13.525,3.767Z" transform="translate(32.385 0)"/><g transform="translate(39.523 7.507)"><path class="ae" d="M0,10.244c0,5.658,2.814,9.3,7.116,9.3a8.822,8.822,0,0,0,8.472-9.16c0-.047,0-.1-.007-.142C15.581,4.586,12.093,0,7.791,0S0,4.586,0,10.244Z" transform="translate(0 0)"/></g><path class="d" d="M0,2.941A13.67,13.67,0,0,0,12.716,5.378c0,3.946,2.309,6-.974,9.285S8.684,23.6,15.575,20.349,17.8-8.547,0,2.941Z" transform="translate(39.523 6.512)"/><path class="ah" d="M0,.468A7.787,7.787,0,0,0,4.142,0" transform="translate(43.291 21.927)"/></g><path class="ai" d="M20.888.958,42.123.11c.383-1.435,10.52,11.258-1.219,30.977C34.566,41.731-.458,35.894,0,23.625" transform="matrix(0.999, -0.035, 0.035, 0.999, 18.316, 72.468)"/><path class="s" d="M9.769.307S-2.047,8.216.311,12.408,14.724,4.94,15.38,3.105A3.078,3.078,0,0,0,14.759,0,4.679,4.679,0,0,1,9.769.307Z" transform="matrix(0.999, -0.035, 0.035, 0.999, 27.171, 165.842)"/></g><g transform="matrix(0.999, -0.035, 0.035, 0.999, 0, 35.256)"><g transform="translate(0 0)"><g transform="translate(38.154 26.536)"><g transform="translate(22.05 0)"><g transform="translate(0 0)"><g transform="translate(0.643 0)"><g transform="translate(0 0)"><path class="n" d="M.483,0,0,1.581H7.675L7.267.5Z"/></g></g><g transform="translate(0.398 4.914)"><path class="p" d="M8.166.1,8.038,0H.123L0,.1Z" transform="translate(0 0)"/></g><g transform="translate(0.103 1.808)"><path class="p" d="M7.128,11.988,8.754,0H0L1.626,11.988A19.081,19.081,0,0,0,7.128,11.988Z" transform="translate(0 0)"/></g><g transform="translate(0 1.133)"><g transform="translate(0 0)"><path class="n" d="M8.96.856H0V.717A.717.717,0,0,1,.718,0H8.244a.717.717,0,0,1,.718.716h0Z"/></g></g><g transform="translate(0.396 5.018)"><path class="k" d="M7.541,4.68H.627L0,0H8.167Z" transform="translate(0 0)"/></g><g transform="translate(2.68 5.628)"><path class="p" d="M2.768,2.483c.447-.794.693-1.77-.2-2.336,0,0-.851-.551-1.787.48C.054,1.426-.289,2.36.3,3.077,1.008,3.943,2.321,3.277,2.768,2.483Zm-1.4-.126a1.9,1.9,0,0,0-.748.885c-.082-.571.16-.887,1-1.537A2.147,2.147,0,0,0,2.5.252c.448,1.075-.525,1.692-1.126,2.1Z" transform="translate(0 0)"/></g></g><g transform="translate(0.866 0.331)"><path class="p" d="M.159,0l1.5.216V.524H0Z" transform="translate(0 0)"/></g></g><g transform="translate(0 4.027)"><g transform="translate(0 0)"><path class="j" d="M25.735,4.2S12.884,17.12,11.743,17.484c0,0-3.9-7.6-4.251-7.871L0,13.824l4.4,9.421a7.005,7.005,0,0,0,11.89,2.039L28.91,10.4l2.549-2.822A6.632,6.632,0,0,0,32.465,5a4.55,4.55,0,0,0-.107-1.718,1.726,1.726,0,0,0-.071-1.332A.994.994,0,0,0,31.6,1.5c.557-1.38-.955-2.061-1.716-.92Z"/><g transform="translate(22.316 1.646)"><path class="j" d="M2.945,3.025A2.99,2.99,0,0,0,1.782,1.449,3.25,3.25,0,0,0,0,.751S.153-.174,1.68.029,3.614,1.218,5.5.751L5.9,2.51Z" transform="translate(0 0)"/></g><g transform="translate(29.987 1.268)"><g transform="translate(0 0)"><path class="aj" d="M1.731,0c.066.031-.15.581-.653,1.091S.035,1.836,0,1.771.413,1.382.881.9,1.661-.036,1.731,0Z"/></g></g><g transform="translate(31.224 3.255)"><g transform="translate(0 0)"><path class="aj" d="M1.081,0c.069.03-.043.42-.358.8s-.676.558-.718.5S.224.968.511.621,1.01-.031,1.081,0Z"/></g></g></g><g transform="translate(10.618 17.185)"><g transform="translate(0 0)"><path class="aj" d="M.051,5.476A8.654,8.654,0,0,1,.214,2.684,8.676,8.676,0,0,1,1.006,0c.077.024-.26,1.223-.52,2.732S.132,5.479.051,5.476Z"/></g></g></g></g><g transform="translate(0 27.44)"><g transform="translate(1.502 0)"><g transform="translate(0 0)"><g transform="translate(0)"><g transform="translate(0.643 0)"><g transform="translate(0 0)"><path class="n" d="M.483,0,0,1.581H7.675L7.267.5Z"/></g></g><g transform="translate(0.398 4.914)"><path class="p" d="M8.166.1,8.038,0H.123L0,.1Z" transform="translate(0 0)"/></g><g transform="translate(0.104 1.808)"><path class="p" d="M7.127,11.988,8.754,0H0L1.626,11.988A19.077,19.077,0,0,0,7.127,11.988Z" transform="translate(0 0)"/></g><g transform="translate(0 1.131)"><g transform="translate(0 0)"><path class="n" d="M8.96.857H0V.719A.719.719,0,0,1,.718,0H8.244A.717.717,0,0,1,8.96.718h0Z" transform="translate(0 0)"/></g></g><g transform="translate(0.396 5.018)"><path class="k" d="M7.541,4.68H.627L0,0H8.167Z" transform="translate(0 0)"/></g><g transform="translate(2.679 5.628)"><path class="p" d="M2.768,2.482c.447-.794.694-1.77-.2-2.335,0,0-.851-.551-1.787.48C.054,1.426-.29,2.36.3,3.077,1.009,3.943,2.322,3.277,2.768,2.482ZM1.373,2.356a1.9,1.9,0,0,0-.748.885c-.082-.572.159-.887,1-1.538A2.141,2.141,0,0,0,2.5.252c.447,1.075-.525,1.691-1.126,2.1Z" transform="translate(0 0)"/></g></g></g><g transform="translate(0.865 0.331)"><path class="p" d="M.16,0,1.655.217V.525H0Z" transform="translate(0 0)"/></g></g><g transform="translate(0 3.883)"><g transform="translate(1.407 4.491)"><path class="j" d="M1.222,23.311S-.3,21.509.094,8.675L0,1.8,5.982,0l4.132,23.2Z" transform="translate(0 0)"/></g><g transform="translate(0 0)"><g transform="translate(2.596 1.656)"><path class="j" d="M4.588,3.25a3.922,3.922,0,0,1,1.307-1.8,3.253,3.253,0,0,1,1.781-.7S7.524-.174,6,.029,4.062,1.218,2.179.751L0,4.649Z" transform="translate(0 0)"/></g><g transform="translate(0 0)"><path class="j" d="M5.191,2.725C5.1,2.481,1.983,0,1.983,0s-1.6.066-1,1.513a1.3,1.3,0,0,0-.6,1.936s-.7.5-.208,1.912A13.139,13.139,0,0,0,1.524,8.028Z"/></g></g><g transform="translate(2.338 16.438)"><path class="j" d="M3.7,0,.222,8.31a4.716,4.716,0,0,0,3.049,5.916h0a4.716,4.716,0,0,0,5.912-2.971l2.787-8.2Z" transform="translate(0 0)"/></g><g transform="translate(2.864 16.598)"><g transform="translate(0 0)"><path class="aj" d="M.007,7.473A4.689,4.689,0,0,1,.29,6.322c.216-.7.549-1.655.967-2.691S2.1,1.678,2.434,1.025A4.715,4.715,0,0,1,3.031,0a5.676,5.676,0,0,1-.42,1.107c-.284.671-.68,1.6-1.1,2.627S.737,5.7.475,6.385A5.559,5.559,0,0,1,.007,7.473Z"/></g></g><g transform="translate(3.155 17.832)"><g transform="translate(0 0)"><path class="aj" d="M2.174.044c.008.082-.6.164-1.189.576s-.9.932-.972.894C-.058,1.5.158.844.83.391A1.618,1.618,0,0,1,2.174.044Z"/></g></g></g></g><g transform="translate(7.595 0)"><g transform="translate(0 4.783)"><path class="ak" d="M12.5,0c.346,1-.838,1.85-1.868,2.086s-2.279.384-2.751,1.33c-.409.821.006,1.862-.367,2.7C6.809,7.71,3.947,7.376,3.385,9.028c-.384,1.133.679,2.3.546,3.492-.115,1.025-1.053,1.722-1.876,2.343S.366,16.338.5,17.361c.15,1.182,1.593,2,1.46,3.183C1.825,21.708.255,22.252.028,23.4c-.268,1.364,1.44,2.242,1.989,3.519.42.976.161,2.233.87,3.025.726.811,2.015.653,3.079.427l10.618-2.251c-.719-1.678-.043-3.643.98-5.155s2.386-2.787,3.265-4.387,1.168-3.74.017-5.157Z" transform="translate(0 0)"/></g><g transform="translate(29.004 10.575)"><g transform="translate(0 0)"><path class="p" d="M2.172,2.7a10.944,10.944,0,0,0-.348-1.676A1.679,1.679,0,0,0,1.4.334C1.19.135.917.261.744.547A4.36,4.36,0,0,0,.276,2.7,4.347,4.347,0,0,0,.744,4.852c.173.287.446.413.655.213a1.679,1.679,0,0,0,.425-.688A10.956,10.956,0,0,0,2.172,2.7a1.31,1.31,0,0,1,.036.469,4.5,4.5,0,0,1-.2,1.272,1.817,1.817,0,0,1-.463.8.57.57,0,0,1-.565.132.93.93,0,0,1-.448-.379A4.424,4.424,0,0,1,0,2.7,4.427,4.427,0,0,1,.533.407.932.932,0,0,1,.981.026a.572.572,0,0,1,.565.132,1.817,1.817,0,0,1,.463.8,4.5,4.5,0,0,1,.2,1.272A1.3,1.3,0,0,1,2.172,2.7Z"/></g></g><g transform="translate(10.647 0)"><g transform="translate(0 1.764)"><path class="ak" d="M3.206,21.289C1.285,18.044.735,13.72.249,9.98.021,8.219-.382,5.713.856,4.612,2.183,3.432,2.31,1.614,3.834.7A4.681,4.681,0,0,1,8.861.76Z" transform="translate(0 0)"/></g><g transform="translate(2.004 0)"><g transform="translate(0 0)"><g transform="translate(2.218 3.559)"><g transform="translate(0 0)"><path class="j" d="M4.306,30.991h0a5.21,5.21,0,0,0,5.606-4.78c.005-.066.009-.132.012-.2.117-2.834.221-5.7.221-5.7s4.3-.39,4.621-4.641.21-14.067.21-14.067h0A14.815,14.815,0,0,0,0,2.524L.222,17.488.2,25.539C.218,28.239,1.614,30.776,4.306,30.991Z"/></g></g><path class="ak" d="M12.761,14.028a2.18,2.18,0,0,0-2.9-.643,2.472,2.472,0,0,0-.832,3.088,3.253,3.253,0,0,0,2.081,1.583,1.633,1.633,0,0,1,1.274,1.763c-.125,1.066-1.9,1.462-2.706,2.343-1.25,1.37-3.987,1.943-5.83,2.156-1.812.209-1.593.227-2.643-1.265A5.708,5.708,0,0,1,.178,19.6Q.094,14.9.011,10.193A13.442,13.442,0,0,1,.234,6.818,4.532,4.532,0,0,1,2.022,4.033C3.059,3.356,4.369,3.3,5.548,2.924A29.086,29.086,0,0,0,9.655.778,5.042,5.042,0,0,1,14.107.36c.992.5,1.654,1.494,2.618,2.046,1.373.786,3.245.614,3.906,2.637A3.429,3.429,0,0,1,20.6,7.2a5,5,0,0,1-6.8,2.651,6.741,6.741,0,0,1-.089,2.974c-.159.47-.216,1.187-.951,1.2Z"/></g><g transform="translate(10.358 14.615)"><g transform="translate(0 0)"><path class="aj" d="M1.635,2.065c.017.006.017.08-.059.184a.638.638,0,0,1-.474.235A1.172,1.172,0,0,1,0,1.307a1.23,1.23,0,0,1,.315-.9A1.267,1.267,0,0,1,.984.027c.438-.09.69.072.672.1-.011.048-.262-.02-.613.107A1.064,1.064,0,0,0,.306,1.293a.989.989,0,0,0,.8.976C1.459,2.291,1.6,2.038,1.635,2.065Z"/></g></g></g></g><g transform="translate(25.42 13.051)"><g transform="translate(0 0)"><path class="p" d="M5.766.02a15.584,15.584,0,0,1-2.86.608A15.536,15.536,0,0,1,0,.963,15.525,15.525,0,0,1,2.861.355,15.534,15.534,0,0,1,5.766.02Z"/></g></g><g transform="translate(13.158 17.81)"><path class="ak" d="M1.037,9.391a1.234,1.234,0,0,0,1.477.593,3.532,3.532,0,0,0,1.429-.969,3.74,3.74,0,0,1,1.416-.99c1.134-.344,2.522.413,3.476-.291.869-.641.755-2.091,1.607-2.752.452-.351,1.084-.4,1.545-.737a2,2,0,0,0,0-2.85A5.8,5.8,0,0,0,9.137,0L0,3.894Z" transform="translate(0 0)"/></g><g transform="translate(3.636 10.691)"><g transform="translate(0 0)"><path class="al" d="M21.413,0s-.023.023-.076.056A2.445,2.445,0,0,1,21.1.191a4.918,4.918,0,0,1-1,.361,11.5,11.5,0,0,1-1.66.263,16.877,16.877,0,0,0-2.181.3A4.116,4.116,0,0,0,14,2.349a12.533,12.533,0,0,0-1.323,2.739,3.549,3.549,0,0,1-1.064,1.339,5.575,5.575,0,0,1-1.591.784A9.425,9.425,0,0,0,6.727,8.6,2.365,2.365,0,0,0,5.885,10.1a10.305,10.305,0,0,0,0,1.774,3.248,3.248,0,0,1-.341,1.753,3.243,3.243,0,0,1-1.232,1.189c-.955.563-1.957.86-2.756,1.37a3.221,3.221,0,0,0-.983.907A2.387,2.387,0,0,0,.2,18.257a8.1,8.1,0,0,0,.3,2.161A5.674,5.674,0,0,1,.648,22.1a2.387,2.387,0,0,1-.3,1.021,1.2,1.2,0,0,1-.231.291A2.539,2.539,0,0,0,.54,22.089a5.755,5.755,0,0,0-.2-1.636A8.037,8.037,0,0,1,0,18.246a2.581,2.581,0,0,1,.389-1.268,3.432,3.432,0,0,1,1.04-.986c.83-.539,1.835-.846,2.747-1.394a3,3,0,0,0,1.133-1.1,2.988,2.988,0,0,0,.3-1.618,10.236,10.236,0,0,1,0-1.823A2.641,2.641,0,0,1,6.549,8.4,9.5,9.5,0,0,1,9.936,6.954a5.361,5.361,0,0,0,1.518-.738,3.3,3.3,0,0,0,.994-1.242A12.269,12.269,0,0,1,13.826,2.2,4.284,4.284,0,0,1,16.213.926a16.007,16.007,0,0,1,2.21-.264A12.466,12.466,0,0,0,20.072.447,7.437,7.437,0,0,0,21.413,0Z"/></g></g><g transform="translate(10.433 12.184)"><g transform="translate(0 0)"><path class="al" d="M12.154.03c0,.03-.329,0-.89.128A4.038,4.038,0,0,0,9.216,1.382,3.717,3.717,0,0,0,8.4,2.81a6.423,6.423,0,0,0-.167,1.908A4.992,4.992,0,0,1,7.917,6.9a2.23,2.23,0,0,1-.8.9,9.756,9.756,0,0,1-1.053.563,2.744,2.744,0,0,0-.908.646,1.626,1.626,0,0,0-.357.978,5.375,5.375,0,0,1-.245,2.178,3.584,3.584,0,0,1-1.421,1.409c-.536.319-1.056.554-1.5.821a3.692,3.692,0,0,0-1.054.873,2.391,2.391,0,0,0-.454.92,2.153,2.153,0,0,0,.016.88.542.542,0,0,1-.093-.218,1.611,1.611,0,0,1-.028-.684,2.418,2.418,0,0,1,.436-.992,3.751,3.751,0,0,1,1.075-.945c.447-.284.965-.532,1.479-.849a3.4,3.4,0,0,0,1.312-1.324,5.326,5.326,0,0,0,.2-2.087,1.9,1.9,0,0,1,.416-1.134,2.989,2.989,0,0,1,1-.717A3.215,3.215,0,0,0,7.674,6.782a4.834,4.834,0,0,0,.3-2.063,6.484,6.484,0,0,1,.2-1.975A3.857,3.857,0,0,1,9.071,1.25a4,4,0,0,1,2.17-1.2A2.844,2.844,0,0,1,11.92,0,.743.743,0,0,1,12.154.03Z"/></g></g></g><g transform="translate(4.905 14.947)"><g transform="translate(0 12.674)"><g transform="translate(0 0)"><path class="k" d="M10.658,37.834l2.962-8.6L11.563,18.8,9.952,23.4,0,19.747S6.445,6.864,6.767,6.186C9.711,0,17.56,0,17.56,0l9.992.262A10.914,10.914,0,0,1,36.133,3.59c2.86,2.882,9.383,15.49,9.383,15.49L35,22.353l-2.08-3.887.6,8.2,2.069,12.5Z"/></g><g transform="translate(8.658 3.096)"><g transform="translate(0 0)"><path class="am" d="M27.106.138c0,.076-6.069.138-13.553.138S0,.214,0,.138,6.067,0,13.554,0,27.106.061,27.106.138Z" transform="translate(0 0)"/></g></g><g transform="translate(28.331 2.926)"><g transform="translate(0 0)"><path class="p" d="M3.19.009c0,.033-.28.043-.736.231A3.375,3.375,0,0,0,.933,1.6,4.524,4.524,0,0,0,.311,4.546a11.529,11.529,0,0,0,1.18,3.606c1.162,2.48,2.185,4.742,2.917,6.381l.851,1.949a3.937,3.937,0,0,1,.275.733,3.847,3.847,0,0,1-.382-.681l-.938-1.908c-.782-1.616-1.834-3.861-3-6.346A11.373,11.373,0,0,1,.032,4.573,4.672,4.672,0,0,1,.751,1.483,3.346,3.346,0,0,1,2.411.128,2.08,2.08,0,0,1,2.984,0,.563.563,0,0,1,3.19.009Z"/></g></g><g transform="translate(8.663 5.457)"><g transform="translate(0 0)"><path class="p" d="M5.054,24.245c-.082.017-1.279-5.4-2.673-12.091S-.078.017,0,0,1.283,5.395,2.678,12.092,5.136,24.228,5.054,24.245Z"/></g></g><g transform="translate(14.927 21.582)"><g transform="translate(0 0)"><path class="p" d="M13.8,0a2.582,2.582,0,0,1-.008.719,6.872,6.872,0,0,1-.48,1.9,9.278,9.278,0,0,1-4.369,4.66,12.869,12.869,0,0,1-6.3,1.264A15.02,15.02,0,0,1,.7,8.349,2.984,2.984,0,0,1,0,8.184c.007-.055,1.013.132,2.649.149a13.453,13.453,0,0,0,6.159-1.32,9.416,9.416,0,0,0,4.309-4.474A10.764,10.764,0,0,0,13.8,0Z"/></g></g><g transform="translate(6.015 7.578)"><g transform="translate(0 0)"><path class="am" d="M33.137.138c0,.076-7.419.138-16.568.138S0,.214,0,.138,7.417,0,16.569,0,33.137.062,33.137.138Z"/></g></g><g transform="translate(4.105 11.748)"><g transform="translate(0 0)"><path class="am" d="M37.5.138c0,.077-8.4.139-18.748.139S0,.214,0,.138,8.393,0,18.749,0,37.5.062,37.5.138Z"/></g></g><g transform="translate(2.077 15.568)"><g transform="translate(0 0)"><path class="am" d="M41.176.138c0,.076-9.218.138-20.587.138S0,.215,0,.138,9.216,0,20.588,0,41.176.062,41.176.138Z" transform="translate(0 0)"/></g></g><g transform="translate(1.077 17.776)"><g transform="translate(0 0)"><path class="am" d="M9.759,2.6a8.918,8.918,0,0,1-1.43-.389c-.875-.264-2.083-.623-3.43-.98S2.325.586,1.435.382A8.954,8.954,0,0,1,0,.01,7.088,7.088,0,0,1,1.474.19c.9.156,2.143.416,3.5.774s2.558.748,3.42,1.061A7.123,7.123,0,0,1,9.759,2.6Z"/></g></g><g transform="translate(11.555 19.338)"><g transform="translate(0 0)"><path class="am" d="M21.6.356a4.939,4.939,0,0,1-.85.026L18.437.358,10.8.278l-7.637,0H.85A4.935,4.935,0,0,1,0,.249,5.038,5.038,0,0,1,.848.176C1.394.147,2.184.116,3.162.087,5.117.03,7.819-.011,10.8,0s5.685.082,7.64.16c.977.038,1.768.077,2.314.112A5.027,5.027,0,0,1,21.6.356Z"/></g></g><g transform="translate(33.721 17.743)"><g transform="translate(0 0)"><path class="am" d="M11.116.042c0-.027.044,0-.053.015L10.74.119,9.549.327c-1.008.17-2.4.395-3.943.63s-2.943.437-3.956.569A9.816,9.816,0,0,1,0,1.684a9.765,9.765,0,0,1,1.62-.351C2.627,1.151,4.02.92,5.563.685S8.5.255,9.52.134c.508-.061.92-.1,1.207-.122C10.871,0,10.981,0,11.058,0c.041.009.062-.009.1.026C11.121.066,11.119.038,11.116.042Z"/></g></g><g transform="translate(12.5 23.256)"><g transform="translate(0 0)"><path class="am" d="M15.754.138c0,.076-3.527.138-7.877.138S0,.215,0,.138,3.527,0,7.877,0,15.754.062,15.754.138Z" transform="translate(0 0)"/></g></g><g transform="translate(27.971 24.53)"><g transform="translate(0 0)"><path class="am" d="M5.377.138A13.193,13.193,0,0,1,2.688.276,13.2,13.2,0,0,1,0,.138,13.2,13.2,0,0,1,2.688,0,13.2,13.2,0,0,1,5.377.138Z"/></g></g><g transform="translate(13.489 27.732)"><g transform="translate(0 0)"><path class="am" d="M11.322.288A9.189,9.189,0,0,1,9.663.411C8.638.445,7.22.46,5.655.424s-2.982-.117-4-.2A9.239,9.239,0,0,1,0,.023,11.055,11.055,0,0,1,1.661.029l4,.119,4,.068A10.673,10.673,0,0,1,11.322.288Z"/></g></g><g transform="translate(22.97 29.01)"><g transform="translate(0 0)"><path class="am" d="M10.8.139A53.009,53.009,0,0,1,5.4.276,53.009,53.009,0,0,1,0,.139,52.773,52.773,0,0,1,5.4,0,52.773,52.773,0,0,1,10.8.139Z" transform="translate(0 0)"/></g></g><g transform="translate(12.501 32.283)"><g transform="translate(0 0)"><path class="am" d="M22.084.779a5.1,5.1,0,0,1-.869.037L18.846.81c-2-.02-4.762-.072-7.812-.168S5.222.424,3.225.3C2.227.234,1.42.178.863.125A5.233,5.233,0,0,1,0,.018a5.289,5.289,0,0,1,.87,0L3.236.1l7.807.262,7.807.249,2.367.094A5.32,5.32,0,0,1,22.084.779Z"/></g></g><g transform="translate(11.325 36.145)"><g transform="translate(0 0)"><path class="am" d="M23.995,1.357a6.321,6.321,0,0,1-.945,0l-2.573-.1c-2.172-.1-5.172-.248-8.482-.433S5.684.458,3.513.313L.943.125A6.33,6.33,0,0,1,0,.019a6.213,6.213,0,0,1,.943,0l2.572.1C5.687.213,8.687.364,12,.55s6.313.368,8.484.514l2.569.187A6.192,6.192,0,0,1,23.995,1.357Z" transform="translate(0)"/></g></g><g class="an" transform="translate(14.317 21.503)"><g transform="translate(0 0)"><path d="M.139,7.531c1.876,1.4,4.638.936,6.949.552A10.032,10.032,0,0,0,13.14,4.8a4.069,4.069,0,0,0,1.124-2.861A2.049,2.049,0,0,0,12.2.011C11,.154,10.427,1.5,9.85,2.555A9.284,9.284,0,0,1,.178,7.1S-.195,7.282.139,7.531Z"/></g></g><g class="an" transform="translate(28.729 8.687)"><path d="M0,0C.583,4.713,1.346,8.579,2.329,13.226c.483,2.286,1.07,4.67,2.646,6.393L4.07,9.171Z"/></g></g><g transform="translate(6.489 0)"><path class="ao" d="M0,0"/></g><g transform="translate(12.253 8.897)"><path class="ak" d="M3.1,2.621A3.388,3.388,0,0,0,1.519,7.68a1.655,1.655,0,0,1,.433.939c-.044.839-1.4.863-1.827,1.584a1.3,1.3,0,0,0,.363,1.52,10.216,10.216,0,0,0,1.4.934,1.706,1.706,0,0,1,.858,1.366c.474-.013.754-.588.682-1.056a4.618,4.618,0,0,0-.583-1.29,1.353,1.353,0,0,1-.058-1.352c.31-.441.941-.459,1.444-.655A2.014,2.014,0,0,0,5.3,7.077c-.3-.682-1.014-1.371-.669-2.033.192-.37.635-.511,1-.712A2.6,2.6,0,0,0,5.966,0Z" transform="translate(0 0)"/></g></g><g transform="translate(5.843 95.771)"><g transform="translate(2.145 0)"><g transform="translate(0 0)"><path class="j" d="M3.237,0,0,66.308l5.418,1.309L15.484,0Z"/></g></g><g transform="translate(0 66.014)"><g transform="translate(0.001 0)"><g transform="translate(0 0)"><path class="ap" d="M1.54,0,0,6.773H8.375L7.563,1.6Z"/></g></g><g transform="translate(5.858 1.32)"><g transform="translate(0 0)"><path class="p" d="M.353,0a8.426,8.426,0,0,1,0,2.193A8.406,8.406,0,0,1,.059,4.367a8.429,8.429,0,0,1,0-2.193A8.362,8.362,0,0,1,.353,0Z"/></g></g><g class="aa" transform="translate(0 5.532)"><g transform="translate(0 0)"><path class="ab" d="M0,1.241H8.375V.2L.188,0,0,1.124Z"/></g></g></g></g><g transform="translate(31.216 93.82)"><g transform="translate(0 0)"><g transform="translate(0 0)"><path class="j" d="M0,.839,14.308,71.891l5.876-.409L11.87,0Z"/></g></g><g transform="translate(14.186 69.286)"><g transform="translate(0 0)"><path class="ap" d="M5.743,0,8.209.254S17.2,3.293,17.348,4.932l-17.194.5L0,.937l.637.127C3.184,1.57,3.36,1.033,5.743,0Z"/><g class="aa" transform="translate(1.534 1.689)"><g transform="translate(0 0)"><path class="ab" d="M.478.034A.7.7,0,0,0,.016.849a.675.675,0,0,0,.8.465A.741.741,0,0,0,1.306.448.7.7,0,0,0,.416.058Z"/></g></g><g class="aa" transform="translate(0.156 4.039)"><g transform="translate(0 0)"><g transform="translate(0 0)"><path class="ab" d="M0,1.394.007,0,16.489.041s.775.311.7.853Z"/></g></g></g><g transform="translate(9.202 0.82)"><g transform="translate(0 0)"><path class="p" d="M1.107.032C1.129.114.769.266.495.63s-.346.741-.43.739c-.079.015-.151-.474.2-.92S1.1-.048,1.107.032Z"/></g></g><g transform="translate(11.286 1.513)"><g transform="translate(0 0)"><path class="p" d="M.111,1.467c-.076.021-.205-.4,0-.862S.7-.055.735.014.537.335.377.72.194,1.456.111,1.467Z"/></g></g></g></g></g><g transform="translate(8.907 65.455)"><g transform="translate(0 0)"><path class="aq" d="M36.2,33.048,31.429.34,6.655,0S.309,10.6.309,16.945L0,32.209c5.352.153,10.7.683,16.054,1.073l1.314-12.974s1.234,5.367,3.058,13.25A80.043,80.043,0,0,0,36.2,33.048Z"/><g transform="translate(9.511 18.385)"><g transform="translate(0 0)"><path class="p" d="M14.852,3.631c-.02.082-3.361-.664-7.462-1.665S-.02.087,0,.006,3.361.67,7.463,1.671,14.872,3.55,14.852,3.631Z"/></g></g></g><g transform="translate(8.414 19.017)"><g transform="translate(0 0)"><path class="p" d="M1.868,2.94c.148-.933.263-1.664.346-2.177L2.3.2A1.1,1.1,0,0,0,2.315,0a.976.976,0,0,0-.045.189c-.028.141-.064.327-.11.563-.093.512-.227,1.24-.4,2.169-.343,1.885-.8,4.618-1.338,8C.287,11.794.145,12.714,0,13.67l.212.016c.139-.951.274-1.866.405-2.735C1.127,7.567,1.558,4.829,1.868,2.94Z"/></g></g><g transform="translate(26.6 20.296)"><g transform="translate(0 0)"><path class="p" d="M0,0C-.04.008.841,5.205,2.26,13.382l.212-.008C1,5.19.043-.008,0,0Z"/></g></g></g></g><g transform="translate(7.46 21.882)"><g transform="translate(0 0)"><path class="n" d="M.79,0a2.188,2.188,0,0,1,.386.465,6.1,6.1,0,0,1,.8,1.448,2.911,2.911,0,0,1,.189,1.15,2.45,2.45,0,0,1-.442,1.27c-.258.4-.593.749-.889,1.137A2.341,2.341,0,0,0,.276,6.786,2.677,2.677,0,0,0,.681,8.175a12.361,12.361,0,0,0,.8,1.169,5.546,5.546,0,0,1,.672,1.141,2.983,2.983,0,0,1,.215,1.142,4.13,4.13,0,0,0,.083.908,1.336,1.336,0,0,0,.324.579,1.051,1.051,0,0,0,.505.264c.013.007-.253.085-.578-.185a1.383,1.383,0,0,1-.4-.613,3.876,3.876,0,0,1-.13-.943,2.887,2.887,0,0,0-.231-1.063A5.586,5.586,0,0,0,1.28,9.5,11.657,11.657,0,0,1,.447,8.309,2.9,2.9,0,0,1,0,6.777,2.586,2.586,0,0,1,.621,5.305c.312-.4.645-.745.892-1.113a2.382,2.382,0,0,0,.28-2.216A7.159,7.159,0,0,0,1.088.524,2.98,2.98,0,0,1,.79,0Z"/></g></g></g></g></svg>