<svg xmlns="http://www.w3.org/2000/svg" width="16.427" height="11.818" viewBox="0 0 16.427 11.818"><g transform="translate(-50.609 -206.831)"><g transform="translate(50.609 206.83)"><path d="M55.01,232.428a.57.57,0,0,0-.807,0l-3.428,3.428a.57.57,0,0,0,0,.807l3.382,3.382a.57.57,0,1,0,.807-.807l-2.979-2.979,3.024-3.024A.57.57,0,0,0,55.01,232.428Z" transform="translate(-50.609 -230.327)"/><path d="M206.764,240.043a.57.57,0,0,0,.807,0l3.382-3.382a.571.571,0,0,0,0-.807l-3.428-3.428a.57.57,0,0,0-.807.807l3.024,3.024-2.979,2.979A.57.57,0,0,0,206.764,240.043Z" transform="translate(-194.692 -230.326)"/><path d="M125.06,218.649a.571.571,0,0,0,.533-.368l4.053-10.677a.57.57,0,1,0-1.066-.4l-4.053,10.677a.571.571,0,0,0,.533.773Z" transform="translate(-118.871 -206.83)"/></g></g></svg>