<svg xmlns="http://www.w3.org/2000/svg" width="286.381" height="305.949" viewBox="0 0 286.381 305.949"><defs><style>.a,.c{fill:#fff;}.b{fill:#f7022d;}.b,.d,.e,.f,.g,.h{opacity:0.8;}.c,.d,.e,.f,.g,.h{stroke:#fff;stroke-width:3px;}.c,.d,.e,.f,.g,.h,.r,.t{stroke-miterlimit:10;}.d{fill:#ff4800;}.e{fill:#f2b50a;}.f{fill:#25d747;}.g{fill:#2d65f8;}.h{fill:#9726e0;}.i{fill:#48c2c7;}.j{fill:#e76f5f;}.k{fill:#e03a6c;}.l{fill:#ff806d;}.m{fill:#e8d56f;}.n{fill:#e67b47;}.o{fill:#5595f6;}.p{fill:#8739e5;}.q{fill:#452322;}.r,.t{fill:none;stroke-width:0.487px;}.r{stroke:#9a4131;}.s{fill:#e1e6f9;}.t{stroke:#b1c2e1;}.u{fill:#35539c;}</style></defs><g transform="translate(1.5 164.384)"><g transform="translate(0 -8)"><path class="a" d="M0,379.957c6.889-4.019,1.971-10.16,27.521-13.83,21.824-3.134,33.036,4.192,52.654,3.9,21.318-.311,31.262-8.1,53.676-5.585,29.75,3.333,23.783,12.228,41.289,14.988,26.663,4.2,37.16.131,47.249,5.757,11.482,6.4.361,12.95,5.886,24.121,5.886,11.9,25.1,6.537,32.687,17.267,7.339,10.369-11.868,17.277-7.887,25.922,4.493,9.755,27.408,8.622,27.823,16.621.378,7.339-18.769,17.314-19.642,25.237-1.015,9.194,24.619,12.98,23.594,17.654H0Z" transform="translate(0 -363.948)"/><path class="b" d="M0,379.957c6.889-4.019,1.971-10.16,27.521-13.83,21.824-3.134,33.036,4.192,52.654,3.9,21.318-.311,31.262-8.1,53.676-5.585,29.75,3.333,23.783,12.228,41.289,14.988,26.663,4.2,37.16.131,47.249,5.757,11.482,6.4.361,12.95,5.886,24.121,5.886,11.9,25.1,6.537,32.687,17.267,7.339,10.369-11.868,17.277-7.887,25.922,4.493,9.755,27.408,8.622,27.823,16.621.378,7.339-18.769,17.314-19.642,25.237-1.015,9.194,24.619,12.98,23.594,17.654H0Z" transform="translate(0 -363.948)"/><path class="c" d="M0,378.962c6.525-3.769,1.867-9.529,26.069-12.971,20.672-2.94,31.293,3.932,49.875,3.662,20.193-.292,29.612-7.594,50.843-5.238,28.18,3.126,22.528,11.468,39.11,14.057,25.256,3.943,35.2.122,44.755,5.4,10.876,6.006.342,12.145,5.576,22.623,5.576,11.159,23.771,6.131,30.962,16.194,6.951,9.725-11.242,16.2-7.471,24.312,4.256,9.149,25.962,8.086,26.355,15.588.359,6.883-17.779,16.238-18.605,23.669-.961,8.623,23.319,12.174,22.349,16.558H0Z" transform="translate(0 -354.751)"/><path class="d" d="M0,378.962c6.525-3.769,1.867-9.529,26.069-12.971,20.672-2.94,31.293,3.932,49.875,3.662,20.193-.292,29.612-7.594,50.843-5.238,28.18,3.126,22.528,11.468,39.11,14.057,25.256,3.943,35.2.122,44.755,5.4,10.876,6.006.342,12.145,5.576,22.623,5.576,11.159,23.771,6.131,30.962,16.194,6.951,9.725-11.242,16.2-7.471,24.312,4.256,9.149,25.962,8.086,26.355,15.588.359,6.883-17.779,16.238-18.605,23.669-.961,8.623,23.319,12.174,22.349,16.558H0Z" transform="translate(0 -354.751)"/><path class="c" d="M0,377.882c6.109-3.5,1.748-8.844,24.405-12.038,19.353-2.728,29.3,3.649,46.692,3.4,18.9-.271,27.722-7.048,47.6-4.861,26.382,2.9,21.09,10.643,36.614,13.046,23.644,3.659,32.953.114,41.9,5.011,10.182,5.574.32,11.272,5.22,21,5.22,10.356,22.254,5.69,28.986,15.029,6.508,9.026-10.524,15.038-6.994,22.563,3.984,8.49,24.3,7.5,24.673,14.467.336,6.388-16.644,15.07-17.418,21.966-.9,8,21.831,11.3,20.922,15.366H0Z" transform="translate(0 -344.76)"/><path class="e" d="M0,377.882c6.109-3.5,1.748-8.844,24.405-12.038,19.353-2.728,29.3,3.649,46.692,3.4,18.9-.271,27.722-7.048,47.6-4.861,26.382,2.9,21.09,10.643,36.614,13.046,23.644,3.659,32.953.114,41.9,5.011,10.182,5.574.32,11.272,5.22,21,5.22,10.356,22.254,5.69,28.986,15.029,6.508,9.026-10.524,15.038-6.994,22.563,3.984,8.49,24.3,7.5,24.673,14.467.336,6.388-16.644,15.07-17.418,21.966-.9,8,21.831,11.3,20.922,15.366H0Z" transform="translate(0 -344.76)"/><path class="c" d="M0,376.688c5.734-3.2,1.641-8.086,22.908-11.006,18.166-2.494,27.5,3.336,43.827,3.108,17.744-.248,26.021-6.444,44.678-4.445,24.763,2.653,19.8,9.731,34.368,11.928,22.194,3.346,30.931.1,39.329,4.582,9.558,5.1.3,10.306,4.9,19.2,4.9,9.469,20.889,5.2,27.208,13.742,6.108,8.252-9.879,13.749-6.565,20.63,3.74,7.763,22.814,6.861,23.159,13.227.315,5.841-15.623,13.779-16.349,20.084-.845,7.317,20.492,10.33,19.639,14.05H0Z" transform="translate(0 -333.717)"/><path class="f" d="M0,376.688c5.734-3.2,1.641-8.086,22.908-11.006,18.166-2.494,27.5,3.336,43.827,3.108,17.744-.248,26.021-6.444,44.678-4.445,24.763,2.653,19.8,9.731,34.368,11.928,22.194,3.346,30.931.1,39.329,4.582,9.558,5.1.3,10.306,4.9,19.2,4.9,9.469,20.889,5.2,27.208,13.742,6.108,8.252-9.879,13.749-6.565,20.63,3.74,7.763,22.814,6.861,23.159,13.227.315,5.841-15.623,13.779-16.349,20.084-.845,7.317,20.492,10.33,19.639,14.05H0Z" transform="translate(0 -333.717)"/><path class="c" d="M.4,375.484c5.332-2.927.969-7.691,20.743-10.364,16.891-2.283,25.36,3.664,40.543,3.455,16.5-.227,24.139-6.148,41.486-4.318,23.025,2.428,18.509,9.218,32.057,11.228,20.636,3.062,28.963.22,36.771,4.318,8.887,4.664.438,9.137,4.714,17.274,4.556,8.666,19.582,4.277,25.457,12.092,5.68,7.553-9.681,12.7-6.6,19,3.477,7.1,21.364,6.266,21.686,12.092.293,5.346-14.41,13.231-15.086,19-.786,6.7,18.707,8.687,17.914,12.092H.4Z" transform="translate(-0.013 -323.721)"/><path class="g" d="M.4,375.484c5.332-2.927.969-7.691,20.743-10.364,16.891-2.283,25.36,3.664,40.543,3.455,16.5-.227,24.139-6.148,41.486-4.318,23.025,2.428,18.509,9.218,32.057,11.228,20.636,3.062,28.963.22,36.771,4.318,8.887,4.664.438,9.137,4.714,17.274,4.556,8.666,19.582,4.277,25.457,12.092,5.68,7.553-9.681,12.7-6.6,19,3.477,7.1,21.364,6.266,21.686,12.092.293,5.346-14.41,13.231-15.086,19-.786,6.7,18.707,8.687,17.914,12.092H.4Z" transform="translate(-0.013 -323.721)"/><path class="c" d="M0,374.244c4.929-2.585,1.41-6.534,19.691-8.894,15.615-2.016,23.637,2.7,37.674,2.511,15.253-.2,22.368-5.207,38.405-3.592,21.286,2.144,17.017,7.864,29.542,9.639,19.078,2.7,26.588.084,33.807,3.7,8.216,4.118.258,8.328,4.212,15.513,4.212,7.652,17.956,4.2,23.388,11.1,5.251,6.669-8.492,11.111-5.643,16.671,3.215,6.273,19.611,5.545,19.908,10.689.271,4.72-13.43,11.135-14.054,16.23-.726,5.913,17.615,8.348,16.881,11.354H0Z" transform="translate(0 -311.107)"/><path class="h" d="M0,374.244c4.929-2.585,1.41-6.534,19.691-8.894,15.615-2.016,23.637,2.7,37.674,2.511,15.253-.2,22.368-5.207,38.405-3.592,21.286,2.144,17.017,7.864,29.542,9.639,19.078,2.7,26.588.084,33.807,3.7,8.216,4.118.258,8.328,4.212,15.513,4.212,7.652,17.956,4.2,23.388,11.1,5.251,6.669-8.492,11.111-5.643,16.671,3.215,6.273,19.611,5.545,19.908,10.689.271,4.72-13.43,11.135-14.054,16.23-.726,5.913,17.615,8.348,16.881,11.354H0Z" transform="translate(0 -311.107)"/></g><g transform="translate(29.058 -164.384)"><path class="i" d="M226.714,255.926a17.961,17.961,0,0,0-13.128,4.361c-6.018,5.291.884,13.115-10.037,16.5s-15.074,10-15.074,17.306-15.229,7.031-12.767,19.065-9.845,13.657-5.846,24.472,11.845,5.877,14.768,15.717,25.841,10.514,27.226-3.548,24.766-34.208,20.613-46.647,13.912-1.52,11.759-19.232S238.111,255.926,226.714,255.926Z" transform="translate(-162.886 -224.488)"/><g transform="translate(2.985 36.971)"><path class="j" d="M170.5,344.8a291.33,291.33,0,0,0,7.99-37.18l.719-4.972s-26.064-.715-24.414-41.379l3.6-1.437s5.935,32.951,22.349,29.942a35.286,35.286,0,0,1,11.041-.565l3.752.5A30.068,30.068,0,0,1,219.92,309.2c3.747,10.4,7.027,29.027,7.846,54.788l-4.577-.833s-1.913-7.658-4.491-17.057c-3.765-13.732-8.947-31.18-11.645-33.878-7.7,11.432-3.926,34.922-3.926,34.922s.14.567.389,1.606C197.667,350.175,185.963,351.385,170.5,344.8Z" transform="translate(-129.014 -259.832)"/><path class="k" d="M194.153,363.093c0-11.182,2.613-22.366,5.443-31.2q1.882-5.872,3.549-11.805c15.465,6.585,27.168,5.375,33.017,3.945,1.689,7.057,8.49,36.228,11.929,62.5a287.842,287.842,0,0,1,2.1,53.812l-4.849-.709s-14.322-48.124-25.8-90.222c-7.176,56.45-54.854,76.818-54.854,76.818l-3.025-3.587S194.153,387.492,194.153,363.093Z" transform="translate(-161.66 -235.121)"/></g><g transform="translate(55.909 37.183)"><rect class="j" width="10.687" height="12.383" transform="translate(4.215 19.652)"/><path class="l" d="M192.934,272.9c0,7.137-3.269,12.843-8.421,12.627-8.126-.341-11.233-5.491-11.233-12.627s4.4-12.922,9.827-12.922S192.934,265.768,192.934,272.9Z" transform="translate(-173.28 -259.982)"/></g><path class="i" d="M190.373,271.036s-13.066,2.884-17.866-8.331S190.373,260.141,190.373,271.036Z" transform="translate(-112.78 -223.834)"/><path class="j" d="M153.107,332.493s-1.093,9.2.154,10.27c1.175,1.008,1.23-2.43,1.23-2.43s2.524,6.963,3.6,6.768c1.867-.337,5.23-6.472-2.3-15.018" transform="translate(-55.838 -193.23)"/><path class="j" d="M206.886,253.146c1.074-.178,2.293,3.445,2.293,3.445s.1-3.436,1.263-2.413c1.232,1.087.008,10.271.008,10.271l-2.688.372C200.356,256.169,205.013,253.457,206.886,253.146Z" transform="translate(-178.343 -225.605)"/><path class="m" d="M226.3,395.709s4.92,13.819.34,15.906-7.569-15.2-6.991-17.157a3.218,3.218,0,0,1,2.442-2.245A5.4,5.4,0,0,0,226.3,395.709Z" transform="translate(-218.3 -168.572)"/><path class="m" d="M160.9,404.1s12.244,8.445,9.778,12.832-15.08-7.813-15.765-9.733a3.219,3.219,0,0,1,.649-3.253A5.371,5.371,0,0,0,160.9,404.1Z" transform="translate(-69.266 -163.758)"/><path class="l" d="M188.549,268.523s-4.116-1.677-2.727,2.822c1.207,3.909,4.408,2.122,4.408,2.122" transform="translate(-131.95 -219.422)"/><g transform="translate(14.064 0)"><g transform="translate(0)"><path class="k" d="M198.34,235.524l.874-1.911c6.8,3.112,13.643,6.244,20.7,9.481l-.87,1.9Z" transform="translate(-193.757 -233.613)"/><rect class="n" width="22.773" height="2.203" transform="translate(24.375 13.388) rotate(-155.416)"/><rect class="m" width="22.773" height="2.203" transform="translate(23.458 15.391) rotate(-155.416)"/><rect class="i" width="22.773" height="2.203" transform="translate(22.542 17.395) rotate(-155.416)"/><rect class="o" width="22.773" height="2.203" transform="translate(21.625 19.398) rotate(-155.416)"/><rect class="p" width="22.773" height="2.203" transform="translate(20.708 21.402) rotate(-155.416)"/></g><path class="q" d="M.229,0H.47A.229.229,0,0,1,.7.229V32.752a.23.23,0,0,1-.23.23H.229A.229.229,0,0,1,0,32.752V.229A.229.229,0,0,1,.229,0Z" transform="matrix(0.909, 0.417, -0.417, 0.909, 26.184, 7.786)"/></g><path class="j" d="M204.673,256.693s2.748,4.734,4.676,2.081-1.963-5.635-1.963-5.635Z" transform="translate(-178.59 -225.605)"/><path class="k" d="M180.133,273.835c1.3-1,2.619.943,2.619.943a3.028,3.028,0,0,1-2.84,1.537,2.625,2.625,0,0,1-2.839-1.854S178.95,272.7,180.133,273.835Z" transform="translate(-112.537 -217.275)"/><path class="r" d="M205.623,255.587a1.994,1.994,0,0,1-.884,2.992" transform="translate(-174.787 -224.602)"/><path class="s" d="M173.092,290.416c14.695-4.68,24.954,3.035,24.954,3.035a10.593,10.593,0,0,1-.556,12.038l-27.4-3.422a16.268,16.268,0,0,1-.506-3.7C169.3,295.446,170.295,291.307,173.092,290.416Z" transform="translate(-118.825 -210.936)"/><path class="s" d="M171.716,380.339c4.687-24.823,20.16-39.4,26.783-68.76l29.307,1.2c3.054,16.749,9.72,33.367,13.586,48.363,7.252,28.138-.948,46.234,14.387,67.527,10.69,14.843-20.366,14.455-38.373,11.138s-59.709-16.829-65.352-26.7S165.692,412.249,171.716,380.339Z" transform="translate(-151.033 -201.64)"/><g transform="translate(94.905 16.75)"><path class="p" d="M141.84,248.83c-5.718-4.151-13.568-4.674-19.022-.183A9.032,9.032,0,0,0,119.7,258.81c3.38,11.828,21.6,12.455,21.6,12.455s6.616-1.474,6.616-12.117C147.915,254.545,145.069,251.173,141.84,248.83Z" transform="translate(-91.054 -245.492)"/><path class="l" d="M181.9,352.795s-14.259-66.556-36.578-78.955a24.575,24.575,0,0,0-3.418-1.564c-11.309-4.167-23.879.333-31.169,9.93a44.759,44.759,0,0,0-8.8,22.913c-2.523,24.722-8.578,59.533-8.578,59.533h5.55l18.162-64.073s-2.621,15.731-4.69,36.366c-1.887,18.823-3.312,41.729-1.868,60.5,3.027,39.352,4.643,65.981,4.643,65.981l4.942-2.413,15.135-103.93s1.01,51.46,9.082,66.6,19.8,30.65,19.8,30.65l3.659-3.659s-15.388-34.559-11.856-54.739,13.622-45.911-5.55-95.353c20.685,42.884,28.253,55.5,28.253,55.5Z" transform="translate(-88.55 -235.146)"/><g transform="translate(31.995 3.315)"><path class="j" d="M125.326,275.6V262.54H136.6V275.6l-8.292,6.363Z" transform="translate(-120.314 -241.816)"/><path class="l" d="M122.174,261.47c0,7.526,1.83,14.712,10.363,13.626,5.92-.752,10.364-6.1,10.364-13.626s-4.641-13.627-10.364-13.627S122.174,253.943,122.174,261.47Z" transform="translate(-122.174 -247.843)"/></g><path class="i" d="M110.332,334.292s-10.075,39.762,2.479,89.074a11.576,11.576,0,0,0,9.087,0l12.924-88.75s-2.023,39.077,4.219,60.777,15.569,24.118,15.569,24.118l7.376-5.31s-7.489-24.158-3.624-41.1,7.134-36.266,1.784-44.886S110.332,334.292,110.332,334.292Z" transform="translate(-88.137 -212.679)"/><path class="s" d="M126.891,271.155s-10.48-.991-16.425,9.71c-6.986,6.986-5.35,9.215,0,14.565s4.459,16.944.893,38.346-4.605,27.645,15.532,21.7,35.6,4.161,38.271-.893-5.945-39.387-10.312-47.469c-4.559-8.434-.935-18.836,2.69-22.46s-10.708-15.419-19.379-13.9C131.172,279.274,126.891,271.155,126.891,271.155Z" transform="translate(-89.884 -235.185)"/><path class="p" d="M120.677,250.057s3.9,7.827,17.086,5.265c-3.879,6.73-2.021,11.014-2.021,11.014s1.108-4.189,4.1-2.885-.918,7.17-.918,7.17,4.588-1.3,4.588-11.611S132.984,243.3,120.677,250.057Z" transform="translate(-88.682 -244.848)"/><path class="l" d="M162.744,336.18s-1.861,9.591-3.459,10.264c-1.5.633-.451-2.836-.451-2.836s-4.775,6.18-5.79,5.64c-1.767-.939-3.171-8.183,7.138-14.343" transform="translate(-151.806 -208.824)"/><path class="k" d="M109.717,399.509s-10.147,11.962-6.378,15.7,13.038-12.279,13.179-14.424a3.393,3.393,0,0,0-1.6-3.112A5.162,5.162,0,0,1,109.717,399.509Z" transform="translate(-36.063 -183.083)"/><path class="k" d="M147.221,405.079s-13.036,8.726-10.433,13.351,15.9-8.239,16.624-10.263a3.4,3.4,0,0,0-.684-3.432A5.159,5.159,0,0,1,147.221,405.079Z" transform="translate(-121.019 -180.187)"/><path class="l" d="M123.947,258.631s4.34-1.767,2.875,2.977c-1.272,4.122-4.648,2.238-4.648,2.238" transform="translate(-74.404 -240.236)"/><path class="t" d="M141.71,281.757s4.662,4.988,5.313,16.155" transform="translate(-121.849 -230.62)"/><path class="t" d="M117.8,276.834s-5.2,6.183-3.253,20.387" transform="translate(-53.698 -232.638)"/><path class="t" d="M140.18,276.314s5.53,15.916.434,25.024" transform="translate(-115.44 -232.852)"/><path class="t" d="M118.415,274.622s-2.6,11.905,0,19.277" transform="translate(-58.763 -233.546)"/><path class="t" d="M123.93,272.174s6.429,10.416,15.185-.643" transform="translate(-88.869 -234.813)"/><g transform="translate(32.139 51.165)"><path class="p" d="M129.487,294.819h.1c-.018-.01-.034-.023-.052-.032C129.521,294.8,129.505,294.81,129.487,294.819Z" transform="translate(-119.319 -276.441)"/><path class="k" d="M129.08,282.079a5.439,5.439,0,0,0-6.644,2.647h9.309A3.835,3.835,0,0,0,129.08,282.079Z" transform="translate(-111.532 -281.776)"/><path class="k" d="M132.676,282.079a3.839,3.839,0,0,0-2.667,2.647h9.311A5.439,5.439,0,0,0,132.676,282.079Z" transform="translate(-129.785 -281.776)"/><path class="n" d="M122.416,286.955h20.16a6.6,6.6,0,0,0-.086-3.087H133.18a8.52,8.52,0,0,0-.685,1.4,8.359,8.359,0,0,0-.684-1.4H122.5A6.622,6.622,0,0,0,122.416,286.955Z" transform="translate(-122.276 -280.918)"/><path class="m" d="M123.42,289.142h18.07a11.943,11.943,0,0,0,1.045-3.085h-20.16A11.942,11.942,0,0,0,123.42,289.142Z" transform="translate(-122.236 -280.021)"/><path class="i" d="M125.072,291.33h14.159a17.819,17.819,0,0,0,1.956-3.085h-18.07A17.819,17.819,0,0,0,125.072,291.33Z" transform="translate(-121.932 -279.123)"/><path class="o" d="M127.419,293.52h8.327a23,23,0,0,0,2.916-3.087H124.5A23,23,0,0,0,127.419,293.52Z" transform="translate(-121.363 -278.226)"/><path class="p" d="M134.9,292.622h-8.327a27.557,27.557,0,0,0,4.112,3.019v.066c.018-.01.034-.023.051-.032.018.01.034.023.052.032v-.066A27.557,27.557,0,0,0,134.9,292.622Z" transform="translate(-120.515 -277.328)"/></g><path class="u" d="M132.418,262.5c-1.177-1.261-2.886.526-2.886.526s.481,1.365,2.737,1.613a4.483,4.483,0,0,0,3.223-.957S133.847,261.521,132.418,262.5Z" transform="translate(-93.146 -238.701)"/><path class="l" d="M91.026,328.363s-1.29,9.686.01,10.832c1.223,1.079,1.331-2.545,1.331-2.545s2.558,7.379,3.692,7.191c1.974-.327,5.614-6.747-2.2-15.871" transform="translate(-1.2 -211.667)"/></g></g></g></svg>