<svg xmlns="http://www.w3.org/2000/svg" width="157.734" height="39.459" viewBox="0 0 157.734 39.459"><defs><style>.a,.b,.d,.e,.g,.h,.i,.j,.k{isolation:isolate;}.b{fill:#ff0b23;}.b,.d,.e,.f,.g,.h,.i,.j,.k{opacity:0.7;}.c{fill:#fff;}.d{fill:#ff4800;}.e{fill:#f87316;}.g{fill:#f2b50a;}.h{fill:#8d12dd;}.i{fill:#1455f7;}.j{fill:#11d336;}.k{fill:#2c5efb;}</style></defs><g transform="translate(-1379.214 -116.856)"><g class="a"><g class="a"><path d="M1436.834,150.481c0,1.406-1.053,2.279-2.736,2.279h-1.27V154.5h-1.459v-6.3h2.729C1435.781,148.2,1436.834,149.068,1436.834,150.481Zm-1.477,0c0-.692-.45-1.1-1.34-1.1h-1.189v2.187h1.189C1434.907,151.571,1435.357,151.166,1435.357,150.481Z"/><path d="M1437.4,152.075a2.667,2.667,0,1,1,2.665,2.494A2.494,2.494,0,0,1,1437.4,152.075Zm3.9,0a1.242,1.242,0,1,0-1.234,1.342A1.222,1.222,0,0,0,1441.3,152.075Z"/><path d="M1451.316,149.653v2.674a2.037,2.037,0,0,1-2.251,2.242,2.209,2.209,0,0,0-3.2,0,2.026,2.026,0,0,1-2.241-2.242v-2.674h1.4v2.567c0,.8.261,1.17.856,1.17s.882-.369.882-1.17v-2.567h1.4v2.567c0,.8.288,1.17.883,1.17s.855-.369.855-1.17v-2.567Z"/><path d="M1456.229,152.976l.747.81a2.828,2.828,0,0,1-4.762-1.711,2.463,2.463,0,0,1,2.593-2.493,2.371,2.371,0,0,1,2.5,2.448l-3.584.694a1.279,1.279,0,0,0,1.288.719A1.642,1.642,0,0,0,1456.229,152.976Zm-2.638-1.044,2.359-.46a1.123,1.123,0,0,0-1.143-.828A1.188,1.188,0,0,0,1453.591,151.932Z"/><path d="M1461.26,149.582v1.3c-.117-.009-.207-.018-.316-.018a1.19,1.19,0,0,0-1.287,1.35V154.5h-1.405v-4.844h1.342v.64A1.952,1.952,0,0,1,1461.26,149.582Z"/><path d="M1465.706,152.976l.747.81a2.829,2.829,0,0,1-4.763-1.711,2.463,2.463,0,0,1,2.593-2.493,2.371,2.371,0,0,1,2.5,2.448l-3.583.694a1.277,1.277,0,0,0,1.287.719A1.642,1.642,0,0,0,1465.706,152.976Zm-2.638-1.044,2.359-.46a1.123,1.123,0,0,0-1.144-.828A1.187,1.187,0,0,0,1463.068,151.932Z"/><path d="M1472.663,147.817v6.68h-1.342v-.559a1.858,1.858,0,0,1-1.511.631,2.495,2.495,0,0,1,0-4.987,1.863,1.863,0,0,1,1.449.585v-2.35Zm-1.378,4.258a1.242,1.242,0,1,0-1.233,1.342A1.227,1.227,0,0,0,1471.285,152.075Z"/><path d="M1481.78,152.075a2.352,2.352,0,0,1-2.413,2.494,1.879,1.879,0,0,1-1.521-.631v.559H1476.5v-6.68h1.405v2.35a1.88,1.88,0,0,1,1.458-.585A2.352,2.352,0,0,1,1481.78,152.075Zm-1.423,0a1.237,1.237,0,1,0-1.233,1.342A1.222,1.222,0,0,0,1480.357,152.075Z"/><path d="M1487.594,149.653v4.034a2.334,2.334,0,0,1-2.638,2.628,3.816,3.816,0,0,1-2.313-.666l.557-1.007a2.69,2.69,0,0,0,1.639.54c.945,0,1.35-.442,1.35-1.315v-.162a1.983,1.983,0,0,1-1.431.558,1.926,1.926,0,0,1-2.07-2.179v-2.431h1.4v2.224c0,.819.36,1.18.981,1.18.649,0,1.116-.414,1.116-1.306v-2.1Z"/><path d="M1491.147,151.346a3.471,3.471,0,0,1,6.014-2.143l-.936.864a2.03,2.03,0,0,0-1.584-.738,2.017,2.017,0,1,0,0,4.033,2.008,2.008,0,0,0,1.584-.747l.936.864a3.464,3.464,0,0,1-6.014-2.133Z"/><path d="M1497.51,152.075a2.666,2.666,0,1,1,2.665,2.494A2.494,2.494,0,0,1,1497.51,152.075Zm3.9,0a1.242,1.242,0,1,0-1.233,1.342A1.222,1.222,0,0,0,1501.408,152.075Z"/><path d="M1508.7,147.817v6.68h-1.341v-.559a1.86,1.86,0,0,1-1.512.631,2.495,2.495,0,0,1,0-4.987,1.861,1.861,0,0,1,1.449.585v-2.35Zm-1.377,4.258a1.242,1.242,0,1,0-1.233,1.342A1.227,1.227,0,0,0,1507.321,152.075Z"/><path d="M1513.647,152.976l.748.81a2.828,2.828,0,0,1-4.762-1.711,2.462,2.462,0,0,1,2.593-2.493,2.371,2.371,0,0,1,2.5,2.448l-3.584.694a1.278,1.278,0,0,0,1.288.719A1.64,1.64,0,0,0,1513.647,152.976Zm-2.637-1.044,2.359-.46a1.123,1.123,0,0,0-1.143-.828A1.187,1.187,0,0,0,1511.01,151.932Z"/><path d="M1517.922,151.346a3.471,3.471,0,0,1,6.014-2.143l-.937.864a2.03,2.03,0,0,0-1.584-.738,2.017,2.017,0,1,0,0,4.033,2.008,2.008,0,0,0,1.584-.747l.937.864a3.464,3.464,0,0,1-6.014-2.133Z"/><path d="M1529.569,149.653V154.5h-1.332v-.576a1.96,1.96,0,0,1-1.5.648,1.931,1.931,0,0,1-2.07-2.178v-2.738h1.4v2.531c0,.809.361,1.17.982,1.17.648,0,1.116-.415,1.116-1.306v-2.4Z"/><path d="M1536.148,152.075a2.352,2.352,0,0,1-2.413,2.494,1.88,1.88,0,0,1-1.458-.585v2.259h-1.405v-6.59h1.342v.559a1.881,1.881,0,0,1,1.521-.63A2.352,2.352,0,0,1,1536.148,152.075Zm-1.422,0a1.238,1.238,0,1,0-1.234,1.342A1.223,1.223,0,0,0,1534.726,152.075Z"/></g></g><rect class="b" width="4.06" height="23.889" transform="translate(1379.214 116.856)"/><rect class="b" width="15.768" height="4.128" transform="translate(1379.214 126.669)"/><rect class="b" width="3.993" height="23.889" transform="translate(1390.989 116.856)"/><rect class="b" width="4.128" height="15.091" transform="translate(1408.313 125.653)"/><ellipse class="b" cx="7.461" cy="7.546" rx="7.461" ry="7.546" transform="translate(1397.52 125.653)"/><circle class="c" cx="3.332" cy="3.332" r="3.332" transform="translate(1401.648 129.867)"/><path class="d" d="M1424.81,130.762l2.767-2.9a7.4,7.4,0,0,0-5.275-2.21,7.546,7.546,0,0,0,0,15.091,8.806,8.806,0,0,0,1.96-.263,7.582,7.582,0,0,0,3.354-1.986l-2.719-2.853a3.868,3.868,0,0,1-2.383.889,3.63,3.63,0,0,1-3.524-2.443,3.453,3.453,0,0,1,1.228-3.643,3.693,3.693,0,0,1,3.05-.594,5.822,5.822,0,0,1,1.544.911Z"/><path class="e" d="M1427.762,138.342"/><path class="e" d="M1427.762,128.059"/><path class="d" d="M1433.717,140.745h-4.154V116.891h4.154Z"/><path class="e" d="M1429.562,135.244"/><path class="e" d="M1440.142,131.681"/><path class="e" d="M1433.717,135.9"/><g class="f"><path class="d" d="M1435.036,133.882l1.818-.031a8.317,8.317,0,0,0,3.327-2c-.377-.347-2.76-2.489-5.264-2.161a6.736,6.736,0,0,0-1.288.326,6.392,6.392,0,0,0-2.648,1.9l-.834,1.3-.582,1.985v5.5h4.154c-.013-2.339.008-4.085,0-4.846h0a2.51,2.51,0,0,1,.28-1.208A1.849,1.849,0,0,1,1435.036,133.882Z"/><path class="d" d="M1436.305,129.741a2.219,2.219,0,0,0,1.313-1.235,1.6,1.6,0,0,0,.086-.458V125.7h4.1V129a4.933,4.933,0,0,1-.587,1.462,6.614,6.614,0,0,1-1.033,1.4c-.265-.243-.522-.454-.764-.636a9.287,9.287,0,0,0-.943-.625,8.181,8.181,0,0,0-1.161-.563A7.268,7.268,0,0,0,1436.305,129.741Z"/><path class="d" d="M1437.515,134.86a2.247,2.247,0,0,1,.1.245,1.885,1.885,0,0,1,.076.356V140.7h4.115v-5.242a4.763,4.763,0,0,0-1.621-3.607,8.306,8.306,0,0,1-3.327,2A6.236,6.236,0,0,1,1437.515,134.86Z"/></g><rect class="g" width="4.128" height="15.091" transform="translate(1455.042 125.654)"/><ellipse class="g" cx="7.461" cy="7.546" rx="7.461" ry="7.546" transform="translate(1444.249 125.654)"/><circle class="c" cx="3.332" cy="3.332" r="3.332" transform="translate(1448.379 129.868)"/><rect class="h" width="4.128" height="23.854" transform="translate(1515.137 116.891)"/><ellipse class="h" cx="7.461" cy="7.546" rx="7.461" ry="7.546" transform="translate(1504.344 125.655)"/><circle class="c" cx="3.332" cy="3.332" r="3.332" transform="translate(1508.474 129.869)"/><rect class="i" width="4.128" height="15.092" transform="translate(1497.69 125.653)"/><rect class="i" width="4.128" height="4.128" transform="translate(1497.69 117.008)"/><path class="j" d="M1474.3,120.289v20.334h-4.128V120.884H1468.5v-3.9h3.152a4.578,4.578,0,0,1,1.6,1.126A6.507,6.507,0,0,1,1474.3,120.289Z"/><path class="j" d="M1477.9,126.723h-7.724v4.142h7.724a7.572,7.572,0,0,0,3.733-1.739,7.171,7.171,0,0,0,2.455-4.4,7.265,7.265,0,0,0-3.477-7.006,6.372,6.372,0,0,0-1.784-.709l-10.318-.033v3.9l9.176.06a4.581,4.581,0,0,1,2.127,2.662C1479.762,124.934,1479.669,125.574,1477.9,126.723Z"/><path class="k" d="M1490.337,140.747h-4.125V125.655h4.127v15.092Z"/><path class="i" d="M1492.968,130.044l2.689-2.6a4.775,4.775,0,0,0-1.828-1.434,5.214,5.214,0,0,0-4.159.116,6.341,6.341,0,0,0-2.688,2.553,8.208,8.208,0,0,0-.773,1.525v10.539h4.128v-9.878a1.738,1.738,0,0,1,.919-1.045,1.7,1.7,0,0,1,1.2-.058Z"/><path class="h" d="M1536.676,132.255a6.992,6.992,0,1,0-1.389,5.9l-2.324-2.906a6.124,6.124,0,0,1-2.737,1.279,3.952,3.952,0,0,1-3.289-.961,3.394,3.394,0,0,1-.7-3.866,3.289,3.289,0,0,1,3.219-1.873,4.078,4.078,0,0,1,2.882,2.017,7.524,7.524,0,0,1,.749,1.718Z"/><path class="h" d="M1535.356,128.819l1.591,3.368-13.552,5.648-1.464-3.3Z"/></g></svg>