<svg xmlns="http://www.w3.org/2000/svg" viewBox="0 0 301 301"><defs><style>.cls-1{fill:#fff;}.cls-2{fill:#ff4800;}.cls-2,.cls-3,.cls-4,.cls-5,.cls-6,.cls-7,.cls-8,.cls-9{opacity:0.7;}.cls-2,.cls-3,.cls-5,.cls-6,.cls-7,.cls-8,.cls-9{isolation:isolate;}.cls-3{fill:#f2b50a;}.cls-5{fill:#8d12dd;}.cls-6{fill:#2c5efb;}.cls-7{fill:#1455f7;}.cls-8{fill:#11d336;}.cls-9{fill:#ff0b23;}</style></defs><g id="Camada_2" data-name="Camada 2"><g id="Camada_1-2" data-name="Camada 1"><g id="Grupo_2284" data-name="Grupo 2284"><rect id="Retângulo_192" data-name="Retângulo 192" class="cls-1" width="301" height="301"/><g id="Grupo_2283" data-name="Grupo 2283"><path id="Caminho_2436" data-name="Caminho 2436" class="cls-2" d="M170.4,105.7c3.4-3.6,6.9-7.2,10.3-10.8A27.62,27.62,0,0,0,161,86.6a28.2,28.2,0,0,0,0,56.4,35.65,35.65,0,0,0,7.3-1,27.48,27.48,0,0,0,12.5-7.4c-3.4-3.6-6.8-7.1-10.2-10.7a14.35,14.35,0,0,1-8.9,3.3c-5.1,0-11.4-3-13.2-9.1a12.78,12.78,0,0,1,4.6-13.6,13.66,13.66,0,0,1,11.4-2.2,21.61,21.61,0,0,1,5.9,3.4Z"/><g id="Grupo_2280" data-name="Grupo 2280"><path id="Caminho_2437" data-name="Caminho 2437" class="cls-3" d="M201.6,143H186.1V53.93h15.5Z"/><g id="Grupo_2275" data-name="Grupo 2275" class="cls-4"><path id="Caminho_54" data-name="Caminho 54" class="cls-3" d="M206.54,117.38l6.8-.1a30.45,30.45,0,0,0,12.4-7.5c-1.4-1.3-10.3-9.3-19.7-8.1a25.94,25.94,0,0,0-4.8,1.2,23.53,23.53,0,0,0-9.9,7.1c-1,1.6-2.1,3.2-3.1,4.9l-2.1,7.4v20.6h15.5v-18.1h0a9.88,9.88,0,0,1,1-4.5A7,7,0,0,1,206.54,117.38Z"/><path id="Caminho_55" data-name="Caminho 55" class="cls-3" d="M211.34,101.88c.8-.3,3.9-1.6,4.9-4.6a5.08,5.08,0,0,0,.3-1.7v-8.8h15.3v12.3a18.64,18.64,0,0,1-2.2,5.5,25.25,25.25,0,0,1-3.9,5.2,30.66,30.66,0,0,0-2.9-2.4c-1.1-.8-2.3-1.6-3.5-2.3A34.18,34.18,0,0,0,215,103,22.59,22.59,0,0,0,211.34,101.88Z"/><path id="Caminho_56" data-name="Caminho 56" class="cls-3" d="M215.84,121c.1.3.3.6.4.9s.2.9.3,1.3v19.6h15.4v-19.5a17.84,17.84,0,0,0-6.1-13.5,32.3,32.3,0,0,1-12.4,7.5A23.49,23.49,0,0,1,215.84,121Z"/></g></g><g id="Grupo_2276" data-name="Grupo 2276"><rect id="Retângulo_190" data-name="Retângulo 190" class="cls-5" x="209.83" y="158" width="15.4" height="89.1"/><path class="cls-5" d="M197.43,190.7a28.2,28.2,0,1,0,27.9,28.2A28.1,28.1,0,0,0,197.43,190.7Zm0,40.7a12.5,12.5,0,1,1,12.5-12.5A12.5,12.5,0,0,1,197.43,231.4Z"/></g><g id="Grupo_2277" data-name="Grupo 2277"><path id="Caminho_2438" data-name="Caminho 2438" class="cls-6" d="M147.74,247.14h-15.4v-56.4h15.4v56.4Z"/><path id="Caminho_2439" data-name="Caminho 2439" class="cls-7" d="M157.64,207.14l10-9.7a18,18,0,0,0-6.8-5.4c-7-3.1-13.6-.4-15.5.4-5.5,2.5-8.3,6.8-10,9.5a30.57,30.57,0,0,0-2.9,5.7V247h15.4v-36.8a6.89,6.89,0,0,1,3.4-3.9,6.34,6.34,0,0,1,4.5-.2Z"/></g><g id="Grupo_2278" data-name="Grupo 2278"><path id="Caminho_2434" data-name="Caminho 2434" class="cls-8" d="M90.7,170.78v76H75.2v-73.7H69v-14.6H80.8a16.87,16.87,0,0,1,6,4.2C89,165.38,90.1,169.18,90.7,170.78Z"/><path id="Caminho_2435" data-name="Caminho 2435" class="cls-8" d="M104.1,194.88H75.2v15.5h28.9a27.55,27.55,0,0,0,13.9-6.5c1.6-1.4,8-7.1,9.2-16.4,1.4-11.1-4.9-21.4-13-26.2a22.76,22.76,0,0,0-6.7-2.6l-38.5-.2v14.6l34.3.2c1.2.3,7.5,5.5,7.9,9.9C111.1,188.18,110.7,190.58,104.1,194.88Z"/></g><g id="Grupo_2279" data-name="Grupo 2279"><rect id="Retângulo_188" data-name="Retângulo 188" class="cls-9" x="69" y="90.44" width="58.9" height="15.4"/><rect id="Retângulo_189" data-name="Retângulo 189" class="cls-9" x="113" y="53.74" width="14.9" height="89.3"/><rect id="Retângulo_187" data-name="Retângulo 187" class="cls-9" x="69" y="53.74" width="15.2" height="89.3"/></g></g></g></g></g></svg>