<svg xmlns="http://www.w3.org/2000/svg" width="26.019" height="26.019" viewBox="0 0 26.019 26.019"><defs><style>.a{fill:#25d747;}</style></defs><path class="a" d="M22.665,0H3.354A3.358,3.358,0,0,0,0,3.354V22.665a3.358,3.358,0,0,0,3.354,3.354H22.665a3.358,3.358,0,0,0,3.354-3.354V3.354A3.358,3.358,0,0,0,22.665,0ZM25,22.665A2.34,2.34,0,0,1,22.665,25H3.354a2.34,2.34,0,0,1-2.338-2.338V3.354A2.34,2.34,0,0,1,3.354,1.016H22.665A2.34,2.34,0,0,1,25,3.354Z"/><g transform="translate(9.824 9.216)"><path class="a" d="M208.719,186.975h0a3.838,3.838,0,0,0-3.039-1.276,4.75,4.75,0,0,0-2.38.565,4.931,4.931,0,0,0-.942.715v-.5a.521.521,0,0,0-.521-.521h-3.792a.521.521,0,0,0-.521.521v11.59a.521.521,0,0,0,.521.521h3.764a.521.521,0,0,0,.521-.521V191.5a1.6,1.6,0,0,1,1.463-1.641l.133-.007a1.17,1.17,0,0,1,.873.327,1.351,1.351,0,0,1,.413.98v6.914a.521.521,0,0,0,.521.521h3.549a.521.521,0,0,0,.521-.521v-7.367A5.572,5.572,0,0,0,208.719,186.975Zm.042,10.577h-2.507v-6.393a2.4,2.4,0,0,0-.739-1.737,2.2,2.2,0,0,0-1.646-.61l-.133.007a2.642,2.642,0,0,0-2.448,2.681v6.052h-2.722V187h2.75v1.367a.521.521,0,0,0,.941.308,5.35,5.35,0,0,1,1.559-1.509,3.731,3.731,0,0,1,1.863-.428,2.806,2.806,0,0,1,2.254.918h0a4.608,4.608,0,0,1,.827,3.047Z" transform="translate(-197.524 -185.699)"/></g><g transform="translate(4.198 9.475)"><path class="a" d="M87.387,190.729H83.595a.521.521,0,0,0-.521.521v9.234a.521.521,0,1,0,1.042,0v-8.713h2.75v10.549h-2.75v-2.3a.521.521,0,1,0-1.042,0v2.826a.521.521,0,0,0,.521.521h3.792a.521.521,0,0,0,.521-.521V191.25A.521.521,0,0,0,87.387,190.729Z" transform="translate(-83.074 -190.729)"/></g><g transform="translate(3.977 3.977)"><path class="a" d="M81.392,78.753A2.642,2.642,0,1,0,84.035,81.4,2.645,2.645,0,0,0,81.392,78.753Zm0,4.243a1.6,1.6,0,1,1,1.6-1.6A1.6,1.6,0,0,1,81.392,83Z" transform="translate(-78.75 -78.753)"/></g></svg>