<svg xmlns="http://www.w3.org/2000/svg" width="26.019" height="26.019" viewBox="0 0 40.458 40.458"><defs><style>.a{fill:#9726E0;}</style></defs><path class="a" d="M32.714,0H7.744A7.753,7.753,0,0,0,0,7.744v24.97a7.753,7.753,0,0,0,7.744,7.744H20.229a.79.79,0,0,0,.79-.79V27.222a.79.79,0,1,0-1.58,0V38.878H7.744A6.171,6.171,0,0,1,1.58,32.714V7.744A6.171,6.171,0,0,1,7.744,1.58h24.97a6.171,6.171,0,0,1,6.164,6.164v24.97a6.171,6.171,0,0,1-6.164,6.164H27.657V24.931h4.582a.79.79,0,0,0,.786-.711l.568-5.646a.79.79,0,0,0-.786-.869h-5.15V14.739c0-.537.171-.736.631-.736h4.484a.79.79,0,0,0,.79-.79v-5.5a.79.79,0,0,0-.79-.79H26.883a6.97,6.97,0,0,0-6,2.695,8.317,8.317,0,0,0-1.442,4.807V17.74H15.567a.79.79,0,0,0-.79.79v5.611a.79.79,0,0,0,.79.79h3.872v2.252a.79.79,0,1,0,1.58,0V24.141a.79.79,0,0,0-.79-.79H16.357V19.32h3.872a.79.79,0,0,0,.79-.79V14.42c0-1.78.571-5.922,5.864-5.922h5.1v3.924H28.288a2.123,2.123,0,0,0-2.211,2.317v3.755a.79.79,0,0,0,.79.79h5.066l-.409,4.066H26.867a.79.79,0,0,0-.79.79V39.668a.79.79,0,0,0,.79.79h5.847a7.753,7.753,0,0,0,7.744-7.744V7.744A7.753,7.753,0,0,0,32.714,0Z"/></svg>