<svg xmlns="http://www.w3.org/2000/svg" width="25.629" height="24" viewBox="0 0 25.629 24"><defs><style>.a{fill:#9726e0;}</style></defs><g transform="translate(-2 -2)"><path class="a" d="M25.494,4.357H23.358V3.571a1.715,1.715,0,0,0-3.417,0v.786H16.523V3.571a1.715,1.715,0,0,0-3.417,0v.786H9.689V3.571A1.644,1.644,0,0,0,7.98,2,1.644,1.644,0,0,0,6.272,3.571v.786H4.136A2.055,2.055,0,0,0,2,6.321V22.036A2.055,2.055,0,0,0,4.136,24H16.1a.394.394,0,1,0,0-.786H4.136a1.237,1.237,0,0,1-1.281-1.179V9.857H26.775v6.679a.429.429,0,0,0,.854,0V6.321A2.055,2.055,0,0,0,25.494,4.357Zm-4.7-.786a.857.857,0,0,1,1.709,0V5.929a.857.857,0,0,1-1.709,0Zm-6.835,0a.857.857,0,0,1,1.709,0V5.929a.857.857,0,0,1-1.709,0Zm-6.835,0a.857.857,0,0,1,1.709,0V5.929a.857.857,0,0,1-1.709,0Zm19.649,5.5H2.854V6.321A1.237,1.237,0,0,1,4.136,5.143H6.272v.786A1.644,1.644,0,0,0,7.98,7.5,1.644,1.644,0,0,0,9.689,5.929V5.143h3.417v.786a1.715,1.715,0,0,0,3.417,0V5.143h3.417v.786a1.715,1.715,0,0,0,3.417,0V5.143h2.136a1.237,1.237,0,0,1,1.281,1.179Z" transform="translate(0)"/><path class="a" d="M42.5,36A6.5,6.5,0,1,0,49,42.5,6.5,6.5,0,0,0,42.5,36Zm0,12A5.5,5.5,0,1,1,48,42.5,5.5,5.5,0,0,1,42.5,48Z" transform="translate(-21.371 -23)"/><path class="a" d="M48.268,44.662,44.379,48.55l-1.767-1.768a.5.5,0,1,0-.707.707l2.121,2.121a.5.5,0,0,0,.707,0l4.243-4.243a.5.5,0,1,0-.707-.707Z" transform="translate(-24.25 -27.257)"/></g></svg>