<svg xmlns="http://www.w3.org/2000/svg" width="213.13" height="378.64" viewBox="0 0 394.385 680.404"><defs><style>.a{opacity:0.8;}.b{fill:#f7022d;stroke:rgba(0,0,0,0);}.c{fill:#ff4800;}.c,.d,.e,.f,.g{stroke:#fff;stroke-width:2px;}.c,.d,.e,.f,.g,.i,.r,.t,.z{stroke-miterlimit:10;}.d{fill:#f2b50a;}.e{fill:#25d747;}.f{fill:#2d65f8;}.g{fill:#9726e0;}.ah,.al,.am,.an,.aw,.ay,.h{isolation:isolate;}.i,.r,.t,.z{fill:none;}.i{stroke:#000;}.j{fill:#8c6239;}.k{fill:#ff806d;}.l{fill:#e76f5f;}.m{fill:#454fb4;}.n{fill:#e1e6f9;}.o{fill:#e8d56f;}.p{fill:#93278f;}.q{fill:#a67c52;}.r{stroke:#d8be50;}.r,.t,.z{stroke-width:0.506px;}.s{fill:#d8be50;}.t{stroke:#b1c2e1;}.u{fill:#e03a6c;}.v{fill:#e67b47;}.w{fill:#48c2c7;}.x{fill:#5595f6;}.y{fill:#8739e5;}.z{stroke:#9a4131;}.aa{fill:#d67205;}.ab{fill:#ba6304;}.ac{fill:#ffc003;}.ad{fill:#ffcf03;}.ae{fill:#ffa303;}.af{fill:#ffdc01;}.ag,.ah,.am{fill:#ffb600;}.ah{opacity:0.27;}.ah,.al,.am,.an,.ay{mix-blend-mode:screen;}.ai{fill:#f80;}.aj{fill:#c96b05;}.ak,.al{fill:#ff8b00;}.al{opacity:0.47;}.am{opacity:0.35;}.ao{fill:#ffed78;}.ap{fill:#9ea8ba;}.aq{fill:#6b7282;}.ar{fill:#798093;}.as{fill:#9daed1;}.at{fill:#ff2e2a;}.au{fill:#e3211e;}.av,.aw{fill:#be0d30;}.aw{opacity:0.68;mix-blend-mode:multiply;}.ax{fill:#b0b9cc;}.ay{opacity:0.43;}.az{fill:#8a99ad;}.ba{fill:#bac6d8;}.bb{fill:#ceddf4;}</style></defs><g transform="translate(8.385 -1075.386)"><g class="a" transform="translate(-1739.025 1044.462)"><g transform="translate(1731.64 31.538)"><path class="b" d="M2114.372,360.247c-5.669-46.379-108.826-54.779-133.872-103.679-24.1-47.047,87.746-60.8,79.6-103.679-5.125-26.966-54.716-63.744-253.266-105.816h-.069L1731.64,31.538V710.631l75.193-25.452c173.426-59.3,213.732-107.991,217.087-142.158,2.387-24.343-14.155-39.5-7.237-72.682C2029.559,408.572,2119.443,401.753,2114.372,360.247Z" transform="translate(-1731.64 -31.538)"/></g><g transform="translate(1731.64 34.213)"><path class="c" d="M2100.684,360.247c-5.67-46.379-108.884-54.779-133.941-103.679-24.109-47.047,87.792-60.8,79.641-103.679-5.129-26.967-54.742-63.742-253.4-105.817L1731.64,34.213V706.158l61.342-20.98c173.518-59.294,213.846-107.99,217.2-142.157,2.391-24.343-14.161-39.5-7.239-72.682C2015.828,408.572,2105.758,401.753,2100.684,360.247Z" transform="translate(-1731.64 -34.213)"/></g><g transform="translate(1731.64 34.344)"><path class="d" d="M2084.377,357.124c-5.676-46.379-108.96-54.779-134.034-103.679-24.129-47.046,87.854-60.8,79.694-103.683-5.134-26.967-54.783-63.742-253.575-105.817l-44.822-9.6V697.6l44.825-15.545c173.637-59.294,213.992-107.99,217.349-142.157,2.39-24.343-14.171-39.5-7.246-72.682C1999.461,405.449,2089.455,398.63,2084.377,357.124Z" transform="translate(-1731.64 -34.344)"/></g><g transform="translate(1731.64 37.445)"><path class="e" d="M2069.779,357.125c-5.678-46.379-109.03-54.779-134.122-103.679-24.142-47.047,87.912-60.8,79.748-103.679-5.137-26.967-54.819-63.742-253.745-105.817h-.286l-29.733-6.505V692.418l29.733-10.36h.286c173.754-59.3,214.135-107.993,217.5-142.159,2.392-24.343-14.181-39.5-7.25-72.682C1984.806,405.45,2074.859,398.631,2069.779,357.125Z" transform="translate(-1731.64 -37.445)"/></g><g transform="translate(1731.64 40.32)"><path class="f" d="M2051.654,357.124c-5.587-46.379-107.3-54.779-131.987-103.679-23.758-47.047,86.512-60.805,78.479-103.679C1993.092,122.8,1944.2,86.025,1748.44,43.95h-.282l-16.518-3.63V688.169l16.516-6.114h.282c170.99-59.294,210.729-107.99,214.035-142.157,2.355-24.343-13.954-39.5-7.134-72.682C1968.035,405.449,2056.654,398.63,2051.654,357.124Z" transform="translate(-1731.64 -40.32)"/></g><path class="g" d="M2034.966,357.124c-5.595-46.374-107.295-54.774-131.988-103.674-23.759-47.047,86.512-60.8,78.479-103.679C1976.4,122.8,1927.51,86.025,1731.75,43.95V682.056c170.989-59.3,210.728-107.991,214.034-142.158,2.355-24.343-13.955-39.5-7.133-72.682C1951.351,405.449,2039.968,398.63,2034.966,357.124Z"/></g><g class="h" transform="translate(58 1101.79)"><path class="i" d="M475.5,721.5" transform="translate(-400.638 -357.209)"/><path class="j" d="M603.021,366.931s-13.422-.322-16.384,9.188-.393,11.161-7.509,18.254-2.654,6.712-1.56,12.641a14.68,14.68,0,0,1-1.406,9.89s27.781-5.8,48.223-4.027c-2.808-7.738,3.9-8.985,1.093-13.511s.626-9.974-2.966-16.145S618.006,366.931,603.021,366.931Z" transform="translate(-406.122 -337.702)"/><path class="k" d="M535.2,549.448s-15.962-92.832-37.9-137.825a33.568,33.568,0,0,0-30.263-18.576h-.094A32.79,32.79,0,0,0,445.48,400.7c-8.473,7.306-18.377,21.581-24.019,49.432-11.283,55.661-16.12,106.48-16.12,106.48h6.145l31.768-112.934s-9.672,54.046-5.648,98.413S475.917,589,414.92,676.926l.352,10.365s68.305-51.637,62.657-141.165C499.206,646.82,511,705.848,511,705.848h8.121s.754-162.144-23.448-256.524l33.072,100.125Z" transform="translate(-396.778 -339.138)"/><path class="k" d="M595.2,421.515s-34.6-4.068-52.434,123.422l5.742,5.742,35.4-83.989a859.782,859.782,0,0,0-2.825,114.952c3.224,56.468-24.273,123.921-24.273,123.921l4.794,6.222a380.729,380.729,0,0,0,52.15-161.106c14.508,121.713,26.437,158.159,26.437,158.159l7.434-1.761s5.5-120.194-15.327-247.648c37.914,22.587,58.079-37.93,58.079-37.93l-6.041-6.041s-21.674,48.475-54.458,13.318C616.174,415.065,595.2,421.515,595.2,421.515Z" transform="translate(-404.338 -340.372)"/><g transform="translate(52.858 8.713)"><rect class="l" width="16.971" height="19.663" transform="translate(8.702 31.204)"/><path class="k" d="M452.214,364.583c0,11.332,6.983,22.49,19.424,22.49,8.617,0,12.938-9.994,12.938-21.336s-6.983-20.517-15.6-20.517S452.214,353.25,452.214,364.583Z" transform="translate(-452.214 -345.22)"/></g><g transform="translate(182.14 34.146)"><path class="l" d="M597.006,424.817V405.151h16.971v19.666L610.43,452.25Z" transform="translate(-589.462 -373.95)"/><ellipse class="k" cx="15.604" cy="20.517" rx="15.604" ry="20.517"/></g><path class="m" d="M437.007,533.565s-2.44,34.338,5.549,51.047-22.749,31.981,2.115,46.566c.106.11-.136-.067,0,0,18.97,9.475,25.088,5.062,29.115-7.092a183.4,183.4,0,0,0,7.9-57.444c4.6,45.625-8.025,67.97,12.209,67.97q2.146,0,4.049-.052c11.219-.3,26.546-3.069,26.587-14.291.087-24.441-7.818-75.079-18.73-96.125C490.273,494.169,437.007,533.565,437.007,533.565Z" transform="translate(-398.396 -345.732)"/><path class="n" d="M458.959,393.031s-37.379,2.124-42.372,60.129a52.987,52.987,0,0,0,21.184,12.151s-2.876,35.18-5.093,58.4,27.748-7.128,49.939,0,32.735,8.237,29.405-8.962-12.538-51.925-12.538-51.925l20.311-16.928s-16.655-57.569-43.865-52.872C464.839,404.121,458.959,393.031,458.959,393.031Z" transform="translate(-397.396 -339.122)"/><path class="n" d="M581.322,519.492a749.334,749.334,0,0,0-4.191,80.687c0,45.825-26.079,85.221-26.079,85.221,7.505,8.382,18.851,13.682,35.889,14.427,0,0,34.4-45.487,27.274-143.422,5.639,106.8,6.748,146.82,6.748,146.82a64.01,64.01,0,0,0,42.172-7.28L639.977,519.495A157.287,157.287,0,0,1,581.322,519.492Z" transform="translate(-404.794 -346.095)"/><path class="o" d="M594.481,421.339l12.605,28.4,3.72,97.182s-19.443,13.147-37.013,0c2.221-31.711,7.676-73.042,7.676-73.042s-5,30.834-13,30.834a38.4,38.4,0,0,1-17.428-8.382,118.127,118.127,0,0,1,4.836-29.279C560.881,448.658,567.513,421.339,594.481,421.339Z" transform="translate(-404.794 -340.695)"/><path class="o" d="M614.63,419.828h0l-4.294,29.827,3.72,97.182s15.152,11.568,39.009-2.3c-6.657-53.821-12.76-80.357-12.76-80.357a11.444,11.444,0,0,0,17.477,0c-3.052-17.851,9.153-21.729-3.052-25.891S629.744,419.828,614.63,419.828Z" transform="translate(-408.056 -340.612)"/><path class="p" d="M455.321,377.206s-3.414-14.453,2.821-11.98c0-10.491,3.631-14.831,3.631-14.831s6.425,6.426,13.131,3.073,8.792,6.448,8.792,6.448a6.837,6.837,0,0,0,5.458-9.53c-2.515-8.382-2.689-9.279-13.422-13.283-7.767-2.9-25.492-.457-28.006,11.832S443.56,371.983,455.321,377.206Z" transform="translate(-399.01 -336)"/><path class="j" d="M606.586,375s-.5,6.045-8.894,9.35-1.2,10.883-2.654,16.854a26.087,26.087,0,0,1-6.177,10.691S576,376.7,605.652,369.207c14.982,2.5,18.415,16.229,16.7,26.842a45.775,45.775,0,0,0-.936,14.2A20.567,20.567,0,0,1,616.9,393.4C618.918,383.749,606.586,375,606.586,375Z" transform="translate(-406.722 -337.827)"/><path class="q" d="M606.346,401.27s-4.778.187-5.3,3.617-1.238,11.69,6.026,11.69,6.448-5.01,6.448-9.553S608.164,400.947,606.346,401.27Z" transform="translate(-407.528 -339.589)"/><path class="k" d="M534.6,550.7s-1.934,14.582,0,16.31c1.841,1.612,2.005-3.83,2.005-3.83s3.849,11.11,5.557,10.83c2.973-.493,8.45-10.159-3.311-23.9" transform="translate(-403.842 -347.78)"/><path class="k" d="M412.2,561.163s-2.273,14.533-4.639,15.633c-2.228,1.035-.835-4.243-.835-4.243s-6.844,9.562-8.4,8.8c-2.707-1.315-5.219-12.138,9.955-21.978" transform="translate(-396.279 -348.29)"/><path class="k" d="M692.652,422.644s-1.934-14.581,0-16.309c1.841-1.612,2.005,3.83,2.005,3.83s1.583-6.222,3.291-5.938c2.973.493,10.72,5.271-1.041,19.021" transform="translate(-412.537 -339.753)"/><path class="k" d="M549.261,551.722s-.246,14.707-2.434,16.12c-2.064,1.332-1.416-4.085-1.416-4.085s-5.458,10.414-7.092,9.882c-2.866-.932-6.851-11.3,6.818-23.142" transform="translate(-403.937 -347.801)"/><path class="n" d="M420.883,699.5s5.33,23.009-2.292,25.411-8.979-25.427-7.689-28.4a5.111,5.111,0,0,1,4.285-3.065A7.766,7.766,0,0,0,420.883,699.5Z" transform="translate(-397.06 -355.666)"/><path class="n" d="M525.034,722.323s19.627,13.137,15.709,20.1-23.944-12.406-25.03-15.452a5.222,5.222,0,0,1,.919-5.158A8,8,0,0,0,525.034,722.323Z" transform="translate(-402.833 -357.226)"/><path class="m" d="M653.12,722.971s19.627,13.137,15.71,20.1S644.886,730.666,643.8,727.62a5.111,5.111,0,0,1,1.028-5.158A7.772,7.772,0,0,0,653.12,722.971Z" transform="translate(-409.88 -357.262)"/><path class="m" d="M565.841,722.971s19.627,13.137,15.71,20.1-23.941-12.406-25.031-15.452a5.111,5.111,0,0,1,1.032-5.158A7.769,7.769,0,0,0,565.841,722.971Z" transform="translate(-405.079 -357.262)"/><path class="k" d="M458.474,366.835s-7.39-6.061-6.361,3.5c.693,6.448,7,3.369,7,3.369" transform="translate(-399.345 -337.592)"/><path class="r" d="M590.975,424.342l5.715,20.7h6.787l-3.224,5.648,9.046,13.734,3.72,79.137" transform="translate(-406.991 -340.86)"/><path class="r" d="M622.321,424.342l-1.934,20.082H614.8l3.771,4.729-6.8,15.153" transform="translate(-408.135 -340.86)"/><path class="r" d="M554.423,491.946a49.943,49.943,0,0,0,18.121,9.35" transform="translate(-404.98 -344.58)"/><path class="r" d="M656.212,441.393a47.307,47.307,0,0,0-4.575,25.991" transform="translate(-410.313 -341.798)"/><path class="r" d="M577.666,550.481s17.113,8.837,30.885-.37" transform="translate(-406.258 -347.78)"/><path class="r" d="M618.725,549.94s18.486,8.544,31.665-2.985" transform="translate(-414.517 -373.606)"/><path class="r" d="M582.947,472.118s5.159-27.08-5.267-41.182" transform="translate(-406.259 -341.223)"/><path class="r" d="M636.752,430.087A66.113,66.113,0,0,0,641.3,461.1" transform="translate(-409.493 -341.176)"/><path class="s" d="M605.286,468.9a1.132,1.132,0,1,0,1.089-1.174h0a1.127,1.127,0,0,0-1.087,1.168Z" transform="translate(-407.778 -343.247)"/><path class="s" d="M605.887,484.263a1.131,1.131,0,1,0,1.088-1.173h0A1.13,1.13,0,0,0,605.887,484.263Z" transform="translate(-407.811 -344.092)"/><path class="s" d="M606.484,499.626a1.131,1.131,0,1,0,1.088-1.174h0a1.129,1.129,0,0,0-1.087,1.169Z" transform="translate(-407.844 -344.938)"/><path class="s" d="M607.681,530.221a1.132,1.132,0,1,0,1.089-1.174h0a1.129,1.129,0,0,0-1.087,1.169Z" transform="translate(-407.91 -346.621)"/><path class="s" d="M607.084,514.985a1.132,1.132,0,1,0,1.089-1.174h0a1.129,1.129,0,0,0-1.087,1.169Z" transform="translate(-407.877 -345.783)"/><path class="s" d="M608.292,545.707a1.131,1.131,0,1,0,1.088-1.174h0A1.132,1.132,0,0,0,608.292,545.707Z" transform="translate(-407.943 -347.473)"/><path class="t" d="M496.91,430.087s2.67,10.262,7.021,31.017" transform="translate(-401.815 -341.176)"/><path class="t" d="M451.47,438.773l-4.353,28.5-4.974.577" transform="translate(-398.802 -341.654)"/><path class="t" d="M457.3,395.507s9.288,15.7,24.992,0" transform="translate(-399.636 -339.274)"/><path class="k" d="M699.752,411s-6.655,5.591-8.105.591,5.968-7.36,5.968-7.36Z" transform="translate(-412.519 -339.754)"/><g transform="translate(7.178 208.382)"><g transform="translate(0)"><path class="u" d="M414.226,559.177l.174-.967-9.375-1.7-.178.968Z" transform="translate(-403.929 -556.514)"/><rect class="v" width="1.032" height="9.53" transform="matrix(0.179, -0.984, 0.984, 0.179, 0.735, 1.973)"/><rect class="o" width="1.032" height="9.53" transform="matrix(0.179, -0.984, 0.984, 0.179, 0.551, 2.989)"/><rect class="w" width="1.032" height="9.53" transform="translate(0.367 4.004) rotate(-79.713)"/><rect class="x" width="1.032" height="9.53" transform="translate(0.184 5.017) rotate(-79.713)"/><rect class="y" width="1.032" height="9.53" transform="matrix(0.179, -0.984, 0.984, 0.179, 0, 6.032)"/></g></g><path class="z" d="M478.7,378.578a15.6,15.6,0,0,1-8.3-.938" transform="translate(-400.357 -338.291)"/><path class="z" d="M603.127,404.6a8.594,8.594,0,0,0,6.8-.374" transform="translate(-407.659 -339.754)"/><path class="z" d="M692.866,413.543s2.4,2,6.964-1.831" transform="translate(-412.596 -340.165)"/><g transform="translate(56.278 88.146)"><path class="u" d="M461.728,429.278l-5.874.352v2.809H461.8Z" transform="translate(-455.835 -429.278)"/><path class="v" d="M461.793,432.632h-5.945v3.5h6.021Z" transform="translate(-455.835 -429.463)"/><path class="o" d="M461.866,436.337h-6.022v3.5h6.1Z" transform="translate(-455.835 -429.666)"/><path class="w" d="M461.941,440.045h-6.1v3.418h6.174Z" transform="translate(-455.835 -429.87)"/><path class="x" d="M462.037,445.089l-.029-1.441h-6.174v3.5l14.575.02.126-1.7Z" transform="translate(-455.834 -430.069)"/><path class="y" d="M455.837,450.235l14.337.381.242-3.24-14.579-.02Z" transform="translate(-455.834 -430.273)"/></g><g transform="translate(71.65 85.763)"><path class="u" d="M472.8,433.946c-.08.206-.146.419-.21.644l15.543-6.934c-.226-.107-.449-.21-.68-.3a9.822,9.822,0,0,0-4.021-.58,12.705,12.705,0,0,0-4.513,1.157,12.445,12.445,0,0,0-3.83,2.58A10.251,10.251,0,0,0,472.8,433.946Z" transform="translate(-472.127 -426.756)"/><path class="v" d="M472.107,437.992c0,.216.036.436.055.644l6.226-2.779c.023-.186.055-.373.094-.554a4.054,4.054,0,0,1,.8-1.644,4.287,4.287,0,0,1,3.382-1.509,4.066,4.066,0,0,1,1.757.5,5.276,5.276,0,0,1,.474.3l6.374-2.843c-.178-.2-.355-.406-.548-.6a9.4,9.4,0,0,0-2.612-1.828l-15.535,6.929A9.912,9.912,0,0,0,472.107,437.992Z" transform="translate(-472.1 -426.807)"/><path class="o" d="M487.886,435.938l5.993-2.676a.3.3,0,0,0-.043-.107,11.686,11.686,0,0,0-1.818-2.9l-6.373,2.843a5.923,5.923,0,0,1,1.06.968A7.548,7.548,0,0,1,487.886,435.938Z" transform="translate(-472.845 -426.949)"/><path class="o" d="M479,439.907a7.65,7.65,0,0,1-.606-2.132,6.038,6.038,0,0,1,0-1.431l-6.226,2.779a11.417,11.417,0,0,0,.9,3.433Z" transform="translate(-472.104 -427.284)"/><path class="w" d="M479.069,440.149v-.035l-5.935,2.65c.023.048.036.1.059.145a11.4,11.4,0,0,0,1.743,2.789l6.294-2.8a5.74,5.74,0,0,1-.968-.88A7.294,7.294,0,0,1,479.069,440.149Z" transform="translate(-472.157 -427.491)"/><path class="w" d="M488.016,436.1v.032a7.634,7.634,0,0,1,.612,2.119,5.658,5.658,0,0,1,.023,1.289l6.254-2.792a11.577,11.577,0,0,0-.912-3.334Z" transform="translate(-472.976 -427.122)"/><path class="x" d="M487.949,439.759a4.972,4.972,0,0,1-.106.645,4.143,4.143,0,0,1-.806,1.631,4.077,4.077,0,0,1-1.548,1.151,4,4,0,0,1-1.864.37,4.1,4.1,0,0,1-1.75-.489,4.645,4.645,0,0,1-.558-.355l-6.294,2.806a8.468,8.468,0,0,0,.6.644,9.448,9.448,0,0,0,2.515,1.793l15.713-7.009a9.722,9.722,0,0,0,.422-3.224c-.013-.238-.045-.506-.071-.754" transform="translate(-472.261 -427.318)"/><path class="y" d="M493.772,441.953c.1-.251.183-.507.261-.761L478.32,448.2a5.965,5.965,0,0,0,.761.323,9.841,9.841,0,0,0,3.985.612,11.183,11.183,0,0,0,2.927-.541l2.992-1.335a11.959,11.959,0,0,0,2.457-1.86A10.347,10.347,0,0,0,493.772,441.953Z" transform="translate(-472.442 -427.55)"/></g><g transform="translate(54.634 109.863)"><path class="u" d="M476.028,453.251l-6.449-.433-.987,2.9,6.365.19Z" transform="translate(-454.892 -452.29)"/><path class="u" d="M460.423,452.3l-6.329-.039.968,3.049,6.277.187Z" transform="translate(-454.094 -452.259)"/><path class="v" d="M462.454,459.2l-1.032-3.547-6.264-.161,1.139,3.546Z" transform="translate(-454.153 -452.437)"/><path class="v" d="M473.519,459.541l1.38-3.462-6.363-.19-1.18,3.469Z" transform="translate(-454.824 -452.459)"/><path class="o" d="M463.552,462.949,462.52,459.4l-6.171-.183,1.138,3.546Z" transform="translate(-454.218 -452.642)"/><path class="o" d="M472.071,463.2l1.38-3.462-6.161-.184-1.179,3.469Z" transform="translate(-454.755 -452.66)"/><path class="w" d="M465.64,463.213l-1.077,3.169-.941-3.224-6.061-.181,1.112,3.45,11.584.341,1.348-3.378Z" transform="translate(-454.285 -452.849)"/><path class="x" d="M458.734,466.625l1.142,3.546,9.065.267,1.38-3.462Z" transform="translate(-454.349 -453.049)"/><path class="y" d="M460.993,473.66l6.77.126,1.247-3.131-9.065-.267Z" transform="translate(-454.416 -453.256)"/></g><g transform="translate(77.868 109.772)"><path class="u" d="M493.025,452.2l-14.344-.032.02,3.169,14.185-.322Z" transform="translate(-478.681 -452.163)"/><path class="v" d="M484.715,458.853l-.036-1.551,8.1-.186.1-1.954-14.185.322.022,3.5Z" transform="translate(-478.682 -452.328)"/><path class="o" d="M478.748,462.708l13.991-.322-.055-2.4-7.957-.148-.026-.767-5.984.139Z" transform="translate(-478.683 -452.543)"/><path class="w" d="M478.773,466.318l6.1-.138-.023-1.029,7.941-.544-.045-2.025-13.991.323Z" transform="translate(-478.685 -452.736)"/><path class="x" d="M478.8,470.029l14.933-.345.071-1.551-8.891-.126-.039-1.611-6.1.142Z" transform="translate(-478.686 -452.946)"/><path class="y" d="M478.817,473.1l14.763.023.148-3.243-14.934.345Z" transform="translate(-478.687 -453.138)"/></g><g transform="translate(274.813 44.823)"><g transform="translate(0)"><path class="aa" d="M730.046,442.051l.028-.174-4.793,1.373a6.958,6.958,0,0,1,1.713,5.984h0l4.793-1.372h0A6.922,6.922,0,0,1,730.046,442.051Z" transform="translate(-689.193 -386.648)"/><path class="ab" d="M731.787,447.862h0a6.922,6.922,0,0,1-1.742-5.811l.028-.174-4.793,1.373a6.927,6.927,0,0,1,.684.88,4.1,4.1,0,0,1,2.878.5c.781.651,1.361,2.447,1.667,3.6Z" transform="translate(-689.193 -386.648)"/><path class="ac" d="M728.982,407.034l3.126-.895c5.951-1.7,9.305-8.279,7.479-14.657l-1.579-5.516a1.39,1.39,0,0,0-2.672.765l.3,1.056a1.968,1.968,0,0,1-1.263,2.473l-3.861,1.106-.431-1.5,3.861-1.106a.452.452,0,0,0,.29-.567l-.3-1.056a2.85,2.85,0,1,1,5.478-1.569l1.579,5.515c2.064,7.208-1.727,14.639-8.451,16.564l-5.7,1.631A13.315,13.315,0,0,0,728.982,407.034Z" transform="translate(-689.279 -383.432)"/><path class="ad" d="M707.44,413.317l-3.127.895c-5.95,1.7-12.276-2.1-14.1-8.477l-1.579-5.516a1.39,1.39,0,0,1,2.672-.765l.3,1.057a1.967,1.967,0,0,0,2.38,1.43l3.861-1.1-.43-1.5-3.862,1.106a.452.452,0,0,1-.545-.328l-.3-1.057a2.85,2.85,0,1,0-5.479,1.569l1.579,5.516c2.064,7.207,9.213,11.505,15.936,9.58l5.7-1.631A13.282,13.282,0,0,1,707.44,413.317Z" transform="translate(-687.092 -384.174)"/><g transform="translate(37.562 5.689)"><path class="ae" d="M732.108,407.458l-3.126.895a13.315,13.315,0,0,1-2.141,2.241l4.051-1.159a16.675,16.675,0,0,0,1.372-2.022Z" transform="translate(-726.841 -390.441)"/><rect class="ae" width="2.692" height="1.565" transform="translate(3.243 0.741) rotate(-15.977)"/></g><g transform="translate(7.738 15.157)"><rect class="ae" width="2.692" height="1.565" transform="translate(0 0.741) rotate(-15.977)"/><path class="ae" d="M705.307,415.167l-.157.043a16.6,16.6,0,0,0,2.235.989l4.051-1.16a13.282,13.282,0,0,1-3-.768Z" transform="translate(-695.823 -400.286)"/></g><path class="af" d="M726.986,385.819l-30.209,8.648a2.6,2.6,0,0,0-1.787,3.221l35.217-10.083A2.6,2.6,0,0,0,726.986,385.819Z" transform="translate(-687.521 -383.558)"/><path class="ag" d="M696.846,397.327l1.667,5.822a14.58,14.58,0,0,0,16.792,10.274l6.117-1.752a14.579,14.579,0,0,0,8.811-17.6l-1.667-5.822Z" transform="translate(-687.628 -383.697)"/><path class="ah" d="M700.911,402.11c-.89.255-1.749.541-2.569.85l.253.887a14.48,14.48,0,0,0,7,8.746c6.5-2.2,10.949-5.986,10.144-8.8C714.874,400.769,708.235,400.014,700.911,402.11Z" transform="translate(-687.711 -384.395)"/><path class="ai" d="M724.924,389.443l.923,3.226c2.093,7.309-1.7,15.229-8.81,17.6-1.478.494-4.534,1.372-6.118,1.752a12.693,12.693,0,0,1-4.236.195,14.588,14.588,0,0,0,9.164,1.2l6.117-1.752a14.579,14.579,0,0,0,8.811-17.6l-1.667-5.822Z" transform="translate(-688.17 -383.697)"/><path class="aa" d="M716.569,414.738l.954,3.335,5.76-1.649-.954-3.335Z" transform="translate(-688.713 -385.064)"/><path class="aj" d="M717.132,416.707l5.761-1.649-.564-1.969-5.761,1.65Z" transform="translate(-688.713 -385.064)"/><path class="ad" d="M716.2,418.619l.83,2.9,8.367-2.395-.831-2.9Z" transform="translate(-688.693 -385.236)"/><path class="af" d="M725.981,419.105l-9.58,2.742a.841.841,0,0,0-.577,1.04l.181.634,11.2-3.206-.181-.634A.841.841,0,0,0,725.981,419.105Z" transform="translate(-688.671 -385.393)"/><path class="ak" d="M714.875,423.885l8.707,13.852,4.641-1.329.008-16.347Z" transform="translate(-688.62 -385.448)"/><path class="al" d="M723.582,437.848l.465-.133a12.927,12.927,0,0,0,.72-9.794,14.688,14.688,0,0,0-3.172-5.849L714.875,424Z" transform="translate(-688.62 -385.558)"/><path class="af" d="M728.6,437.365l-4.627,1.324a2.233,2.233,0,0,0-1.543,2.739l8.928-2.556A2.233,2.233,0,0,0,728.6,437.365Z" transform="translate(-689.032 -386.395)"/><path class="ak" d="M731.366,438.964l-8.928,2.556a2.233,2.233,0,0,0,2.771,1.549l4.626-1.325A2.233,2.233,0,0,0,731.366,438.964Z" transform="translate(-689.036 -386.487)"/><path class="af" d="M733.6,447.635l-8.564,2.452a1.584,1.584,0,0,0-1.087,1.959l.148.518,11.61-3.324-.148-.519A1.584,1.584,0,0,0,733.6,447.635Z" transform="translate(-689.116 -386.961)"/><path class="ag" d="M721.7,453.275l2.2,7.7,16.155-4.626-2.2-7.7Z" transform="translate(-688.996 -387.02)"/><path class="am" d="M723.721,460.386c.582-.116,1.172-.259,1.765-.429,6.3-1.8,10.637-5.991,9.676-9.351a3.518,3.518,0,0,0-.47-1l-12.993,3.72Z" transform="translate(-688.996 -387.073)"/><path class="af" d="M740.387,456.706l-16.709,4.784a1.459,1.459,0,0,0-1,1.8l.043.149,19.514-5.588-.043-.148A1.459,1.459,0,0,0,740.387,456.706Z" transform="translate(-689.046 -387.46)"/></g><g class="an" transform="translate(20.19 3.554)"><path class="ao" d="M726.958,387.8l-18.109,5.184a.307.307,0,1,1-.169-.59l18.109-5.185a.307.307,0,1,1,.169.591Z" transform="translate(-708.458 -387.194)"/></g><g class="an" transform="translate(14.187 9.218)"><path class="ao" d="M706.826,393.789l-4.33,1.24a.307.307,0,1,1-.169-.59l4.331-1.24a.307.307,0,1,1,.168.59Z" transform="translate(-702.105 -393.187)"/></g><g class="an" transform="translate(8.848 11.034)"><path class="ao" d="M700.174,395.711l-3.327.953a.307.307,0,0,1-.169-.591L700,395.12a.307.307,0,0,1,.169.591Z" transform="translate(-696.454 -395.108)"/></g></g><path class="k" d="M699.829,411.784s-6.654,5.591-8.105.59,5.968-7.36,5.968-7.36Z" transform="translate(-412.523 -339.797)"/><path class="z" d="M692.943,414.33s2.4,2,6.964-1.831" transform="translate(-412.6 -340.209)"/><g transform="translate(75.093 78.549)"><circle class="ap" cx="5.595" cy="5.595" r="5.595" transform="translate(1.262 6.634) rotate(-27.374)"/><rect class="aq" width="15.443" height="1.889" transform="translate(0.923 8.543) rotate(-2.417)"/><path class="ar" d="M484.175,419.371a8.8,8.8,0,1,0,9.165,8.424A8.8,8.8,0,0,0,484.175,419.371Zm.682,16.165a7.376,7.376,0,1,1,7.059-7.681A7.385,7.385,0,0,1,484.857,435.535Z" transform="translate(-475.744 -419.135)"/><g transform="translate(0.373 0.691)"><path class="as" d="M484.13,419.861a8.343,8.343,0,1,0,8.687,7.984A8.352,8.352,0,0,0,484.13,419.861Zm.689,16.331a8,8,0,1,1,7.659-8.333A8.012,8.012,0,0,1,484.819,436.192Z" transform="translate(-476.138 -419.853)"/></g><path class="at" d="M491.183,448.176l-5.485-2.641-5.244,3.094-1.226-29.054,10.729-.453Z" transform="translate(-475.935 -419.122)"/><g transform="translate(3.293)"><path class="au" d="M480.059,419.564l-.831.035,1.226,29.054.812-.479Z" transform="translate(-479.228 -419.146)"/><path class="au" d="M489.753,419.155l1.208,28.635.8.386-1.226-29.054Z" transform="translate(-479.807 -419.122)"/><path class="au" d="M487.836,419.222l-6.172.26,1.174,27.824,2.993-1.766,3.18,1.531Z" transform="translate(-479.362 -419.127)"/><path class="av" d="M484.829,446.2l1.114-.657.744.358-1.122-26.576-1.867.079Z" transform="translate(-479.474 -419.133)"/></g><path class="aw" d="M479.828,433.7a7.334,7.334,0,0,0,10.709-.937l-.4-9.5a7.334,7.334,0,0,0-10.749-.031Z" transform="translate(-475.944 -419.22)"/><path class="ax" d="M484.952,434.948a6.664,6.664,0,1,1,6.378-6.939A6.672,6.672,0,0,1,484.952,434.948Z" transform="translate(-475.868 -419.259)"/><circle class="ap" cx="5.595" cy="5.595" r="5.595" transform="translate(1.262 6.634) rotate(-27.374)"/><g class="ay" transform="translate(3.547 3.439)"><path class="ax" d="M487.9,423.713l-6.566,9.036a5.526,5.526,0,0,0,.507.367l6.564-9.033A5.529,5.529,0,0,0,487.9,423.713Z" transform="translate(-479.598 -422.813)"/><path class="ax" d="M489.2,424.845l-6.391,8.8c.1.041.2.079.3.115L489.4,425.1C489.334,425.011,489.266,424.927,489.2,424.845Z" transform="translate(-479.679 -422.876)"/><path class="ax" d="M486.484,423.033l-6.24,8.588c.063.088.129.175.2.259l6.349-8.738C486.691,423.1,486.588,423.066,486.484,423.033Z" transform="translate(-479.538 -422.776)"/><path class="ax" d="M484.954,422.761l-5.457,7.511q.095.258.214.5l5.79-7.969Q485.231,422.77,484.954,422.761Z" transform="translate(-479.497 -422.761)"/></g><path class="az" d="M479.594,428.569a5.6,5.6,0,0,1,5.128-5.812,5.6,5.6,0,1,0,.471,11.172A5.6,5.6,0,0,1,479.594,428.569Z" transform="translate(-475.93 -419.322)"/><path class="ba" d="M484.689,430.379l2.321-.1.048,1.148-4.166.176-.05-1.182c.7-.657,2.452-2.246,2.412-3.194a.769.769,0,0,0-.87-.772,3.447,3.447,0,0,0-1.494.508L482.8,425.7c3.092-1.378,4.912.537,3.521,2.791A10.142,10.142,0,0,1,484.689,430.379Z" transform="translate(-476.132 -419.458)"/><path class="ba" d="M484.689,430.379l2.321-.1.048,1.148-4.166.176-.05-1.182c.7-.657,2.452-2.246,2.412-3.194a.769.769,0,0,0-.87-.772,3.447,3.447,0,0,0-1.494.508L482.8,425.7c3.092-1.378,4.912.537,3.521,2.791A10.142,10.142,0,0,1,484.689,430.379Z" transform="translate(-476.132 -419.458)"/><path class="ar" d="M482.661,431.827l-.063-1.513.166-.156c.625-.582,2.284-2.129,2.25-2.934a.548.548,0,0,0-.635-.556,3.2,3.2,0,0,0-1.392.479l-.311.177-.133-1.778.146-.065a5.2,5.2,0,0,1,1.875-.48,2.286,2.286,0,0,1,2.179,1,2.5,2.5,0,0,1-.248,2.6,9.079,9.079,0,0,1-1.242,1.517l1.96-.082.067,1.6Z" transform="translate(-476.118 -419.445)"/><path class="ba" d="M484.689,430.379l2.321-.1.048,1.148-4.166.176-.05-1.182c.7-.657,2.452-2.246,2.412-3.194a.769.769,0,0,0-.87-.772,3.447,3.447,0,0,0-1.494.508L482.8,425.7c3.092-1.378,4.912.537,3.521,2.791A10.142,10.142,0,0,1,484.689,430.379Z" transform="translate(-476.132 -419.458)"/><path class="bb" d="M484.078,425.568a2.46,2.46,0,0,1,1.8.1,1.877,1.877,0,0,1,.106,2.558,14.1,14.1,0,0,1-1.8,2.06,21.035,21.035,0,0,0,1.711-2.116,2.075,2.075,0,0,0,.206-2.1,1.173,1.173,0,0,0-1.119-.566A4.1,4.1,0,0,0,484.078,425.568Z" transform="translate(-476.202 -419.47)"/><g transform="translate(2.454 4.866)"><path class="bb" d="M478.446,429.417a6.207,6.207,0,0,1,1.339-5.126.057.057,0,0,1,.087.073,6.1,6.1,0,0,0-1.314,5.032A.057.057,0,0,1,478.446,429.417Z" transform="translate(-478.34 -424.271)"/></g><g transform="translate(2.686 10.492)"><path class="bb" d="M479.3,431.893a6.189,6.189,0,0,1-.709-1.6.057.057,0,0,1,.11-.031c.366,1.295.815,1.56.678,1.646C479.366,431.917,479.313,431.919,479.3,431.893Z" transform="translate(-478.585 -430.224)"/></g><g transform="translate(3.71 12.541)"><path class="bb" d="M484.886,434.927a6.218,6.218,0,0,1-5.2-2.443.057.057,0,0,1,.091-.068,6.105,6.105,0,0,0,5.109,2.4A.056.056,0,1,1,484.886,434.927Z" transform="translate(-479.67 -432.393)"/></g><g transform="translate(12.261 3.858)"><path class="bb" d="M489.311,432.648a6.1,6.1,0,0,0-.569-9.341.056.056,0,0,1,.067-.091,6.213,6.213,0,0,1,.58,9.514A.057.057,0,0,1,489.311,432.648Z" transform="translate(-488.718 -423.204)"/></g><g transform="translate(4.415 3.529)"><path class="bb" d="M480.434,423.65a6.3,6.3,0,0,1,1.043-.785.057.057,0,0,1,.059.1,6.072,6.072,0,0,0-1.024.771A.057.057,0,0,1,480.434,423.65Z" transform="translate(-480.415 -422.856)"/></g></g></g></g></svg>