<svg xmlns="http://www.w3.org/2000/svg" width="15.73" height="24" viewBox="0 0 15.73 24"><defs><style>.a{fill:#f7022d;}</style></defs><g transform="translate(-84.424)"><path class="a" d="M92.289,0a7.871,7.871,0,0,0-7.865,7.86c0,4.165,7.148,15.436,7.452,15.913a.49.49,0,0,0,.826,0c.3-.478,7.452-11.748,7.452-15.913A7.871,7.871,0,0,0,92.289,0Zm0,22.586c-.647-1.046-1.96-3.212-3.26-5.612C86.657,12.594,85.4,9.442,85.4,7.86a6.885,6.885,0,0,1,13.771,0c0,1.582-1.254,4.734-3.626,9.113C94.249,19.373,92.936,21.539,92.289,22.586Z" transform="translate(0)"/><path class="a" d="M172.76,76.071a3.621,3.621,0,1,0,3.72,3.619A3.675,3.675,0,0,0,172.76,76.071Zm0,6.259a2.642,2.642,0,1,1,2.741-2.64A2.695,2.695,0,0,1,172.76,82.33Z" transform="translate(-80.472 -72.345)"/></g></svg>