<svg xmlns="http://www.w3.org/2000/svg" width="40.666" height="40.666" viewBox="0 0 40.666 40.666"><defs><style>.a{fill:#262626;}</style></defs><path class="a" d="M28.752,0H11.914A11.927,11.927,0,0,0,0,11.914V28.752A11.927,11.927,0,0,0,11.914,40.666H28.752A11.927,11.927,0,0,0,40.666,28.752V11.914A11.927,11.927,0,0,0,28.752,0ZM39.078,28.752A10.337,10.337,0,0,1,28.752,39.078H11.914A10.337,10.337,0,0,1,1.589,28.752V11.914A10.337,10.337,0,0,1,11.914,1.589H28.752A10.337,10.337,0,0,1,39.078,11.914Z"/><path class="a" d="M128.961,118a10.992,10.992,0,0,0-5.021,1.215.794.794,0,1,0,.729,1.412,9.268,9.268,0,0,1,4.292-1.038,9.367,9.367,0,1,1-8.156,4.751.794.794,0,1,0-1.381-.784A10.962,10.962,0,1,0,128.961,118Z" transform="translate(-108.628 -108.628)"/><path class="a" d="M173.148,166a7.148,7.148,0,1,0,7.148,7.148A7.156,7.156,0,0,0,173.148,166Zm0,12.708a5.56,5.56,0,1,1,5.56-5.56A5.566,5.566,0,0,1,173.148,178.708Z" transform="translate(-152.815 -152.815)"/><path class="a" d="M351.812,86.75a2.562,2.562,0,1,0,2.562,2.562A2.565,2.565,0,0,0,351.812,86.75Zm0,3.775a1.213,1.213,0,1,1,1.213-1.213A1.215,1.215,0,0,1,351.812,90.525Z" transform="translate(-321.272 -79.264)"/><path class="a" d="M128.961,118a10.992,10.992,0,0,1,5.021,1.215.794.794,0,1,1-.729,1.412,9.268,9.268,0,0,0-4.292-1.038,9.367,9.367,0,1,0,8.156,4.751.794.794,0,1,1,1.381-.784A10.962,10.962,0,1,1,128.961,118Z" transform="translate(-108.628 -108.628)"/></svg>